M48
; DRILL file KiCad 10.0.3 date 2026-06-19T22:51:14
; FORMAT={-:-/ absolute / metric / decimal}
; #@! TF.CreationDate,2026-06-19T22:51:14+05:30
; #@! TF.GenerationSoftware,Kicad,Pcbnew,10.0.3
; #@! TF.FileFunction,NonPlated,1,2,NPTH
FMAT,2
METRIC
; #@! TA.AperFunction,NonPlated,NPTH,ComponentDrill
T1C1.700
; #@! TA.AperFunction,NonPlated,NPTH,ComponentDrill
T2C4.000
%
G90
G05
T1
X93.24Y-75.853
X93.28Y-94.853
X93.32Y-113.853
X103.4Y-75.853
X103.44Y-94.853
X103.48Y-113.853
X112.24Y-113.853
X112.32Y-75.853
X112.32Y-94.853
X122.4Y-113.853
X122.48Y-75.853
X122.48Y-94.853
X131.28Y-94.853
X131.32Y-75.853
X131.32Y-113.853
X141.44Y-94.853
X141.48Y-75.853
X141.48Y-113.853
T2
X98.32Y-75.853
X98.36Y-94.853
X98.4Y-113.853
X117.32Y-113.853
X117.4Y-75.853
X117.4Y-94.853
X136.36Y-94.853
X136.4Y-75.853
X136.4Y-113.853
M30
