M48
; DRILL file KiCad 10.0.3 date 2026-06-19T22:51:14
; FORMAT={-:-/ absolute / metric / decimal}
; #@! TF.CreationDate,2026-06-19T22:51:14+05:30
; #@! TF.GenerationSoftware,Kicad,Pcbnew,10.0.3
; #@! TF.FileFunction,Plated,1,2,PTH
FMAT,2
METRIC
; #@! TA.AperFunction,Plated,PTH,ViaDrill
T1C0.300
; #@! TA.AperFunction,Plated,PTH,ComponentDrill
T2C0.800
; #@! TA.AperFunction,Plated,PTH,ComponentDrill
T3C1.000
; #@! TA.AperFunction,Plated,PTH,ComponentDrill
T4C1.500
%
G90
G05
T1
X84.3Y-73.75
X85.0Y-103.75
X86.25Y-73.5
X87.5Y-118.25
X87.75Y-109.0
X89.0Y-81.5
X91.0Y-103.75
X92.0Y-109.0
X92.25Y-84.75
X93.0Y-101.25
X93.75Y-68.5
X94.25Y-87.5
X94.5Y-106.5
X95.75Y-81.5
X95.75Y-120.75
X96.5Y-106.629
X96.651Y-87.712
X97.25Y-120.25
X97.75Y-68.55
X103.75Y-61.6
X103.75Y-65.5
X109.5Y-84.75
X111.25Y-68.5
X111.25Y-106.5
X111.25Y-108.0
X114.75Y-101.85
X115.0Y-62.5
X115.0Y-64.25
X115.749Y-68.503
X118.0Y-62.75
X118.75Y-100.0
X121.5Y-106.5
X121.5Y-108.25
X121.505Y-99.965
X129.75Y-63.25
X129.75Y-77.0
X129.75Y-81.0
X130.25Y-68.5
X131.0Y-65.75
X132.35Y-65.75
X133.75Y-64.25
X134.0Y-101.85
X134.414Y-68.5
X134.438Y-106.586
X134.75Y-60.0
X159.5Y-54.0
X160.5Y-56.5
X160.75Y-64.5
X160.75Y-68.5
X163.1Y-54.0
X163.1Y-56.5
T2
X107.9Y-70.853
X107.9Y-78.473
X107.9Y-89.853
X107.9Y-97.473
X107.9Y-108.853
X107.9Y-116.473
X126.9Y-70.853
X126.9Y-78.473
X126.9Y-89.853
X126.9Y-97.473
X126.9Y-108.853
X126.9Y-116.473
X145.9Y-70.853
X145.9Y-78.473
X145.9Y-89.853
X145.9Y-97.473
X145.9Y-108.853
X145.9Y-116.473
T3
X135.5Y-49.38
X135.5Y-51.92
X135.5Y-54.46
X135.5Y-57.0
X149.25Y-43.88
X149.25Y-46.42
X149.25Y-48.96
X149.25Y-51.5
X149.25Y-54.04
X149.25Y-56.58
X149.25Y-59.12
X152.5Y-75.0
X152.5Y-77.5
X152.5Y-80.0
X164.5Y-43.88
X164.5Y-46.42
X164.5Y-48.96
X164.5Y-51.5
X164.5Y-54.04
X164.5Y-56.58
X164.5Y-59.12
X167.0Y-75.0
X167.0Y-80.0
T4
X94.51Y-73.313
X94.55Y-92.313
X94.59Y-111.313
X100.86Y-70.773
X100.9Y-89.773
X100.94Y-108.773
X113.51Y-111.313
X113.59Y-73.313
X113.59Y-92.313
X119.86Y-108.773
X119.94Y-70.773
X119.94Y-89.773
X132.55Y-92.313
X132.59Y-73.313
X132.59Y-111.313
X138.9Y-89.773
X138.94Y-70.773
X138.94Y-108.773
T4
G00X159.35Y-71.9
M15
G01X160.65Y-71.9
M16
G05
G00X159.35Y-83.1
M15
G01X160.65Y-83.1
M16
G05
M30
