%TF.GenerationSoftware,KiCad,Pcbnew,10.0.3*%
%TF.CreationDate,2026-06-19T22:49:30+05:30*%
%TF.ProjectId,koshipad,6b6f7368-6970-4616-942e-6b696361645f,rev?*%
%TF.SameCoordinates,Original*%
%TF.FileFunction,Paste,Bot*%
%TF.FilePolarity,Positive*%
%FSLAX46Y46*%
G04 Gerber Fmt 4.6, Leading zero omitted, Abs format (unit mm)*
G04 Created by KiCad (PCBNEW 10.0.3) date 2026-06-19 22:49:30*
%MOMM*%
%LPD*%
G01*
G04 APERTURE LIST*
G04 Aperture macros list*
%AMRoundRect*
0 Rectangle with rounded corners*
0 $1 Rounding radius*
0 $2 $3 $4 $5 $6 $7 $8 $9 X,Y pos of 4 corners*
0 Add a 4 corners polygon primitive as box body*
4,1,4,$2,$3,$4,$5,$6,$7,$8,$9,$2,$3,0*
0 Add four circle primitives for the rounded corners*
1,1,$1+$1,$2,$3*
1,1,$1+$1,$4,$5*
1,1,$1+$1,$6,$7*
1,1,$1+$1,$8,$9*
0 Add four rect primitives between the rounded corners*
20,1,$1+$1,$2,$3,$4,$5,0*
20,1,$1+$1,$4,$5,$6,$7,0*
20,1,$1+$1,$6,$7,$8,$9,0*
20,1,$1+$1,$8,$9,$2,$3,0*%
G04 Aperture macros list end*
%ADD10RoundRect,0.082000X-0.718000X0.328000X-0.718000X-0.328000X0.718000X-0.328000X0.718000X0.328000X0*%
%ADD11RoundRect,0.082000X-0.328000X-0.718000X0.328000X-0.718000X0.328000X0.718000X-0.328000X0.718000X0*%
G04 APERTURE END LIST*
D10*
%TO.C,D8*%
X114900001Y-122647158D03*
X114900001Y-124147158D03*
X120100001Y-124147158D03*
X120100001Y-122647158D03*
%TD*%
%TO.C,D10*%
X133900001Y-122647158D03*
X133900001Y-124147158D03*
X139100001Y-124147158D03*
X139100001Y-122647158D03*
%TD*%
%TO.C,D5*%
X133800000Y-65647158D03*
X133800000Y-67147158D03*
X139000000Y-67147158D03*
X139000000Y-65647158D03*
%TD*%
%TO.C,D13*%
X95900001Y-103647158D03*
X95900001Y-105147158D03*
X101100001Y-105147158D03*
X101100001Y-103647158D03*
%TD*%
%TO.C,D6*%
X95900001Y-122647158D03*
X95900001Y-124147158D03*
X101100001Y-124147158D03*
X101100001Y-122647158D03*
%TD*%
%TO.C,D11*%
X95900001Y-84647158D03*
X95900001Y-86147158D03*
X101100001Y-86147158D03*
X101100001Y-84647158D03*
%TD*%
D11*
%TO.C,D2*%
X87647158Y-78599999D03*
X89147158Y-78599999D03*
X89147158Y-73399999D03*
X87647158Y-73399999D03*
%TD*%
D10*
%TO.C,D14*%
X114900001Y-103647158D03*
X114900001Y-105147158D03*
X120100001Y-105147158D03*
X120100001Y-103647158D03*
%TD*%
%TO.C,D12*%
X133900001Y-103647158D03*
X133900001Y-105147158D03*
X139100001Y-105147158D03*
X139100001Y-103647158D03*
%TD*%
%TO.C,D9*%
X114900001Y-84647158D03*
X114900001Y-86147158D03*
X120100001Y-86147158D03*
X120100001Y-84647158D03*
%TD*%
%TO.C,D7*%
X133650001Y-84397158D03*
X133650001Y-85897158D03*
X138850001Y-85897158D03*
X138850001Y-84397158D03*
%TD*%
%TO.C,D3*%
X114900001Y-65397158D03*
X114900001Y-66897158D03*
X120100001Y-66897158D03*
X120100001Y-65397158D03*
%TD*%
D11*
%TO.C,D4*%
X87647158Y-116700000D03*
X89147158Y-116700000D03*
X89147158Y-111500000D03*
X87647158Y-111500000D03*
%TD*%
D10*
%TO.C,D1*%
X95800000Y-65500000D03*
X95800000Y-67000000D03*
X101000000Y-67000000D03*
X101000000Y-65500000D03*
%TD*%
M02*
