%TF.GenerationSoftware,KiCad,Pcbnew,10.0.3*%
%TF.CreationDate,2026-06-19T22:49:30+05:30*%
%TF.ProjectId,koshipad,6b6f7368-6970-4616-942e-6b696361645f,rev?*%
%TF.SameCoordinates,Original*%
%TF.FileFunction,Copper,L2,Bot*%
%TF.FilePolarity,Positive*%
%FSLAX46Y46*%
G04 Gerber Fmt 4.6, Leading zero omitted, Abs format (unit mm)*
G04 Created by KiCad (PCBNEW 10.0.3) date 2026-06-19 22:49:30*
%MOMM*%
%LPD*%
G01*
G04 APERTURE LIST*
G04 Aperture macros list*
%AMRoundRect*
0 Rectangle with rounded corners*
0 $1 Rounding radius*
0 $2 $3 $4 $5 $6 $7 $8 $9 X,Y pos of 4 corners*
0 Add a 4 corners polygon primitive as box body*
4,1,4,$2,$3,$4,$5,$6,$7,$8,$9,$2,$3,0*
0 Add four circle primitives for the rounded corners*
1,1,$1+$1,$2,$3*
1,1,$1+$1,$4,$5*
1,1,$1+$1,$6,$7*
1,1,$1+$1,$8,$9*
0 Add four rect primitives between the rounded corners*
20,1,$1+$1,$2,$3,$4,$5,0*
20,1,$1+$1,$4,$5,$6,$7,0*
20,1,$1+$1,$6,$7,$8,$9,0*
20,1,$1+$1,$8,$9,$2,$3,0*%
G04 Aperture macros list end*
%TA.AperFunction,ComponentPad*%
%ADD10C,2.200000*%
%TD*%
%TA.AperFunction,SMDPad,CuDef*%
%ADD11RoundRect,0.082000X-0.718000X0.328000X-0.718000X-0.328000X0.718000X-0.328000X0.718000X0.328000X0*%
%TD*%
%TA.AperFunction,ComponentPad*%
%ADD12R,2.000000X2.000000*%
%TD*%
%TA.AperFunction,ComponentPad*%
%ADD13C,2.000000*%
%TD*%
%TA.AperFunction,ComponentPad*%
%ADD14R,3.200000X2.000000*%
%TD*%
%TA.AperFunction,ComponentPad*%
%ADD15R,1.700000X1.700000*%
%TD*%
%TA.AperFunction,ComponentPad*%
%ADD16C,1.700000*%
%TD*%
%TA.AperFunction,SMDPad,CuDef*%
%ADD17RoundRect,0.082000X-0.328000X-0.718000X0.328000X-0.718000X0.328000X0.718000X-0.328000X0.718000X0*%
%TD*%
%TA.AperFunction,ComponentPad*%
%ADD18RoundRect,0.250000X0.550000X-0.550000X0.550000X0.550000X-0.550000X0.550000X-0.550000X-0.550000X0*%
%TD*%
%TA.AperFunction,ComponentPad*%
%ADD19C,1.600000*%
%TD*%
%TA.AperFunction,ComponentPad*%
%ADD20R,3.500000X1.700000*%
%TD*%
%TA.AperFunction,ComponentPad*%
%ADD21O,3.600000X1.700000*%
%TD*%
%TA.AperFunction,ComponentPad*%
%ADD22O,3.700000X1.700000*%
%TD*%
%TA.AperFunction,ViaPad*%
%ADD23C,0.600000*%
%TD*%
%TA.AperFunction,Conductor*%
%ADD24C,0.200000*%
%TD*%
G04 APERTURE END LIST*
D10*
%TO.P,SW3,1,1_1*%
%TO.N,column 2*%
X138939999Y-70772842D03*
%TO.P,SW3,2,2_2*%
%TO.N,Net-(D25-A)*%
X132589999Y-73312842D03*
%TD*%
D11*
%TO.P,D8,1,VDD_1*%
%TO.N,+5V*%
X114900001Y-122647158D03*
%TO.P,D8,2,DOUT_2*%
%TO.N,Net-(D6-DIN)*%
X114900001Y-124147158D03*
%TO.P,D8,3,VSS_3*%
%TO.N,GND*%
X120100001Y-124147158D03*
%TO.P,D8,4,DIN_4*%
%TO.N,Net-(D10-DOUT)*%
X120100001Y-122647158D03*
%TD*%
D10*
%TO.P,SW9,1,1_1*%
%TO.N,column 2*%
X138939999Y-108772842D03*
%TO.P,SW9,2,2_2*%
%TO.N,Net-(D31-A)*%
X132589999Y-111312842D03*
%TD*%
%TO.P,SW2,1,1_1*%
%TO.N,column 1*%
X119939999Y-70772842D03*
%TO.P,SW2,2,2_2*%
%TO.N,Net-(D26-A)*%
X113589999Y-73312842D03*
%TD*%
D12*
%TO.P,SW10,A,A_A*%
%TO.N,ENC_A*%
X152500000Y-75000000D03*
D13*
%TO.P,SW10,B,B_B*%
%TO.N,ENC_B*%
X152500000Y-80000000D03*
%TO.P,SW10,C,C_C*%
%TO.N,GND*%
X152500000Y-77500000D03*
D14*
%TO.P,SW10,MP*%
%TO.N,N/C*%
X160000000Y-71900000D03*
X160000000Y-83100000D03*
D13*
%TO.P,SW10,S1,S1_S1*%
%TO.N,GND*%
X167000000Y-80000000D03*
%TO.P,SW10,S2,S2_S2*%
%TO.N,unconnected-(SW10-PadS2)*%
X167000000Y-75000000D03*
%TD*%
D11*
%TO.P,D10,1,VDD_1*%
%TO.N,+5V*%
X133900001Y-122647158D03*
%TO.P,D10,2,DOUT_2*%
%TO.N,Net-(D10-DOUT)*%
X133900001Y-124147158D03*
%TO.P,D10,3,VSS_3*%
%TO.N,GND*%
X139100001Y-124147158D03*
%TO.P,D10,4,DIN_4*%
%TO.N,Net-(D10-DIN)*%
X139100001Y-122647158D03*
%TD*%
%TO.P,D5,1,VDD_1*%
%TO.N,+5V*%
X133800000Y-65647158D03*
%TO.P,D5,2,DOUT_2*%
%TO.N,Net-(D5-DOUT)*%
X133800000Y-67147158D03*
%TO.P,D5,3,VSS_3*%
%TO.N,GND*%
X139000000Y-67147158D03*
%TO.P,D5,4,DIN_4*%
%TO.N,Net-(D3-DOUT)*%
X139000000Y-65647158D03*
%TD*%
D15*
%TO.P,J2,1,Pin_1_1*%
%TO.N,GND*%
X135500000Y-49380000D03*
D16*
%TO.P,J2,2,Pin_2_2*%
%TO.N,+5V*%
X135500000Y-51920000D03*
%TO.P,J2,3,Pin_3_3*%
%TO.N,SCL*%
X135500000Y-54460000D03*
%TO.P,J2,4,Pin_4_4*%
%TO.N,SDA*%
X135500000Y-57000000D03*
%TD*%
D10*
%TO.P,SW4,1,1_1*%
%TO.N,column 0*%
X100899999Y-89772842D03*
%TO.P,SW4,2,2_2*%
%TO.N,Net-(D30-A)*%
X94549999Y-92312842D03*
%TD*%
D11*
%TO.P,D13,1,VDD_1*%
%TO.N,+5V*%
X95900001Y-103647158D03*
%TO.P,D13,2,DOUT_2*%
%TO.N,Net-(D13-DOUT)*%
X95900001Y-105147158D03*
%TO.P,D13,3,VSS_3*%
%TO.N,GND*%
X101100001Y-105147158D03*
%TO.P,D13,4,DIN_4*%
%TO.N,Net-(D11-DOUT)*%
X101100001Y-103647158D03*
%TD*%
%TO.P,D6,1,VDD_1*%
%TO.N,+5V*%
X95900001Y-122647158D03*
%TO.P,D6,2,DOUT_2*%
%TO.N,Net-(D4-DIN)*%
X95900001Y-124147158D03*
%TO.P,D6,3,VSS_3*%
%TO.N,GND*%
X101100001Y-124147158D03*
%TO.P,D6,4,DIN_4*%
%TO.N,Net-(D6-DIN)*%
X101100001Y-122647158D03*
%TD*%
D10*
%TO.P,SW1,1,1_1*%
%TO.N,column 0*%
X100859999Y-70772842D03*
%TO.P,SW1,2,2_2*%
%TO.N,Net-(D27-A)*%
X94509999Y-73312842D03*
%TD*%
D11*
%TO.P,D11,1,VDD_1*%
%TO.N,+5V*%
X95900001Y-84647158D03*
%TO.P,D11,2,DOUT_2*%
%TO.N,Net-(D11-DOUT)*%
X95900001Y-86147158D03*
%TO.P,D11,3,VSS_3*%
%TO.N,GND*%
X101100001Y-86147158D03*
%TO.P,D11,4,DIN_4*%
%TO.N,Net-(D11-DIN)*%
X101100001Y-84647158D03*
%TD*%
D10*
%TO.P,SW6,1,1_1*%
%TO.N,column 2*%
X138899999Y-89772842D03*
%TO.P,SW6,2,2_2*%
%TO.N,Net-(D28-A)*%
X132549999Y-92312842D03*
%TD*%
%TO.P,SW8,1,1_1*%
%TO.N,column 1*%
X119859999Y-108772842D03*
%TO.P,SW8,2,2_2*%
%TO.N,Net-(D32-A)*%
X113509999Y-111312842D03*
%TD*%
D17*
%TO.P,D2,1,VDD_1*%
%TO.N,+5V*%
X87647158Y-78599999D03*
%TO.P,D2,2,DOUT_2*%
%TO.N,unconnected-(D2-DOUT-Pad2)*%
X89147158Y-78599999D03*
%TO.P,D2,3,VSS_3*%
%TO.N,GND*%
X89147158Y-73399999D03*
%TO.P,D2,4,DIN_4*%
%TO.N,Net-(D2-DIN)*%
X87647158Y-73399999D03*
%TD*%
D11*
%TO.P,D14,1,VDD_1*%
%TO.N,+5V*%
X114900001Y-103647158D03*
%TO.P,D14,2,DOUT_2*%
%TO.N,Net-(D12-DIN)*%
X114900001Y-105147158D03*
%TO.P,D14,3,VSS_3*%
%TO.N,GND*%
X120100001Y-105147158D03*
%TO.P,D14,4,DIN_4*%
%TO.N,Net-(D13-DOUT)*%
X120100001Y-103647158D03*
%TD*%
%TO.P,D12,1,VDD_1*%
%TO.N,+5V*%
X133900001Y-103647158D03*
%TO.P,D12,2,DOUT_2*%
%TO.N,Net-(D10-DIN)*%
X133900001Y-105147158D03*
%TO.P,D12,3,VSS_3*%
%TO.N,GND*%
X139100001Y-105147158D03*
%TO.P,D12,4,DIN_4*%
%TO.N,Net-(D12-DIN)*%
X139100001Y-103647158D03*
%TD*%
%TO.P,D9,1,VDD_1*%
%TO.N,+5V*%
X114900001Y-84647158D03*
%TO.P,D9,2,DOUT_2*%
%TO.N,Net-(D11-DIN)*%
X114900001Y-86147158D03*
%TO.P,D9,3,VSS_3*%
%TO.N,GND*%
X120100001Y-86147158D03*
%TO.P,D9,4,DIN_4*%
%TO.N,Net-(D7-DOUT)*%
X120100001Y-84647158D03*
%TD*%
%TO.P,D7,1,VDD_1*%
%TO.N,+5V*%
X133650001Y-84397158D03*
%TO.P,D7,2,DOUT_2*%
%TO.N,Net-(D7-DOUT)*%
X133650001Y-85897158D03*
%TO.P,D7,3,VSS_3*%
%TO.N,GND*%
X138850001Y-85897158D03*
%TO.P,D7,4,DIN_4*%
%TO.N,Net-(D5-DOUT)*%
X138850001Y-84397158D03*
%TD*%
D10*
%TO.P,SW7,1,1_1*%
%TO.N,column 0*%
X100939999Y-108772842D03*
%TO.P,SW7,2,2_2*%
%TO.N,Net-(D33-A)*%
X94589999Y-111312842D03*
%TD*%
%TO.P,SW5,1,1_1*%
%TO.N,column 1*%
X119939999Y-89772842D03*
%TO.P,SW5,2,2_2*%
%TO.N,Net-(D29-A)*%
X113589999Y-92312842D03*
%TD*%
D11*
%TO.P,D3,1,VDD_1*%
%TO.N,+5V*%
X114900001Y-65397158D03*
%TO.P,D3,2,DOUT_2*%
%TO.N,Net-(D3-DOUT)*%
X114900001Y-66897158D03*
%TO.P,D3,3,VSS_3*%
%TO.N,GND*%
X120100001Y-66897158D03*
%TO.P,D3,4,DIN_4*%
%TO.N,Net-(D1-DOUT)*%
X120100001Y-65397158D03*
%TD*%
D17*
%TO.P,D4,1,VDD_1*%
%TO.N,+5V*%
X87647158Y-116700000D03*
%TO.P,D4,2,DOUT_2*%
%TO.N,Net-(D2-DIN)*%
X89147158Y-116700000D03*
%TO.P,D4,3,VSS_3*%
%TO.N,GND*%
X89147158Y-111500000D03*
%TO.P,D4,4,DIN_4*%
%TO.N,Net-(D4-DIN)*%
X87647158Y-111500000D03*
%TD*%
D11*
%TO.P,D1,1,VDD_1*%
%TO.N,+5V*%
X95800000Y-65500000D03*
%TO.P,D1,2,DOUT_2*%
%TO.N,Net-(D1-DOUT)*%
X95800000Y-67000000D03*
%TO.P,D1,3,VSS_3*%
%TO.N,GND*%
X101000000Y-67000000D03*
%TO.P,D1,4,DIN_4*%
%TO.N,LED Data*%
X101000000Y-65500000D03*
%TD*%
D18*
%TO.P,D28,1,K_1*%
%TO.N,Row 1*%
X145899999Y-97472842D03*
D19*
%TO.P,D28,2,A_2*%
%TO.N,Net-(D28-A)*%
X145899999Y-89852842D03*
%TD*%
D18*
%TO.P,D31,1,K_1*%
%TO.N,Row 2*%
X145899999Y-116472842D03*
D19*
%TO.P,D31,2,A_2*%
%TO.N,Net-(D31-A)*%
X145899999Y-108852842D03*
%TD*%
D18*
%TO.P,D30,1,K_1*%
%TO.N,Row 1*%
X107899999Y-97472842D03*
D19*
%TO.P,D30,2,A_2*%
%TO.N,Net-(D30-A)*%
X107899999Y-89852842D03*
%TD*%
D18*
%TO.P,D33,1,K_1*%
%TO.N,Row 2*%
X107899999Y-116472842D03*
D19*
%TO.P,D33,2,A_2*%
%TO.N,Net-(D33-A)*%
X107899999Y-108852842D03*
%TD*%
D18*
%TO.P,D26,1,K_1*%
%TO.N,Row 0*%
X126899999Y-78472842D03*
D19*
%TO.P,D26,2,A_2*%
%TO.N,Net-(D26-A)*%
X126899999Y-70852842D03*
%TD*%
D18*
%TO.P,D32,1,K_1*%
%TO.N,Row 2*%
X126899999Y-116472842D03*
D19*
%TO.P,D32,2,A_2*%
%TO.N,Net-(D32-A)*%
X126899999Y-108852842D03*
%TD*%
D18*
%TO.P,D29,1,K_1*%
%TO.N,Row 1*%
X126899999Y-97472842D03*
D19*
%TO.P,D29,2,A_2*%
%TO.N,Net-(D29-A)*%
X126899999Y-89852842D03*
%TD*%
D18*
%TO.P,D27,1,K_1*%
%TO.N,Row 0*%
X107899999Y-78472842D03*
D19*
%TO.P,D27,2,A_2*%
%TO.N,Net-(D27-A)*%
X107899999Y-70852842D03*
%TD*%
D20*
%TO.P,U2,1,PA02_A0_D0_1*%
%TO.N,ENC_A*%
X165500000Y-43880000D03*
D21*
%TO.P,U2,2,PA4_A1_D1_2*%
%TO.N,ENC_B*%
X165500000Y-46420000D03*
%TO.P,U2,3,PA10_A2_D2_3*%
%TO.N,Row 0*%
X165500000Y-48960000D03*
%TO.P,U2,4,PA11_A3_D3_4*%
%TO.N,Row 1*%
X165500000Y-51500000D03*
%TO.P,U2,5,PA8_A4_D4_SDA_5*%
%TO.N,SDA*%
X165500000Y-54040000D03*
%TO.P,U2,6,PA9_A5_D5_SCL_6*%
%TO.N,SCL*%
X165500000Y-56580000D03*
%TO.P,U2,7,PB08_A6_D6_TX_7*%
%TO.N,Row 2*%
X165500000Y-59120000D03*
%TO.P,U2,8,PB09_A7_D7_RX_8*%
%TO.N,LED Data*%
X148250000Y-59120000D03*
%TO.P,U2,9,PA7_A8_D8_SCK_9*%
%TO.N,column 2*%
X148250000Y-56580000D03*
%TO.P,U2,10,PA5_A9_D9_MISO_10*%
%TO.N,column 1*%
X148250000Y-54040000D03*
D22*
%TO.P,U2,11,PA6_A10_D10_MOSI_11*%
%TO.N,column 0*%
X148250000Y-51500000D03*
%TO.P,U2,12,3V3_12*%
%TO.N,+3.3V*%
X148250000Y-48960000D03*
%TO.P,U2,13,GND_13*%
%TO.N,GND*%
X148250000Y-46420000D03*
%TO.P,U2,14,5V_14*%
%TO.N,+5V*%
X148250000Y-43880000D03*
%TD*%
D18*
%TO.P,D25,1,K_1*%
%TO.N,Row 0*%
X145899999Y-78472842D03*
D19*
%TO.P,D25,2,A_2*%
%TO.N,Net-(D25-A)*%
X145899999Y-70852842D03*
%TD*%
D23*
%TO.N,+5V*%
X85000000Y-103750000D03*
X87500000Y-118250000D03*
X115000000Y-64250000D03*
X115000000Y-62500000D03*
X92250000Y-84750000D03*
X133750000Y-64250000D03*
X95750000Y-120750000D03*
X97250000Y-120250000D03*
X114750000Y-101850000D03*
X131000000Y-65750000D03*
X134000000Y-101850000D03*
X118000000Y-62750000D03*
X89000000Y-81500000D03*
X129750000Y-77000000D03*
X118750000Y-100000000D03*
X121504974Y-99964996D03*
X132350000Y-65750000D03*
X93000000Y-101250000D03*
X91000000Y-103750000D03*
X95750000Y-81500000D03*
X129750000Y-63250000D03*
X109500000Y-84750000D03*
X134750000Y-60000000D03*
X129750000Y-81000000D03*
%TO.N,GND*%
X111250000Y-108000000D03*
X134414376Y-68500000D03*
X121500000Y-106500000D03*
X111250000Y-106500000D03*
X94250000Y-87500000D03*
X160750000Y-64500000D03*
X96500001Y-106628578D03*
X96651151Y-87711769D03*
X160750000Y-68500000D03*
X94500000Y-106500000D03*
X134437595Y-106586014D03*
X111250000Y-68500000D03*
X121500000Y-108250000D03*
X115749009Y-68502672D03*
X97750000Y-68550000D03*
X130250000Y-68500000D03*
X93750000Y-68500000D03*
%TO.N,SCL*%
X160500000Y-56500000D03*
X163100000Y-56500000D03*
%TO.N,SDA*%
X163100000Y-54000000D03*
X159500000Y-54000000D03*
%TO.N,Net-(D4-DIN)*%
X92000000Y-109000000D03*
X87750000Y-109000000D03*
%TO.N,Net-(D2-DIN)*%
X84300000Y-73750000D03*
X86250000Y-73500000D03*
%TO.N,LED Data*%
X103750000Y-61600000D03*
X103750000Y-65500000D03*
%TD*%
%TO.N,Net-(D25-A)*%
D24*
X143439999Y-73312842D02*
X145899999Y-70852842D01*
X132589999Y-73312842D02*
X143439999Y-73312842D01*
%TO.N,+5V*%
X114900001Y-84647158D02*
X109602842Y-84647158D01*
X87647158Y-80147158D02*
X89000000Y-81500000D01*
X133900001Y-120750000D02*
X133900001Y-122647158D01*
X115000000Y-120250000D02*
X133400001Y-120250000D01*
X133697158Y-65750000D02*
X133800000Y-65647158D01*
X91102842Y-103647158D02*
X91000000Y-103750000D01*
X134000000Y-101850000D02*
X134000000Y-103547159D01*
X133400001Y-120250000D02*
X133900001Y-120750000D01*
X95750000Y-122497157D02*
X95900001Y-122647158D01*
X115000000Y-64250000D02*
X115000000Y-65297159D01*
X95800000Y-65500000D02*
X95800000Y-63450000D01*
X132700000Y-71222942D02*
X129750000Y-74172942D01*
X131000000Y-63684315D02*
X131000000Y-65750000D01*
X85500000Y-67000000D02*
X85500000Y-78500000D01*
X85500000Y-78500000D02*
X85599999Y-78599999D01*
X114750000Y-101850000D02*
X114750000Y-103497157D01*
X87000000Y-65500000D02*
X85500000Y-67000000D01*
X118750000Y-100000000D02*
X121469970Y-100000000D01*
X95750000Y-120750000D02*
X95750000Y-122497157D01*
X96750000Y-62500000D02*
X115000000Y-62500000D01*
X95900001Y-81650001D02*
X95900001Y-84647158D01*
X92352842Y-84647158D02*
X92250000Y-84750000D01*
X134750000Y-60000000D02*
X134684315Y-60000000D01*
X133750000Y-65597158D02*
X133800000Y-65647158D01*
X115000000Y-120250000D02*
X97250000Y-120250000D01*
X125897158Y-84397158D02*
X122250000Y-80750000D01*
X87647158Y-78599999D02*
X87647158Y-80147158D01*
X95900001Y-84647158D02*
X92352842Y-84647158D01*
X95400001Y-101250000D02*
X95900001Y-101750000D01*
X93000000Y-101250000D02*
X95400001Y-101250000D01*
X95900001Y-101750000D02*
X95900001Y-103647158D01*
X114900001Y-122647158D02*
X114900001Y-120349999D01*
X95750000Y-81500000D02*
X95900001Y-81650001D01*
X134000000Y-103547159D02*
X133900001Y-103647158D01*
X121469970Y-100000000D02*
X121504974Y-99964996D01*
X122250000Y-80750000D02*
X115550002Y-80750000D01*
X87647158Y-118102842D02*
X87500000Y-118250000D01*
X114750000Y-103497157D02*
X114900001Y-103647158D01*
X114900001Y-120349999D02*
X115000000Y-120250000D01*
X95800000Y-63450000D02*
X96000000Y-63250000D01*
X87647158Y-116700000D02*
X87647158Y-118102842D01*
X85950000Y-116700000D02*
X85000000Y-115750000D01*
X132700000Y-66658658D02*
X132700000Y-71222942D01*
X96000000Y-63250000D02*
X96750000Y-62500000D01*
X95900001Y-103647158D02*
X91102842Y-103647158D01*
X129750000Y-81000000D02*
X133500000Y-81000000D01*
X133800000Y-65647158D02*
X133711500Y-65647158D01*
X87647158Y-116700000D02*
X85950000Y-116700000D01*
X114900001Y-81400001D02*
X114900001Y-84647158D01*
X85000000Y-115750000D02*
X85000000Y-103750000D01*
X96000000Y-63250000D02*
X96150000Y-63100000D01*
X129750000Y-74172942D02*
X129750000Y-77000000D01*
X95800000Y-65500000D02*
X87000000Y-65500000D01*
X133750000Y-64250000D02*
X133750000Y-65597158D01*
X118000000Y-62750000D02*
X129250000Y-62750000D01*
X133650001Y-81150001D02*
X133650001Y-84397158D01*
X133500000Y-81000000D02*
X133650001Y-81150001D01*
X114900001Y-81400001D02*
X115550002Y-80750000D01*
X109602842Y-84647158D02*
X109500000Y-84750000D01*
X129250000Y-62750000D02*
X129750000Y-63250000D01*
X133711500Y-65647158D02*
X132700000Y-66658658D01*
X132350000Y-65750000D02*
X133697158Y-65750000D01*
X133650001Y-84397158D02*
X125897158Y-84397158D01*
X134684315Y-60000000D02*
X131000000Y-63684315D01*
X85599999Y-78599999D02*
X87647158Y-78599999D01*
%TO.N,Net-(D6-DIN)*%
X101900001Y-122647158D02*
X101100001Y-122647158D01*
X103400000Y-124147158D02*
X101900001Y-122647158D01*
X114900001Y-124147158D02*
X103400000Y-124147158D01*
%TO.N,GND*%
X139000000Y-68750000D02*
X134664376Y-68750000D01*
X120000000Y-87686510D02*
X138813490Y-87686510D01*
X160750000Y-68500000D02*
X160750000Y-64500000D01*
X101000000Y-67000000D02*
X101000000Y-68500000D01*
X138500000Y-107000000D02*
X139000000Y-106500000D01*
X102313490Y-87686510D02*
X120000000Y-87686510D01*
X120000000Y-106500000D02*
X120000000Y-105000000D01*
X135500000Y-49380000D02*
X140880000Y-49380000D01*
X139000000Y-126000000D02*
X139000000Y-124000000D01*
X111500000Y-108250000D02*
X117750000Y-108250000D01*
X134664376Y-68750000D02*
X134414376Y-68500000D01*
X141000000Y-67000000D02*
X139000000Y-67000000D01*
X139000000Y-67000000D02*
X139000000Y-68750000D01*
X91000000Y-68500000D02*
X93750000Y-68500000D01*
X89547157Y-73500000D02*
X89547157Y-69952843D01*
X134437595Y-106586014D02*
X134836014Y-106586014D01*
X121500000Y-110250000D02*
X121500000Y-108250000D01*
X139000000Y-106500000D02*
X139000000Y-105000000D01*
X120000000Y-126000000D02*
X123500000Y-126000000D01*
X96500001Y-106628578D02*
X96621423Y-106750000D01*
X89250000Y-108250000D02*
X89250000Y-87500000D01*
X134836014Y-106586014D02*
X135250000Y-107000000D01*
X91500000Y-121000000D02*
X91500000Y-126000000D01*
X96651151Y-87711769D02*
X100788231Y-87711769D01*
X115749009Y-68502672D02*
X130247328Y-68502672D01*
X120000000Y-126000000D02*
X120000000Y-124000000D01*
X101000000Y-106500000D02*
X111250000Y-106500000D01*
X100826462Y-87750000D02*
X101000000Y-87750000D01*
X120000000Y-86000000D02*
X120000000Y-87686510D01*
X117750000Y-110250000D02*
X121500000Y-110250000D01*
X100788231Y-87711769D02*
X100826462Y-87750000D01*
X89250000Y-111500000D02*
X89250000Y-108250000D01*
X89250000Y-108250000D02*
X91000000Y-106500000D01*
X130247328Y-68502672D02*
X130250000Y-68500000D01*
X101000000Y-126000000D02*
X120000000Y-126000000D01*
X121500000Y-106500000D02*
X120000000Y-106500000D01*
X135250000Y-107000000D02*
X138500000Y-107000000D01*
X139000000Y-87500000D02*
X139000000Y-86000000D01*
X117750000Y-108250000D02*
X117750000Y-110250000D01*
X141000000Y-49500000D02*
X141000000Y-67000000D01*
X120000000Y-68250000D02*
X120000000Y-68500000D01*
X101000000Y-87750000D02*
X102250000Y-87750000D01*
X91500000Y-73500000D02*
X91500000Y-87500000D01*
X102250000Y-87750000D02*
X102313490Y-87686510D01*
X97800000Y-68500000D02*
X111250000Y-68500000D01*
X91500000Y-111500000D02*
X91500000Y-121000000D01*
X97750000Y-68550000D02*
X97800000Y-68500000D01*
X96621423Y-106750000D02*
X100750000Y-106750000D01*
X101000000Y-106500000D02*
X101000000Y-105000000D01*
X101000000Y-124000000D02*
X101000000Y-126000000D01*
X140880000Y-49380000D02*
X141000000Y-49500000D01*
X91000000Y-106500000D02*
X94500000Y-106500000D01*
X89250000Y-87500000D02*
X94250000Y-87500000D01*
X101000000Y-86000000D02*
X101000000Y-87750000D01*
X91500000Y-126000000D02*
X101000000Y-126000000D01*
X91476421Y-111500000D02*
X89147158Y-111500000D01*
X89547157Y-69952843D02*
X91000000Y-68500000D01*
X120000000Y-67000000D02*
X120000000Y-68250000D01*
X138813490Y-87686510D02*
X139000000Y-87500000D01*
X123500000Y-126000000D02*
X139000000Y-126000000D01*
X89547157Y-73500000D02*
X91500000Y-73500000D01*
X111250000Y-108000000D02*
X111500000Y-108250000D01*
X100750000Y-106750000D02*
X101000000Y-106500000D01*
%TO.N,Net-(D10-DOUT)*%
X133897158Y-124150001D02*
X123150001Y-124150001D01*
X121647158Y-122647158D02*
X120100001Y-122647158D01*
X123150001Y-124150001D02*
X121647158Y-122647158D01*
X133900001Y-124147158D02*
X133897158Y-124150001D01*
%TO.N,Net-(D31-A)*%
X143439999Y-111312842D02*
X145899999Y-108852842D01*
X132589999Y-111312842D02*
X143439999Y-111312842D01*
%TO.N,Net-(D26-A)*%
X124439999Y-73312842D02*
X126899999Y-70852842D01*
X113589999Y-73312842D02*
X124439999Y-73312842D01*
%TO.N,Net-(D10-DIN)*%
X141750000Y-110250000D02*
X141750000Y-106500000D01*
X137250000Y-107500000D02*
X137250000Y-110250000D01*
X133250000Y-107500000D02*
X137250000Y-107500000D01*
X148000000Y-106500000D02*
X148000000Y-121500000D01*
X141750000Y-106500000D02*
X148000000Y-106500000D01*
X137250000Y-110250000D02*
X141750000Y-110250000D01*
X148000000Y-121500000D02*
X146852842Y-122647158D01*
X146852842Y-122647158D02*
X139100001Y-122647158D01*
X133900001Y-105147158D02*
X133250000Y-105797159D01*
X133250000Y-105797159D02*
X133250000Y-107500000D01*
%TO.N,Net-(D5-DOUT)*%
X141250000Y-84500000D02*
X141147158Y-84397158D01*
X141250000Y-88250000D02*
X141250000Y-84500000D01*
X133800000Y-67147158D02*
X133800000Y-69200000D01*
X133800000Y-69200000D02*
X133750000Y-69250000D01*
X147750000Y-69250000D02*
X147750000Y-88250000D01*
X147750000Y-88250000D02*
X141250000Y-88250000D01*
X141147158Y-84397158D02*
X138850001Y-84397158D01*
X133750000Y-69250000D02*
X147750000Y-69250000D01*
%TO.N,Net-(D3-DOUT)*%
X139000000Y-63500000D02*
X139000000Y-65647158D01*
X115000000Y-69250000D02*
X131750000Y-69250000D01*
X131750000Y-63500000D02*
X139000000Y-63500000D01*
X114897158Y-66900001D02*
X114897158Y-69147158D01*
X114900001Y-66897158D02*
X114897158Y-66900001D01*
X114897158Y-69147158D02*
X115000000Y-69250000D01*
X131750000Y-69250000D02*
X131750000Y-63500000D01*
%TO.N,SCL*%
X160500000Y-56500000D02*
X163100000Y-56500000D01*
%TO.N,SDA*%
X159500000Y-54000000D02*
X163100000Y-54000000D01*
%TO.N,Net-(D30-A)*%
X105439999Y-92312842D02*
X107899999Y-89852842D01*
X94549999Y-92312842D02*
X105439999Y-92312842D01*
%TO.N,Net-(D13-DOUT)*%
X120000000Y-101750000D02*
X120100001Y-101850001D01*
X112500000Y-101250000D02*
X120000000Y-101250000D01*
X112500000Y-107250000D02*
X112500000Y-101250000D01*
X95900001Y-105147158D02*
X95900001Y-107400001D01*
X95900001Y-107400001D02*
X96000000Y-107500000D01*
X96000000Y-107500000D02*
X96250000Y-107250000D01*
X120000000Y-101250000D02*
X120000000Y-101750000D01*
X96250000Y-107250000D02*
X112500000Y-107250000D01*
X120100001Y-101850001D02*
X120100001Y-103647158D01*
%TO.N,Net-(D11-DOUT)*%
X101100001Y-100000000D02*
X101100001Y-103647158D01*
X95900001Y-88150001D02*
X96000000Y-88250000D01*
X96000000Y-88250000D02*
X90750000Y-88250000D01*
X90750000Y-88250000D02*
X90750000Y-99250000D01*
X95900001Y-86147158D02*
X95900001Y-88150001D01*
X100350001Y-99250000D02*
X101100001Y-100000000D01*
X90750000Y-99250000D02*
X100350001Y-99250000D01*
%TO.N,Net-(D4-DIN)*%
X92000000Y-122750000D02*
X92000000Y-109000000D01*
X95900001Y-124147158D02*
X93397158Y-124147158D01*
X87750000Y-111397158D02*
X87647158Y-111500000D01*
X93397158Y-124147158D02*
X92000000Y-122750000D01*
X87750000Y-109000000D02*
X87750000Y-111397158D01*
%TO.N,Net-(D27-A)*%
X105439999Y-73312842D02*
X107899999Y-70852842D01*
X94509999Y-73312842D02*
X105439999Y-73312842D01*
%TO.N,Net-(D11-DIN)*%
X104647158Y-86147158D02*
X103250000Y-84750000D01*
X114900001Y-86147158D02*
X104647158Y-86147158D01*
X103147158Y-84647158D02*
X101100001Y-84647158D01*
X103250000Y-84750000D02*
X103147158Y-84647158D01*
X114900001Y-86147158D02*
X114900001Y-86148579D01*
%TO.N,Net-(D28-A)*%
X143439999Y-92312842D02*
X145899999Y-89852842D01*
X132549999Y-92312842D02*
X143439999Y-92312842D01*
%TO.N,Net-(D32-A)*%
X124439999Y-111312842D02*
X126899999Y-108852842D01*
X113509999Y-111312842D02*
X124439999Y-111312842D01*
%TO.N,Net-(D2-DIN)*%
X89147158Y-116700000D02*
X89147158Y-118602842D01*
X85500000Y-119000000D02*
X84100000Y-117600000D01*
X88750000Y-119000000D02*
X85500000Y-119000000D01*
X89147158Y-118602842D02*
X88750000Y-119000000D01*
X87547157Y-73500000D02*
X87647158Y-73399999D01*
X86250000Y-73500000D02*
X87547157Y-73500000D01*
X84100000Y-73950000D02*
X84300000Y-73750000D01*
X84100000Y-117600000D02*
X84100000Y-73950000D01*
%TO.N,Net-(D12-DIN)*%
X139000000Y-101500000D02*
X139100001Y-101600001D01*
X131750000Y-101250000D02*
X139000000Y-101250000D01*
X139100001Y-101600001D02*
X139100001Y-103647158D01*
X131750000Y-107250000D02*
X131750000Y-101250000D01*
X139000000Y-101250000D02*
X139000000Y-101500000D01*
X115000000Y-107250000D02*
X131750000Y-107250000D01*
X114900001Y-105147158D02*
X114900001Y-107150001D01*
X114900001Y-107150001D02*
X115000000Y-107250000D01*
%TO.N,Net-(D7-DOUT)*%
X122147158Y-84647158D02*
X120100001Y-84647158D01*
X123397158Y-85897158D02*
X122147158Y-84647158D01*
X133650001Y-85897158D02*
X123397158Y-85897158D01*
%TO.N,Net-(D33-A)*%
X94589999Y-111312842D02*
X105439999Y-111312842D01*
X105439999Y-111312842D02*
X107899999Y-108852842D01*
%TO.N,Net-(D29-A)*%
X124439999Y-92312842D02*
X126899999Y-89852842D01*
X113589999Y-92312842D02*
X124439999Y-92312842D01*
%TO.N,Net-(D1-DOUT)*%
X120000000Y-63500000D02*
X112500000Y-63500000D01*
X120100001Y-63600001D02*
X120000000Y-63500000D01*
X112500000Y-69250000D02*
X112500000Y-63500000D01*
X96000000Y-69250000D02*
X112500000Y-69250000D01*
X95800000Y-67000000D02*
X95800000Y-69050000D01*
X120100001Y-65397158D02*
X120100001Y-63600001D01*
X95800000Y-69050000D02*
X96000000Y-69250000D01*
%TO.N,LED Data*%
X101000000Y-65500000D02*
X103750000Y-65500000D01*
X144500000Y-55406346D02*
X148213654Y-59120000D01*
X148213654Y-59120000D02*
X149250000Y-59120000D01*
X144500000Y-43000000D02*
X144500000Y-55406346D01*
X131000000Y-43000000D02*
X144500000Y-43000000D01*
X103750000Y-61600000D02*
X103750000Y-59250000D01*
X103750000Y-59250000D02*
X131000000Y-59250000D01*
X131000000Y-59250000D02*
X131000000Y-43000000D01*
%TO.N,Row 1*%
X107899999Y-97472842D02*
X145899999Y-97472842D01*
%TO.N,Row 2*%
X107899999Y-116472842D02*
X145899999Y-116472842D01*
%TO.N,Row 0*%
X107899999Y-78472842D02*
X145899999Y-78472842D01*
%TD*%
M02*
