%TF.GenerationSoftware,KiCad,Pcbnew,10.0.3*%
%TF.CreationDate,2026-06-19T22:49:30+05:30*%
%TF.ProjectId,koshipad,6b6f7368-6970-4616-942e-6b696361645f,rev?*%
%TF.SameCoordinates,Original*%
%TF.FileFunction,Legend,Top*%
%TF.FilePolarity,Positive*%
%FSLAX46Y46*%
G04 Gerber Fmt 4.6, Leading zero omitted, Abs format (unit mm)*
G04 Created by KiCad (PCBNEW 10.0.3) date 2026-06-19 22:49:30*
%MOMM*%
%LPD*%
G01*
G04 APERTURE LIST*
G04 Aperture macros list*
%AMRoundRect*
0 Rectangle with rounded corners*
0 $1 Rounding radius*
0 $2 $3 $4 $5 $6 $7 $8 $9 X,Y pos of 4 corners*
0 Add a 4 corners polygon primitive as box body*
4,1,4,$2,$3,$4,$5,$6,$7,$8,$9,$2,$3,0*
0 Add four circle primitives for the rounded corners*
1,1,$1+$1,$2,$3*
1,1,$1+$1,$4,$5*
1,1,$1+$1,$6,$7*
1,1,$1+$1,$8,$9*
0 Add four rect primitives between the rounded corners*
20,1,$1+$1,$2,$3,$4,$5,0*
20,1,$1+$1,$4,$5,$6,$7,0*
20,1,$1+$1,$6,$7,$8,$9,0*
20,1,$1+$1,$8,$9,$2,$3,0*%
G04 Aperture macros list end*
%ADD10C,0.000000*%
%ADD11C,0.150000*%
%ADD12C,0.200000*%
%ADD13C,0.120000*%
%ADD14C,1.700000*%
%ADD15C,4.000000*%
%ADD16C,2.200000*%
%ADD17R,2.000000X2.000000*%
%ADD18C,2.000000*%
%ADD19R,3.200000X2.000000*%
%ADD20R,1.700000X1.700000*%
%ADD21RoundRect,0.250000X0.550000X-0.550000X0.550000X0.550000X-0.550000X0.550000X-0.550000X-0.550000X0*%
%ADD22C,1.600000*%
%ADD23R,3.500000X1.700000*%
%ADD24O,3.600000X1.700000*%
%ADD25O,3.700000X1.700000*%
G04 APERTURE END LIST*
D10*
G36*
X160584163Y-93300783D02*
G01*
X160625082Y-93546304D01*
X160420484Y-93628144D01*
X160379561Y-93014345D01*
X160584163Y-93300783D01*
G37*
G36*
X163284882Y-102098578D02*
G01*
X163039361Y-102098578D01*
X163039361Y-102057657D01*
X163284882Y-102057657D01*
X163284882Y-102098578D01*
G37*
G36*
X163816841Y-102057657D02*
G01*
X163571322Y-102057657D01*
X163571322Y-102016736D01*
X163816841Y-102016736D01*
X163816841Y-102057657D01*
G37*
G36*
X164226040Y-102221338D02*
G01*
X163980520Y-102221338D01*
X163980520Y-102180419D01*
X164226040Y-102180419D01*
X164226040Y-102221338D01*
G37*
G36*
X164266961Y-102016736D02*
G01*
X164062361Y-102016736D01*
X164062361Y-101975821D01*
X164266961Y-101975821D01*
X164266961Y-102016736D01*
G37*
G36*
X174865233Y-106558858D02*
G01*
X174660636Y-106599776D01*
X174660636Y-106395177D01*
X174865233Y-106395177D01*
X174865233Y-106558858D01*
G37*
G36*
X168645398Y-100461779D02*
G01*
X168563560Y-100543621D01*
X168277119Y-100543621D01*
X168236199Y-100216258D01*
X168604480Y-100175340D01*
X168645398Y-100461779D01*
G37*
G36*
X174046833Y-106968060D02*
G01*
X173719475Y-107049900D01*
X173678558Y-106886217D01*
X173801317Y-106804378D01*
X174046833Y-106804378D01*
X174046833Y-106968060D01*
G37*
G36*
X174496957Y-106599776D02*
G01*
X174496957Y-106722537D01*
X174333274Y-106845297D01*
X174169596Y-106804378D01*
X174374197Y-106558858D01*
X174496957Y-106599776D01*
G37*
G36*
X163939601Y-102262260D02*
G01*
X163203042Y-102303179D01*
X163203042Y-102262260D01*
X163448562Y-102221338D01*
X163571322Y-102262260D01*
X163939601Y-102221338D01*
X163939601Y-102262260D01*
G37*
G36*
X168031597Y-100420861D02*
G01*
X167990679Y-100707301D01*
X167704238Y-100748221D01*
X167581480Y-100584541D01*
X167663319Y-100379940D01*
X167990679Y-100379940D01*
X168031597Y-100420861D01*
G37*
G36*
X169627478Y-102507779D02*
G01*
X169627478Y-102712381D01*
X169545638Y-102794219D01*
X169259198Y-102794219D01*
X169218279Y-102753299D01*
X169218279Y-102466858D01*
X169545638Y-102425939D01*
X169627478Y-102507779D01*
G37*
G36*
X162834761Y-101893958D02*
G01*
X162834761Y-101853039D01*
X162933542Y-101853205D01*
X162936940Y-101853205D01*
X162937797Y-101853205D01*
X163148785Y-101853132D01*
X163260313Y-101852120D01*
X163374538Y-101849928D01*
X162834761Y-101893958D01*
G37*
G36*
X168236199Y-102507779D02*
G01*
X168195281Y-102712381D01*
X168154361Y-102753299D01*
X167908840Y-102794219D01*
X167786080Y-102712381D01*
X167786080Y-102466858D01*
X167908840Y-102385018D01*
X168154361Y-102385018D01*
X168236199Y-102507779D01*
G37*
G36*
X168972760Y-102548700D02*
G01*
X168931838Y-102712381D01*
X168850000Y-102794219D01*
X168604480Y-102794219D01*
X168481717Y-102712381D01*
X168481717Y-102507779D01*
X168604480Y-102385018D01*
X168809079Y-102385018D01*
X168972760Y-102548700D01*
G37*
G36*
X169259198Y-100175340D02*
G01*
X169259198Y-100379940D01*
X169177358Y-100461779D01*
X168931838Y-100461779D01*
X168809079Y-100339019D01*
X168850000Y-100175340D01*
X169013677Y-100052580D01*
X169095518Y-100052580D01*
X169259198Y-100175340D01*
G37*
G36*
X163952687Y-101808194D02*
G01*
X163872030Y-101818336D01*
X163790139Y-101826851D01*
X163707365Y-101833876D01*
X163624061Y-101839558D01*
X163540588Y-101844033D01*
X163457295Y-101847442D01*
X163374538Y-101849928D01*
X164031753Y-101796280D01*
X163952687Y-101808194D01*
G37*
G36*
X160993363Y-94201022D02*
G01*
X160993363Y-94364702D01*
X160666003Y-94528384D01*
X160644119Y-94485713D01*
X160623689Y-94443348D01*
X160604808Y-94401196D01*
X160587569Y-94359176D01*
X160572068Y-94317193D01*
X160558400Y-94275162D01*
X160546658Y-94232992D01*
X160536936Y-94190597D01*
X160529328Y-94147890D01*
X160523933Y-94104781D01*
X160520840Y-94061181D01*
X160520144Y-94017003D01*
X160521945Y-93972159D01*
X160526329Y-93926560D01*
X160533399Y-93880117D01*
X160543242Y-93832743D01*
X160747843Y-93791825D01*
X160993363Y-94201022D01*
G37*
G36*
X158251721Y-92850664D02*
G01*
X158497245Y-93750902D01*
X158006203Y-93914583D01*
X157924365Y-93996423D01*
X157719765Y-93996423D01*
X157636424Y-93866254D01*
X157598454Y-93803014D01*
X157563016Y-93740560D01*
X157530150Y-93678569D01*
X157499904Y-93616703D01*
X157472323Y-93554635D01*
X157447453Y-93492037D01*
X157425335Y-93428580D01*
X157406023Y-93363926D01*
X157389550Y-93297753D01*
X157375976Y-93229731D01*
X157365333Y-93159520D01*
X157357674Y-93086799D01*
X157353042Y-93011238D01*
X157351484Y-92932504D01*
X158128965Y-92768822D01*
X158251721Y-92850664D01*
G37*
G36*
X158251721Y-91336623D02*
G01*
X158333565Y-91418464D01*
X158579086Y-91459385D01*
X158497245Y-91827666D01*
X158538163Y-91950424D01*
X158456323Y-92482382D01*
X158333565Y-92605143D01*
X157228725Y-92400543D01*
X157187805Y-92359621D01*
X157189065Y-92243018D01*
X157193839Y-92120630D01*
X157198078Y-92058125D01*
X157203842Y-91995204D01*
X157211340Y-91932206D01*
X157220792Y-91869478D01*
X157232408Y-91807362D01*
X157246404Y-91746200D01*
X157262997Y-91686336D01*
X157282401Y-91628112D01*
X157304830Y-91571868D01*
X157330496Y-91517951D01*
X157359615Y-91466702D01*
X157392404Y-91418464D01*
X157392404Y-91254786D01*
X158251721Y-91336623D01*
G37*
G36*
X168113437Y-95715042D02*
G01*
X168275360Y-97065401D01*
X168236199Y-98784039D01*
X168195281Y-98865882D01*
X168113437Y-98865882D01*
X168095266Y-98789408D01*
X168079987Y-98712218D01*
X168067417Y-98634352D01*
X168057357Y-98555865D01*
X168049615Y-98476796D01*
X168043999Y-98397196D01*
X168040315Y-98317117D01*
X168038371Y-98236597D01*
X168038926Y-98074443D01*
X168044122Y-97911107D01*
X168062248Y-97582424D01*
X168074951Y-97365799D01*
X168084134Y-97149961D01*
X168086270Y-96935770D01*
X168083596Y-96829561D01*
X168077839Y-96724090D01*
X168068556Y-96619456D01*
X168055312Y-96515775D01*
X168037661Y-96413147D01*
X168015165Y-96311688D01*
X167987385Y-96211498D01*
X167953876Y-96112691D01*
X167914201Y-96015369D01*
X167867920Y-95919642D01*
X167745160Y-95510441D01*
X167786080Y-95346763D01*
X167908840Y-95346763D01*
X168113437Y-95715042D01*
G37*
G36*
X164544496Y-94774988D02*
G01*
X164616888Y-94777016D01*
X164686380Y-94780597D01*
X164753301Y-94786162D01*
X164817976Y-94794147D01*
X164880727Y-94804970D01*
X164941884Y-94819069D01*
X165001770Y-94836870D01*
X165060712Y-94858806D01*
X165119031Y-94885298D01*
X165177056Y-94916787D01*
X165235111Y-94953695D01*
X165293525Y-94996454D01*
X165352620Y-95045493D01*
X165412721Y-95101243D01*
X165412721Y-95960562D01*
X165289960Y-96124241D01*
X165003520Y-96287921D01*
X164348801Y-96287921D01*
X164306883Y-96254974D01*
X164267572Y-96222188D01*
X164230809Y-96189517D01*
X164196538Y-96156921D01*
X164164706Y-96124356D01*
X164135252Y-96091784D01*
X164108125Y-96059156D01*
X164083266Y-96026431D01*
X164060620Y-95993568D01*
X164040130Y-95960524D01*
X164021741Y-95927254D01*
X164005395Y-95893720D01*
X163991038Y-95859872D01*
X163978613Y-95825676D01*
X163968065Y-95791082D01*
X163959335Y-95756052D01*
X163952371Y-95720543D01*
X163947113Y-95684511D01*
X163943509Y-95647911D01*
X163941499Y-95610705D01*
X163941030Y-95572846D01*
X163942041Y-95534297D01*
X163948298Y-95454942D01*
X163959815Y-95372301D01*
X163976141Y-95286031D01*
X163996835Y-95195793D01*
X164021442Y-95101243D01*
X164389721Y-94773882D01*
X164544496Y-94774988D01*
G37*
G36*
X159006814Y-95743901D02*
G01*
X159099907Y-95904126D01*
X159187192Y-96071382D01*
X159270140Y-96244104D01*
X159587877Y-96958141D01*
X159671147Y-97134573D01*
X159758883Y-97307036D01*
X159852560Y-97473946D01*
X159953640Y-97633739D01*
X160063597Y-97784835D01*
X160183900Y-97925666D01*
X160248388Y-97991741D01*
X160316010Y-98054660D01*
X160386955Y-98114226D01*
X160461403Y-98170241D01*
X160502323Y-98293001D01*
X160297722Y-98333920D01*
X160256806Y-98211162D01*
X160228176Y-98196687D01*
X160200449Y-98181015D01*
X160173588Y-98164202D01*
X160147560Y-98146307D01*
X160122318Y-98127381D01*
X160097833Y-98107483D01*
X160074063Y-98086670D01*
X160050970Y-98065000D01*
X160006668Y-98019303D01*
X159964624Y-97970848D01*
X159924540Y-97920082D01*
X159886109Y-97867459D01*
X159849033Y-97813428D01*
X159813010Y-97758438D01*
X159742914Y-97647402D01*
X159673410Y-97537945D01*
X159638126Y-97484940D01*
X159602083Y-97433683D01*
X159479323Y-97188162D01*
X159452434Y-97100031D01*
X159422073Y-97010102D01*
X159388442Y-96918793D01*
X159351733Y-96826524D01*
X159312142Y-96733710D01*
X159269865Y-96640776D01*
X159225107Y-96548138D01*
X159178055Y-96456217D01*
X159128908Y-96365427D01*
X159077866Y-96276192D01*
X159025122Y-96188929D01*
X158970874Y-96104061D01*
X158915315Y-96022002D01*
X158858647Y-95943173D01*
X158801064Y-95867993D01*
X158742763Y-95796880D01*
X158783682Y-95592281D01*
X158906444Y-95592281D01*
X159006814Y-95743901D01*
G37*
G36*
X162343721Y-92768803D02*
G01*
X163080283Y-93832722D01*
X163203042Y-93955483D01*
X163325800Y-94119162D01*
X163121200Y-94119162D01*
X162952700Y-93946014D01*
X162867809Y-93854526D01*
X162783403Y-93759970D01*
X162700164Y-93662496D01*
X162618780Y-93562258D01*
X162539932Y-93459408D01*
X162464304Y-93354095D01*
X162392579Y-93246481D01*
X162325444Y-93136713D01*
X162263579Y-93024943D01*
X162207671Y-92911327D01*
X162158403Y-92796014D01*
X162116462Y-92679159D01*
X162098448Y-92620206D01*
X162082525Y-92560920D01*
X162068775Y-92501324D01*
X162057281Y-92441443D01*
X161934521Y-92359603D01*
X162098201Y-93546282D01*
X162220962Y-93873645D01*
X162180043Y-93914562D01*
X162098201Y-93914562D01*
X161852682Y-93505362D01*
X161484404Y-93464443D01*
X161443484Y-93464443D01*
X160911522Y-93628122D01*
X161197964Y-94282842D01*
X161729921Y-94364684D01*
X161934521Y-94528363D01*
X162057281Y-94773882D01*
X162057281Y-95346763D01*
X162020230Y-95406526D01*
X161983252Y-95460686D01*
X161946079Y-95509685D01*
X161927331Y-95532383D01*
X161908434Y-95553962D01*
X161889349Y-95574473D01*
X161870046Y-95593966D01*
X161850487Y-95612503D01*
X161830643Y-95630139D01*
X161810474Y-95646929D01*
X161789949Y-95662924D01*
X161747696Y-95692766D01*
X161703608Y-95720106D01*
X161657414Y-95745388D01*
X161608838Y-95769056D01*
X161557612Y-95791556D01*
X161503459Y-95813330D01*
X161446111Y-95834820D01*
X161320723Y-95878721D01*
X161238881Y-95878721D01*
X160911522Y-95796880D01*
X160625082Y-95633204D01*
X160952444Y-97106321D01*
X161197964Y-97761041D01*
X161443484Y-98129320D01*
X161424680Y-98129101D01*
X161406477Y-98127886D01*
X161388858Y-98125702D01*
X161371797Y-98122586D01*
X161355284Y-98118571D01*
X161339293Y-98113691D01*
X161323810Y-98107980D01*
X161308815Y-98101465D01*
X161294286Y-98094186D01*
X161280212Y-98086176D01*
X161266562Y-98077464D01*
X161253327Y-98068085D01*
X161240487Y-98058075D01*
X161228020Y-98047464D01*
X161215909Y-98036286D01*
X161204134Y-98024576D01*
X161181525Y-97999684D01*
X161160036Y-97973060D01*
X161139521Y-97944962D01*
X161119827Y-97915661D01*
X161100805Y-97885423D01*
X161082307Y-97854510D01*
X161046272Y-97791731D01*
X161023424Y-97751683D01*
X161000386Y-97712381D01*
X160988692Y-97693189D01*
X160976832Y-97674393D01*
X160964763Y-97656067D01*
X160952444Y-97638282D01*
X160952444Y-97474602D01*
X160829682Y-97310921D01*
X160584163Y-96083321D01*
X160502323Y-96001483D01*
X160338644Y-95510441D01*
X160174964Y-94773882D01*
X160215883Y-94732962D01*
X160297722Y-94732962D01*
X160502323Y-95060325D01*
X160543242Y-94773882D01*
X160625082Y-94732962D01*
X160625082Y-94569282D01*
X160584163Y-94528363D01*
X160502323Y-94569282D01*
X160338644Y-94119162D01*
X159970363Y-94487443D01*
X159970363Y-94610204D01*
X159888523Y-94732962D01*
X159724843Y-94732962D01*
X159724843Y-94487443D01*
X160256806Y-93832722D01*
X160338644Y-92114084D01*
X160420484Y-92032244D01*
X160461403Y-92032244D01*
X160584163Y-92155004D01*
X160666003Y-93178003D01*
X160788760Y-93423522D01*
X161852682Y-93259843D01*
X161820439Y-93082051D01*
X161792547Y-92899009D01*
X161770708Y-92712437D01*
X161762588Y-92618362D01*
X161756618Y-92524052D01*
X161753010Y-92429712D01*
X161751978Y-92335569D01*
X161753733Y-92241829D01*
X161758487Y-92148710D01*
X161766454Y-92056423D01*
X161777852Y-91965188D01*
X161792882Y-91875214D01*
X161811763Y-91786722D01*
X162016362Y-91786722D01*
X162343721Y-92768803D01*
G37*
G36*
X164185123Y-89781645D02*
G01*
X164266961Y-89863484D01*
X164344637Y-89871687D01*
X164426679Y-89883909D01*
X164512267Y-89900002D01*
X164600590Y-89919821D01*
X164690829Y-89943225D01*
X164782166Y-89970062D01*
X164873790Y-90000192D01*
X164964878Y-90033466D01*
X165054615Y-90069738D01*
X165142186Y-90108868D01*
X165226774Y-90150707D01*
X165307564Y-90195109D01*
X165383736Y-90241930D01*
X165454481Y-90291022D01*
X165518973Y-90342244D01*
X165576399Y-90395445D01*
X165699161Y-90395445D01*
X165990168Y-90606120D01*
X166291539Y-90830527D01*
X166442235Y-90948659D01*
X166590867Y-91071159D01*
X166735883Y-91198345D01*
X166875731Y-91330522D01*
X167008866Y-91468003D01*
X167133730Y-91611104D01*
X167248776Y-91760131D01*
X167352451Y-91915399D01*
X167399536Y-91995471D01*
X167443201Y-92077220D01*
X167483244Y-92160685D01*
X167519477Y-92245908D01*
X167551703Y-92332922D01*
X167579728Y-92421772D01*
X167603357Y-92512490D01*
X167622399Y-92605124D01*
X167704238Y-92646042D01*
X167827000Y-92973402D01*
X168113437Y-94446523D01*
X168072521Y-94569282D01*
X168113437Y-95183081D01*
X167990679Y-95224001D01*
X167990679Y-94773882D01*
X167827000Y-93669044D01*
X167745160Y-93587202D01*
X167711991Y-93405543D01*
X167666671Y-93224289D01*
X167609967Y-93043955D01*
X167542662Y-92865054D01*
X167465527Y-92688101D01*
X167379340Y-92513608D01*
X167284875Y-92342083D01*
X167182908Y-92174045D01*
X167074218Y-92010009D01*
X166959575Y-91850483D01*
X166839755Y-91695984D01*
X166715542Y-91547017D01*
X166587702Y-91404108D01*
X166457015Y-91267762D01*
X166324256Y-91138493D01*
X166190200Y-91016812D01*
X166147224Y-90981151D01*
X166102628Y-90947599D01*
X166056668Y-90915832D01*
X166009604Y-90885529D01*
X165913213Y-90828021D01*
X165815537Y-90772481D01*
X165718659Y-90716319D01*
X165671168Y-90687197D01*
X165624659Y-90656948D01*
X165579393Y-90625247D01*
X165535626Y-90591776D01*
X165493622Y-90556199D01*
X165453642Y-90518205D01*
X165330881Y-90518205D01*
X165219680Y-90443920D01*
X165105173Y-90376448D01*
X164987668Y-90315316D01*
X164867467Y-90260040D01*
X164744877Y-90210141D01*
X164620201Y-90165145D01*
X164493744Y-90124569D01*
X164365816Y-90087930D01*
X164236710Y-90054756D01*
X164106743Y-90024565D01*
X163845426Y-89971216D01*
X163325800Y-89879239D01*
X163267955Y-89868890D01*
X163208486Y-89857959D01*
X163101771Y-89838470D01*
X162992102Y-89819895D01*
X162880755Y-89803929D01*
X162824854Y-89797452D01*
X162769014Y-89792264D01*
X162713396Y-89788576D01*
X162658157Y-89786601D01*
X162603462Y-89786548D01*
X162549469Y-89788632D01*
X162496340Y-89793063D01*
X162444232Y-89800056D01*
X162393305Y-89809820D01*
X162343721Y-89822564D01*
X162261883Y-89822564D01*
X161157042Y-89904404D01*
X160297722Y-90268184D01*
X159111045Y-91009244D01*
X159111045Y-91091083D01*
X158988284Y-91213844D01*
X158783682Y-91336605D01*
X158579086Y-92686964D01*
X158456323Y-92809721D01*
X158701844Y-93914562D01*
X157924365Y-94201001D01*
X158701844Y-95346763D01*
X158701844Y-95510441D01*
X158333565Y-94978481D01*
X158251721Y-94978481D01*
X158209735Y-94919340D01*
X158166571Y-94860643D01*
X158122393Y-94802327D01*
X158077379Y-94744334D01*
X157985508Y-94629061D01*
X157892322Y-94514326D01*
X157736212Y-94321051D01*
X157660202Y-94223696D01*
X157586634Y-94125459D01*
X157516311Y-94026043D01*
X157450042Y-93925149D01*
X157388633Y-93822475D01*
X157332890Y-93717722D01*
X157283625Y-93610590D01*
X157241636Y-93500774D01*
X157223625Y-93444769D01*
X157207738Y-93387980D01*
X157194073Y-93330372D01*
X157182734Y-93271903D01*
X157173820Y-93212545D01*
X157167432Y-93152250D01*
X157163670Y-93090985D01*
X157162639Y-93028716D01*
X157164434Y-92965400D01*
X157169160Y-92901000D01*
X157176917Y-92835480D01*
X157187805Y-92768803D01*
X157269645Y-92646042D01*
X156983204Y-92564202D01*
X156942284Y-92236842D01*
X156737684Y-92236842D01*
X156533084Y-92359603D01*
X156492164Y-92400524D01*
X156287564Y-92768803D01*
X156287564Y-93382601D01*
X157065045Y-94352857D01*
X158374482Y-95387682D01*
X158374482Y-95551362D01*
X157678843Y-95101243D01*
X158058786Y-97883801D01*
X158128965Y-99111402D01*
X158128965Y-99888880D01*
X158169883Y-99929799D01*
X159315643Y-99929799D01*
X159438404Y-99725200D01*
X159683925Y-99725200D01*
X160338644Y-100134401D01*
X160461403Y-100134401D01*
X161116123Y-100461759D01*
X161197964Y-100379919D01*
X161443484Y-99766121D01*
X161525322Y-99766121D01*
X161566242Y-99807040D01*
X161566242Y-99970720D01*
X161893603Y-99970720D01*
X162302802Y-99684280D01*
X162466484Y-99725200D01*
X162630162Y-99725200D01*
X162834761Y-99438760D01*
X162642466Y-99381961D01*
X162467968Y-99328191D01*
X162386121Y-99300852D01*
X162307189Y-99272362D01*
X162230668Y-99242081D01*
X162156046Y-99209379D01*
X162082815Y-99173611D01*
X162010462Y-99134149D01*
X161938479Y-99090347D01*
X161866353Y-99041576D01*
X161793578Y-98987197D01*
X161745432Y-98947721D01*
X162016362Y-98947721D01*
X162037263Y-98972702D01*
X162059638Y-98996661D01*
X162083406Y-99019597D01*
X162108497Y-99041509D01*
X162134832Y-99062395D01*
X162162332Y-99082255D01*
X162190928Y-99101086D01*
X162220543Y-99118889D01*
X162282517Y-99151400D01*
X162347654Y-99179782D01*
X162415339Y-99204018D01*
X162484971Y-99224103D01*
X162555947Y-99240027D01*
X162627653Y-99251783D01*
X162699489Y-99259356D01*
X162770848Y-99262738D01*
X162841119Y-99261920D01*
X162909700Y-99256889D01*
X162975982Y-99247639D01*
X163039361Y-99234160D01*
X164307881Y-99234160D01*
X164880760Y-100011639D01*
X164798923Y-100338998D01*
X164798923Y-100379919D01*
X165289960Y-100911882D01*
X165330881Y-100911882D01*
X165453642Y-100830042D01*
X165617320Y-100093479D01*
X165699161Y-100011639D01*
X165740081Y-99520600D01*
X165781001Y-99479679D01*
X165944679Y-99479679D01*
X165862839Y-100666360D01*
X165903762Y-100707278D01*
X166967680Y-100707278D01*
X167008600Y-100666360D01*
X166926759Y-99766121D01*
X166926759Y-99684280D01*
X166967680Y-99193241D01*
X166967680Y-99111402D01*
X166926759Y-98784039D01*
X166926759Y-98743120D01*
X166763081Y-97515521D01*
X166681240Y-97515521D01*
X166599400Y-97883801D01*
X166476641Y-98129320D01*
X165453642Y-98988641D01*
X165289960Y-98988641D01*
X164307881Y-99234160D01*
X163039361Y-99234160D01*
X163039361Y-99111402D01*
X162998442Y-99070481D01*
X162098201Y-98906800D01*
X162016362Y-98947721D01*
X161745432Y-98947721D01*
X161719641Y-98926573D01*
X161644033Y-98859066D01*
X161566242Y-98784039D01*
X161402564Y-98784039D01*
X161365662Y-98753689D01*
X161327397Y-98726373D01*
X161287874Y-98702016D01*
X161247195Y-98680546D01*
X161205464Y-98661883D01*
X161162787Y-98645953D01*
X161119270Y-98632681D01*
X161075013Y-98621993D01*
X161030124Y-98613807D01*
X160984704Y-98608057D01*
X160938860Y-98604661D01*
X160892697Y-98603543D01*
X160846315Y-98604632D01*
X160799825Y-98607847D01*
X160753325Y-98613116D01*
X160706924Y-98620361D01*
X160461403Y-98784039D01*
X160461403Y-98865882D01*
X159683925Y-99561520D01*
X159683925Y-99725200D01*
X159438404Y-99725200D01*
X159458863Y-99561520D01*
X159479323Y-99397841D01*
X160625082Y-98497600D01*
X160666003Y-98333920D01*
X160870603Y-98333920D01*
X160993363Y-98456682D01*
X161157042Y-98456682D01*
X161238881Y-98538521D01*
X161607160Y-98661281D01*
X162016362Y-98702200D01*
X161819289Y-98006562D01*
X161863131Y-97539522D01*
X162026106Y-97539522D01*
X162028486Y-97636482D01*
X162033503Y-97732417D01*
X162041047Y-97827762D01*
X162051015Y-97922938D01*
X162063306Y-98018375D01*
X162094443Y-98211734D01*
X162133630Y-98411258D01*
X162180043Y-98620361D01*
X162343721Y-98784039D01*
X163080283Y-98906800D01*
X163530402Y-98170241D01*
X163694081Y-97147241D01*
X163612241Y-97065401D01*
X162180043Y-96901720D01*
X162057281Y-97024481D01*
X162044957Y-97132945D01*
X162035778Y-97238254D01*
X162029646Y-97340837D01*
X162026455Y-97441117D01*
X162026106Y-97539522D01*
X161863131Y-97539522D01*
X161934521Y-96778961D01*
X162043427Y-96756528D01*
X162153852Y-96740377D01*
X162265571Y-96730062D01*
X162378360Y-96725135D01*
X162491992Y-96725150D01*
X162606239Y-96729659D01*
X162720874Y-96738207D01*
X162835671Y-96750358D01*
X162950405Y-96765657D01*
X163064849Y-96783660D01*
X163291954Y-96825975D01*
X163515179Y-96873724D01*
X163732709Y-96923326D01*
X163732791Y-96923326D01*
X163816841Y-96942642D01*
X163898681Y-97065401D01*
X163653163Y-98374841D01*
X163325800Y-98947721D01*
X163416364Y-98963148D01*
X163505342Y-98975130D01*
X163592874Y-98983887D01*
X163679101Y-98989650D01*
X163764165Y-98992636D01*
X163848208Y-98993077D01*
X163931367Y-98991189D01*
X164013785Y-98987204D01*
X164176957Y-98973825D01*
X164338854Y-98954735D01*
X164500596Y-98931727D01*
X164663312Y-98906596D01*
X164815098Y-98883091D01*
X164969547Y-98860712D01*
X165048045Y-98850386D01*
X165127540Y-98840869D01*
X165208144Y-98832337D01*
X165289960Y-98824961D01*
X165494560Y-98661281D01*
X165617320Y-98661281D01*
X166353879Y-97883801D01*
X166476641Y-97597360D01*
X166517559Y-96942642D01*
X166500491Y-96918157D01*
X166484978Y-96892735D01*
X166470966Y-96866413D01*
X166458403Y-96839232D01*
X166447239Y-96811224D01*
X166437424Y-96782431D01*
X166428902Y-96752888D01*
X166421626Y-96722635D01*
X166410598Y-96660145D01*
X166403929Y-96595259D01*
X166401205Y-96528280D01*
X166402012Y-96459509D01*
X166405940Y-96389243D01*
X166412573Y-96317795D01*
X166421505Y-96245454D01*
X166432315Y-96172521D01*
X166457933Y-96026097D01*
X166486133Y-95880932D01*
X166512031Y-95747761D01*
X166523885Y-95683019D01*
X166534550Y-95619836D01*
X166543687Y-95558462D01*
X166550952Y-95499144D01*
X166555995Y-95442135D01*
X166558481Y-95387682D01*
X166394801Y-95387682D01*
X166231120Y-94937563D01*
X166026518Y-94610204D01*
X165985599Y-94569282D01*
X165494560Y-94119162D01*
X165289960Y-94037325D01*
X165249040Y-94323763D01*
X165234029Y-94318923D01*
X165219838Y-94313426D01*
X165206450Y-94307300D01*
X165193827Y-94300565D01*
X165181949Y-94293242D01*
X165170790Y-94285356D01*
X165160318Y-94276929D01*
X165150512Y-94267981D01*
X165141340Y-94258535D01*
X165132778Y-94248615D01*
X165124798Y-94238245D01*
X165117376Y-94227441D01*
X165110486Y-94216232D01*
X165104092Y-94204636D01*
X165098178Y-94192678D01*
X165092712Y-94180380D01*
X165087666Y-94167762D01*
X165083017Y-94154849D01*
X165074799Y-94128220D01*
X165067840Y-94100679D01*
X165061925Y-94072400D01*
X165056843Y-94043562D01*
X165052377Y-94014343D01*
X165044440Y-93955483D01*
X164594320Y-93914562D01*
X164599475Y-93899965D01*
X164604940Y-93886272D01*
X164610715Y-93873451D01*
X164616796Y-93861484D01*
X164623181Y-93850328D01*
X164629878Y-93839964D01*
X164636877Y-93830359D01*
X164644178Y-93821479D01*
X164651784Y-93813302D01*
X164659691Y-93805797D01*
X164667897Y-93798931D01*
X164676402Y-93792679D01*
X164685204Y-93787009D01*
X164694304Y-93781893D01*
X164703699Y-93777302D01*
X164713387Y-93773204D01*
X164723370Y-93769574D01*
X164733644Y-93766380D01*
X164744211Y-93763589D01*
X164755066Y-93761180D01*
X164766209Y-93759116D01*
X164777643Y-93757374D01*
X164801363Y-93754729D01*
X164826221Y-93753008D01*
X164852206Y-93751976D01*
X164907525Y-93751046D01*
X164914571Y-93750981D01*
X164921679Y-93750883D01*
X164594320Y-92891563D01*
X164613467Y-92889338D01*
X164631879Y-92888285D01*
X164649578Y-92888361D01*
X164666587Y-92889537D01*
X164682930Y-92891766D01*
X164698628Y-92895015D01*
X164713712Y-92899237D01*
X164728199Y-92904404D01*
X164742114Y-92910475D01*
X164755480Y-92917406D01*
X164768321Y-92925167D01*
X164780663Y-92933711D01*
X164792524Y-92943008D01*
X164803933Y-92953013D01*
X164814908Y-92963690D01*
X164825479Y-92974999D01*
X164835663Y-92986902D01*
X164845488Y-92999368D01*
X164864148Y-93025807D01*
X164881648Y-93054014D01*
X164898177Y-93083678D01*
X164913916Y-93114495D01*
X164929059Y-93146155D01*
X164958305Y-93210782D01*
X164958312Y-93210800D01*
X164958323Y-93210821D01*
X164958345Y-93210861D01*
X164978680Y-93256156D01*
X164988980Y-93278481D01*
X164999461Y-93300446D01*
X165010181Y-93321946D01*
X165021207Y-93342877D01*
X165032605Y-93363133D01*
X165044440Y-93382601D01*
X165044440Y-93546282D01*
X165126279Y-93750883D01*
X165535480Y-93873645D01*
X165903762Y-94119162D01*
X165944679Y-94241923D01*
X166108359Y-94241923D01*
X165862839Y-92605124D01*
X165740081Y-92236842D01*
X165658239Y-92155004D01*
X165658239Y-91991322D01*
X165862839Y-92073165D01*
X166353879Y-92891563D01*
X166722159Y-93996400D01*
X166756484Y-94047707D01*
X166788647Y-94105992D01*
X166818498Y-94170345D01*
X166845883Y-94239842D01*
X166870646Y-94313576D01*
X166892644Y-94390627D01*
X166911718Y-94470082D01*
X166927716Y-94551022D01*
X166940487Y-94632535D01*
X166949882Y-94713698D01*
X166955746Y-94793604D01*
X166957922Y-94871330D01*
X166956267Y-94945968D01*
X166950620Y-95016596D01*
X166940837Y-95082298D01*
X166926759Y-95142162D01*
X166803999Y-95101243D01*
X166722159Y-94405603D01*
X166640321Y-94323763D01*
X166599400Y-93996400D01*
X166272040Y-93178003D01*
X166149281Y-93137083D01*
X166231120Y-94487443D01*
X166558481Y-95142162D01*
X166763081Y-95101243D01*
X166681240Y-96247003D01*
X166844920Y-96369761D01*
X167295039Y-98538521D01*
X167090441Y-98620361D01*
X167213200Y-100830042D01*
X167458719Y-101157398D01*
X167622399Y-101034640D01*
X167827000Y-100952798D01*
X169545638Y-100625439D01*
X169627478Y-100707278D01*
X169791158Y-101934879D01*
X169791158Y-102139480D01*
X169668398Y-102262240D01*
X169545638Y-102221318D01*
X169504718Y-102221318D01*
X168850000Y-102225000D01*
X167540559Y-102180400D01*
X167417798Y-102548679D01*
X167335959Y-102548679D01*
X167295039Y-102712359D01*
X167213200Y-102712359D01*
X166844920Y-103080636D01*
X166681240Y-103162479D01*
X166272040Y-103244319D01*
X166108359Y-103203399D01*
X165740081Y-103203399D01*
X165535480Y-103121559D01*
X165249040Y-102916958D01*
X165208122Y-102794200D01*
X164921679Y-102794200D01*
X164798923Y-102712359D01*
X164717081Y-102507758D01*
X164594320Y-102466839D01*
X164553401Y-102794200D01*
X164430641Y-102876038D01*
X164430641Y-102998798D01*
X164553401Y-103326159D01*
X164962601Y-103939956D01*
X164798923Y-104062718D01*
X164471562Y-104185479D01*
X164553401Y-105044838D01*
X165044440Y-105085758D01*
X165535480Y-105331278D01*
X165576399Y-105372200D01*
X165740081Y-105617718D01*
X165740081Y-105781399D01*
X165781001Y-105822320D01*
X165944679Y-105822320D01*
X165985599Y-105740477D01*
X167949759Y-105740477D01*
X169504718Y-106436119D01*
X169668398Y-106436119D01*
X170036678Y-106640717D01*
X171223357Y-106913983D01*
X172082676Y-107049918D01*
X173514878Y-107049918D01*
X173473958Y-107213598D01*
X172941998Y-107213598D01*
X172164519Y-107172678D01*
X172108125Y-107180920D01*
X172048077Y-107187216D01*
X171984936Y-107191535D01*
X171919280Y-107193830D01*
X171851669Y-107194067D01*
X171782671Y-107192211D01*
X171712859Y-107188219D01*
X171642797Y-107182055D01*
X171573057Y-107173679D01*
X171504202Y-107163053D01*
X171436803Y-107150139D01*
X171371425Y-107134901D01*
X171308641Y-107117298D01*
X171249015Y-107097292D01*
X171193120Y-107074843D01*
X171141518Y-107049918D01*
X171059680Y-107090836D01*
X170200359Y-106886239D01*
X169832080Y-106763477D01*
X169259198Y-106477037D01*
X169095518Y-106477037D01*
X168972760Y-106354278D01*
X168113437Y-105985999D01*
X167295039Y-105781399D01*
X167172277Y-105822320D01*
X166190200Y-105863237D01*
X166108359Y-105945079D01*
X165821921Y-105985999D01*
X165781001Y-106026918D01*
X165617320Y-106722562D01*
X165494560Y-106763477D01*
X165494560Y-106845320D01*
X165453642Y-106886239D01*
X165344769Y-106939419D01*
X165234780Y-106985795D01*
X165123735Y-107025823D01*
X165011701Y-107059960D01*
X164898746Y-107088655D01*
X164784930Y-107112360D01*
X164670321Y-107131533D01*
X164554986Y-107146624D01*
X164438987Y-107158085D01*
X164322391Y-107166370D01*
X164087666Y-107175235D01*
X163851336Y-107176836D01*
X163613917Y-107174805D01*
X163613756Y-107174805D01*
X163469839Y-107173345D01*
X163325800Y-107172678D01*
X162875683Y-106763477D01*
X162630162Y-106886239D01*
X162343721Y-106886239D01*
X162139123Y-107254518D01*
X161729921Y-107500038D01*
X159765764Y-107459119D01*
X159602083Y-107336359D01*
X159520245Y-107172678D01*
X159192885Y-107131760D01*
X159151964Y-107131760D01*
X157924365Y-107090836D01*
X157842524Y-107008999D01*
X157146885Y-106886239D01*
X156737684Y-106722562D01*
X156696764Y-106640717D01*
X156574005Y-106640717D01*
X156533084Y-106558880D01*
X156410324Y-106558880D01*
X155551003Y-105699556D01*
X155551003Y-105576801D01*
X155499751Y-105523184D01*
X155452084Y-105467466D01*
X155407899Y-105409755D01*
X155367079Y-105350161D01*
X155329518Y-105288798D01*
X155295099Y-105225773D01*
X155263720Y-105161198D01*
X155235261Y-105095184D01*
X155186680Y-104959284D01*
X155148469Y-104818956D01*
X155119741Y-104675085D01*
X155099613Y-104528560D01*
X155087192Y-104380266D01*
X155081607Y-104231088D01*
X155081952Y-104081914D01*
X155087357Y-103933625D01*
X155096932Y-103787114D01*
X155109789Y-103643260D01*
X155141804Y-103367078D01*
X155551003Y-102876038D01*
X155551003Y-102794200D01*
X155755606Y-102671437D01*
X155960206Y-102712359D01*
X155632846Y-102957878D01*
X155305485Y-103448920D01*
X155223644Y-104390079D01*
X155305485Y-104471958D01*
X155387325Y-104962998D01*
X155551003Y-105290358D01*
X156328648Y-106207047D01*
X157474243Y-106804398D01*
X159111045Y-107008999D01*
X159192885Y-107008999D01*
X159356562Y-106968077D01*
X159379977Y-106616881D01*
X159578589Y-106616881D01*
X159579050Y-106683812D01*
X159581781Y-106752156D01*
X159586628Y-106822151D01*
X159593445Y-106894045D01*
X159602083Y-106968077D01*
X159888523Y-107254518D01*
X160584163Y-107336359D01*
X161607160Y-107295437D01*
X161934521Y-107131760D01*
X161975441Y-107090836D01*
X162010235Y-107022015D01*
X162040975Y-106955928D01*
X162067755Y-106892135D01*
X162090668Y-106830182D01*
X162109811Y-106769628D01*
X162125275Y-106710023D01*
X162137154Y-106650921D01*
X162145539Y-106591872D01*
X162150531Y-106532435D01*
X162152214Y-106472159D01*
X162150694Y-106410596D01*
X162146054Y-106347297D01*
X162138391Y-106281820D01*
X162127798Y-106213716D01*
X162114373Y-106142538D01*
X162098201Y-106067839D01*
X161975441Y-105904158D01*
X161443484Y-105576801D01*
X160093123Y-105699556D01*
X159765764Y-105904158D01*
X159731452Y-105971622D01*
X159701047Y-106037825D01*
X159674399Y-106103003D01*
X159651358Y-106167409D01*
X159631777Y-106231277D01*
X159615506Y-106294854D01*
X159602395Y-106358385D01*
X159592297Y-106422111D01*
X159585064Y-106486270D01*
X159580543Y-106551112D01*
X159578589Y-106616881D01*
X159379977Y-106616881D01*
X159397485Y-106354278D01*
X159356562Y-106272440D01*
X159520245Y-105945079D01*
X159610267Y-105494958D01*
X159847603Y-105494958D01*
X159888523Y-105535879D01*
X161034275Y-105372200D01*
X161484404Y-105372200D01*
X161729921Y-105454039D01*
X161770842Y-105535879D01*
X161893603Y-105535879D01*
X162180043Y-105863237D01*
X162261883Y-105863237D01*
X162384643Y-106681639D01*
X162507401Y-106722562D01*
X162589243Y-106640717D01*
X162752923Y-106640717D01*
X163039361Y-106640717D01*
X163571322Y-107008999D01*
X163775923Y-106968077D01*
X163857760Y-106968077D01*
X163905881Y-106986380D01*
X163955661Y-107001699D01*
X164006948Y-107014115D01*
X164059602Y-107023712D01*
X164113474Y-107030570D01*
X164168419Y-107034766D01*
X164280940Y-107035510D01*
X164395997Y-107026595D01*
X164512421Y-107008675D01*
X164629043Y-106982393D01*
X164744692Y-106948404D01*
X164858200Y-106907359D01*
X164968394Y-106859906D01*
X165074112Y-106806694D01*
X165174177Y-106748376D01*
X165267424Y-106685601D01*
X165352684Y-106619020D01*
X165428784Y-106549281D01*
X165494560Y-106477037D01*
X165617320Y-105863237D01*
X164962601Y-105290358D01*
X163898681Y-105290358D01*
X163694081Y-105372200D01*
X163653163Y-105454039D01*
X163530402Y-105454039D01*
X163162121Y-105781399D01*
X163039361Y-106640717D01*
X162752923Y-106640717D01*
X162793842Y-106599799D01*
X162875683Y-105658639D01*
X162875683Y-105576801D01*
X162834761Y-104717481D01*
X162793842Y-104676559D01*
X161607160Y-104717481D01*
X161484404Y-105372200D01*
X161034275Y-105372200D01*
X161320723Y-105331278D01*
X161402564Y-105044838D01*
X161361644Y-104962998D01*
X161443477Y-104471958D01*
X162998442Y-104471958D01*
X163080283Y-105494958D01*
X163325800Y-105413119D01*
X163325800Y-105331278D01*
X164307881Y-105044838D01*
X164348801Y-105003920D01*
X164226040Y-104185479D01*
X163203042Y-104144558D01*
X163162121Y-104349159D01*
X162998442Y-104471958D01*
X161443477Y-104471958D01*
X161484404Y-104226399D01*
X161443484Y-104185479D01*
X160870603Y-104267316D01*
X160052204Y-104717481D01*
X159847603Y-105494958D01*
X159610267Y-105494958D01*
X159643001Y-105331278D01*
X159724843Y-105290358D01*
X159806684Y-104922079D01*
X158538163Y-104922079D01*
X158374482Y-104962998D01*
X158292643Y-104881161D01*
X158047124Y-104881161D01*
X157946637Y-104825535D01*
X157850240Y-104768445D01*
X157757660Y-104709751D01*
X157668627Y-104649309D01*
X157582874Y-104586972D01*
X157500124Y-104522601D01*
X157420114Y-104456051D01*
X157342569Y-104387180D01*
X157267221Y-104315840D01*
X157193801Y-104241889D01*
X157122036Y-104165187D01*
X157051658Y-104085588D01*
X156982397Y-104002950D01*
X156913979Y-103917129D01*
X156846138Y-103827978D01*
X156778604Y-103735361D01*
X156778604Y-103612600D01*
X156696764Y-103571679D01*
X156533084Y-102916958D01*
X156123886Y-102916958D01*
X156082963Y-102876038D01*
X156082963Y-102548679D01*
X156123886Y-102507758D01*
X156369406Y-102507758D01*
X156492164Y-102425920D01*
X156492164Y-101566600D01*
X156901366Y-101566600D01*
X156942284Y-103039720D01*
X157024125Y-103121559D01*
X157024125Y-103285238D01*
X157082854Y-103389455D01*
X157139601Y-103494933D01*
X157195967Y-103600643D01*
X157253569Y-103705547D01*
X157283333Y-103757378D01*
X157314009Y-103808618D01*
X157345796Y-103859148D01*
X157378898Y-103908827D01*
X157413514Y-103957532D01*
X157449848Y-104005138D01*
X157488097Y-104051509D01*
X157528462Y-104096518D01*
X157594492Y-104164364D01*
X157661117Y-104227664D01*
X157728338Y-104286526D01*
X157796154Y-104341059D01*
X157864560Y-104391372D01*
X157933558Y-104437575D01*
X158003141Y-104479779D01*
X158073314Y-104518085D01*
X158144070Y-104552613D01*
X158215412Y-104583465D01*
X158287334Y-104610753D01*
X158359839Y-104634588D01*
X158506588Y-104672324D01*
X158655635Y-104697551D01*
X158806975Y-104711140D01*
X158960594Y-104713966D01*
X159116478Y-104706899D01*
X159274615Y-104690819D01*
X159434994Y-104666593D01*
X159597599Y-104635100D01*
X159762419Y-104597209D01*
X159929442Y-104553798D01*
X160379561Y-104308240D01*
X160747843Y-104062718D01*
X161005178Y-104055718D01*
X161126407Y-104055943D01*
X161243609Y-104058942D01*
X161357479Y-104064933D01*
X161468712Y-104074130D01*
X161578005Y-104086748D01*
X161686050Y-104103009D01*
X161793553Y-104123124D01*
X161901202Y-104147313D01*
X162009699Y-104175790D01*
X162119736Y-104208770D01*
X162232014Y-104246473D01*
X162347227Y-104289117D01*
X162466069Y-104336910D01*
X162589243Y-104390079D01*
X162630162Y-104390079D01*
X162875683Y-104349159D01*
X162998442Y-104144558D01*
X162998442Y-103939956D01*
X162867498Y-103858118D01*
X163366723Y-103858118D01*
X163489484Y-103980879D01*
X163653163Y-104021799D01*
X163775923Y-103980879D01*
X163800963Y-103990617D01*
X163826616Y-103999109D01*
X163879577Y-104012540D01*
X163934484Y-104021529D01*
X163991006Y-104026441D01*
X164048814Y-104027634D01*
X164107586Y-104025474D01*
X164166989Y-104020323D01*
X164226701Y-104012540D01*
X164286392Y-104002490D01*
X164345733Y-103990533D01*
X164404402Y-103977032D01*
X164462067Y-103962350D01*
X164573081Y-103930888D01*
X164676161Y-103899040D01*
X164307881Y-103080636D01*
X164185123Y-102835119D01*
X164062361Y-102671437D01*
X163448562Y-102712359D01*
X163366723Y-102794200D01*
X163366723Y-103858118D01*
X162867498Y-103858118D01*
X162671082Y-103735361D01*
X162589243Y-103612600D01*
X162589243Y-103407999D01*
X162793842Y-103407999D01*
X163121200Y-103653517D01*
X163135800Y-103601125D01*
X163149365Y-103546206D01*
X163161771Y-103489114D01*
X163172899Y-103430205D01*
X163182624Y-103369844D01*
X163190824Y-103308385D01*
X163197381Y-103246190D01*
X163202167Y-103183612D01*
X163205061Y-103121016D01*
X163205944Y-103058756D01*
X163204693Y-102997192D01*
X163201182Y-102936685D01*
X163195292Y-102877587D01*
X163186900Y-102820263D01*
X163181696Y-102794200D01*
X163175883Y-102765063D01*
X163162121Y-102712359D01*
X163080283Y-102712359D01*
X162793842Y-103244319D01*
X162793842Y-103407999D01*
X162589243Y-103407999D01*
X162589243Y-103244319D01*
X162589243Y-103203399D01*
X162057281Y-103244319D01*
X161975441Y-103244319D01*
X161770842Y-103285238D01*
X161157042Y-103735361D01*
X160256806Y-103694437D01*
X159724843Y-103407999D01*
X159683925Y-103367078D01*
X159515937Y-102835119D01*
X159643001Y-102835119D01*
X160093123Y-103367078D01*
X160215883Y-103367078D01*
X160256806Y-103448920D01*
X161279804Y-103448920D01*
X161328923Y-103407221D01*
X161375591Y-103364825D01*
X161419818Y-103321736D01*
X161461611Y-103277966D01*
X161500986Y-103233519D01*
X161537952Y-103188412D01*
X161572516Y-103142644D01*
X161604697Y-103096237D01*
X161614576Y-103080636D01*
X161934521Y-103080636D01*
X162343721Y-103080636D01*
X162466484Y-102957878D01*
X162388949Y-102589600D01*
X162302802Y-102180400D01*
X162057281Y-102180400D01*
X161934521Y-103080636D01*
X161614576Y-103080636D01*
X161634498Y-103049189D01*
X161661933Y-103001513D01*
X161687013Y-102953217D01*
X161709751Y-102904314D01*
X161730155Y-102854808D01*
X161748236Y-102804710D01*
X161764006Y-102754032D01*
X161777477Y-102702778D01*
X161788656Y-102650960D01*
X161797557Y-102598587D01*
X161804191Y-102545667D01*
X161808567Y-102492211D01*
X161810697Y-102438226D01*
X161810592Y-102383720D01*
X161808263Y-102328707D01*
X161803722Y-102273190D01*
X161796976Y-102217183D01*
X161788038Y-102160693D01*
X161776921Y-102103730D01*
X161763634Y-102046300D01*
X161731161Y-101932083D01*
X161972468Y-101932083D01*
X161972931Y-101953230D01*
X161975441Y-101975799D01*
X162712003Y-101893958D01*
X162712003Y-101934879D01*
X162630162Y-101975799D01*
X162384643Y-102016720D01*
X162384643Y-102098557D01*
X162425562Y-102139480D01*
X163039361Y-102098557D01*
X163039361Y-102139480D01*
X163013112Y-102141281D01*
X162976615Y-102145806D01*
X162881732Y-102161942D01*
X162772438Y-102185729D01*
X162717924Y-102199822D01*
X162666459Y-102215017D01*
X162620249Y-102231048D01*
X162581516Y-102247650D01*
X162552474Y-102264549D01*
X162542277Y-102273023D01*
X162535337Y-102281474D01*
X162531925Y-102289863D01*
X162532319Y-102298158D01*
X162536801Y-102306328D01*
X162545642Y-102314334D01*
X162559123Y-102322150D01*
X162577519Y-102329732D01*
X162601105Y-102337054D01*
X162630162Y-102344080D01*
X162589243Y-102507758D01*
X162834761Y-102548679D01*
X162875683Y-102548679D01*
X162984918Y-102518435D01*
X163029638Y-102507758D01*
X164266961Y-102507758D01*
X164266961Y-102589600D01*
X164348801Y-102589600D01*
X164348801Y-102507758D01*
X164266961Y-102507758D01*
X163029638Y-102507758D01*
X163098953Y-102491209D01*
X163217147Y-102466853D01*
X163338853Y-102445217D01*
X163590241Y-102409522D01*
X163847986Y-102382942D01*
X164106953Y-102364290D01*
X164362007Y-102352383D01*
X164608015Y-102346043D01*
X164839841Y-102344080D01*
X164798923Y-102180400D01*
X164389721Y-102180400D01*
X164389721Y-102139480D01*
X164412871Y-102139704D01*
X164436297Y-102140297D01*
X164483672Y-102142099D01*
X164546174Y-102144300D01*
X164577133Y-102144719D01*
X164607681Y-102144323D01*
X164637646Y-102142829D01*
X164666859Y-102139966D01*
X164695152Y-102135464D01*
X164722359Y-102129045D01*
X164748314Y-102120433D01*
X164760765Y-102115222D01*
X164772845Y-102109360D01*
X164784523Y-102102813D01*
X164795784Y-102095545D01*
X164806607Y-102087527D01*
X164816965Y-102078719D01*
X164826845Y-102069091D01*
X164836224Y-102058605D01*
X164845077Y-102047230D01*
X164853385Y-102034929D01*
X164861129Y-102021672D01*
X164868287Y-102007419D01*
X164874836Y-101992141D01*
X164880760Y-101975799D01*
X164512481Y-101975799D01*
X164512481Y-101971697D01*
X165071433Y-101971697D01*
X165072285Y-102054666D01*
X165078246Y-102140998D01*
X165089263Y-102231268D01*
X165105290Y-102326050D01*
X165126279Y-102425920D01*
X165617320Y-102957878D01*
X166640321Y-102957878D01*
X166967680Y-102794200D01*
X167376881Y-102180400D01*
X167376881Y-101402919D01*
X167131359Y-100993719D01*
X166885839Y-100870959D01*
X166640321Y-100870959D01*
X166435718Y-100993719D01*
X166353879Y-100993719D01*
X166322783Y-100975134D01*
X166291822Y-100958508D01*
X166260994Y-100943789D01*
X166230296Y-100930925D01*
X166199728Y-100919865D01*
X166169283Y-100910558D01*
X166138959Y-100902955D01*
X166108757Y-100897002D01*
X166078672Y-100892649D01*
X166048701Y-100889843D01*
X166018839Y-100888538D01*
X165989089Y-100888677D01*
X165959443Y-100890212D01*
X165929901Y-100893092D01*
X165871116Y-100902678D01*
X165812711Y-100917028D01*
X165754666Y-100935731D01*
X165696959Y-100958380D01*
X165639566Y-100984565D01*
X165582469Y-101013876D01*
X165525640Y-101045903D01*
X165469066Y-101080243D01*
X165412721Y-101116480D01*
X165354248Y-101200415D01*
X165301411Y-101281391D01*
X165254158Y-101359975D01*
X165212441Y-101436749D01*
X165176214Y-101512284D01*
X165145427Y-101587153D01*
X165120031Y-101661939D01*
X165099984Y-101737211D01*
X165085233Y-101813541D01*
X165075733Y-101891514D01*
X165071433Y-101971697D01*
X164512481Y-101971697D01*
X164512481Y-101934879D01*
X164880760Y-101893958D01*
X164839841Y-101730281D01*
X164031753Y-101796280D01*
X164086291Y-101786748D01*
X164139739Y-101776215D01*
X164191974Y-101764637D01*
X164242874Y-101751966D01*
X164292312Y-101738150D01*
X164340167Y-101723145D01*
X164386320Y-101706897D01*
X164430641Y-101689358D01*
X164594320Y-101730281D01*
X164839841Y-101689358D01*
X164921679Y-101525680D01*
X164798923Y-101484760D01*
X164674546Y-101518742D01*
X164546378Y-101548599D01*
X164414913Y-101574677D01*
X164280642Y-101597319D01*
X164005658Y-101633676D01*
X163725373Y-101660433D01*
X163443737Y-101680348D01*
X163164690Y-101696180D01*
X162630162Y-101726636D01*
X162616014Y-101727470D01*
X162601071Y-101728083D01*
X162585388Y-101728508D01*
X162569021Y-101728781D01*
X162534450Y-101728980D01*
X162497784Y-101728927D01*
X162497251Y-101728927D01*
X162495003Y-101728927D01*
X162404471Y-101729158D01*
X162310549Y-101732291D01*
X162263986Y-101735858D01*
X162218583Y-101741250D01*
X162175010Y-101748828D01*
X162133932Y-101758961D01*
X162096017Y-101772009D01*
X162078457Y-101779744D01*
X162061936Y-101788342D01*
X162046545Y-101797856D01*
X162032361Y-101808329D01*
X162019474Y-101819804D01*
X162007960Y-101832330D01*
X161997906Y-101845950D01*
X161989397Y-101860712D01*
X161982513Y-101876659D01*
X161977343Y-101893839D01*
X161973965Y-101912297D01*
X161972468Y-101932083D01*
X161731161Y-101932083D01*
X161730593Y-101930085D01*
X161689002Y-101812119D01*
X161238881Y-101484760D01*
X160952444Y-101362000D01*
X160818810Y-101364045D01*
X160755329Y-101366890D01*
X160693739Y-101371204D01*
X160633792Y-101377183D01*
X160575237Y-101385012D01*
X160517821Y-101394890D01*
X160461299Y-101407006D01*
X160405422Y-101421551D01*
X160349935Y-101438719D01*
X160294591Y-101458699D01*
X160239143Y-101481685D01*
X160183335Y-101507867D01*
X160126924Y-101537439D01*
X160069656Y-101570592D01*
X160011285Y-101607519D01*
X159643001Y-102139480D01*
X159643001Y-102835119D01*
X159515937Y-102835119D01*
X159438404Y-102589600D01*
X159315643Y-102630519D01*
X159315643Y-102876038D01*
X158988284Y-102876038D01*
X158947363Y-102835119D01*
X158947363Y-102548679D01*
X158947363Y-102262240D01*
X159315643Y-102262240D01*
X159315643Y-102548679D01*
X159356562Y-102548679D01*
X159438404Y-102425920D01*
X159438404Y-102384997D01*
X159315643Y-102262240D01*
X158947363Y-102262240D01*
X158947363Y-102139480D01*
X158947363Y-101975799D01*
X159233803Y-101934879D01*
X159126119Y-101525680D01*
X159315643Y-101525680D01*
X159479323Y-101853039D01*
X159602083Y-101853039D01*
X159643001Y-101812119D01*
X160174964Y-101239240D01*
X160706924Y-101157398D01*
X160706924Y-100993719D01*
X160543242Y-100830042D01*
X160543242Y-100789121D01*
X160788760Y-100789121D01*
X160834769Y-100851579D01*
X160880409Y-100909674D01*
X160925983Y-100963724D01*
X160971789Y-101014052D01*
X161018123Y-101060973D01*
X161065283Y-101104808D01*
X161113574Y-101145878D01*
X161163288Y-101184502D01*
X161214725Y-101221002D01*
X161268182Y-101255697D01*
X161323959Y-101288903D01*
X161382356Y-101320946D01*
X161443667Y-101352139D01*
X161508194Y-101382805D01*
X161576233Y-101413267D01*
X161648083Y-101443838D01*
X161689002Y-101566600D01*
X161811763Y-101648441D01*
X163203042Y-101484760D01*
X163193948Y-101443838D01*
X163366723Y-101443838D01*
X163407644Y-101484760D01*
X163898681Y-101443838D01*
X163857760Y-100911882D01*
X163857760Y-100830042D01*
X163863607Y-100789121D01*
X164062361Y-100789121D01*
X164144200Y-101402919D01*
X164471562Y-101362000D01*
X164635242Y-101402919D01*
X165044440Y-101321079D01*
X165167201Y-101116480D01*
X165167201Y-101075559D01*
X165126279Y-100993719D01*
X164798923Y-100625439D01*
X164717081Y-100625439D01*
X164594320Y-100461759D01*
X164512481Y-100461759D01*
X164062361Y-100789121D01*
X163863607Y-100789121D01*
X163898681Y-100543600D01*
X164144200Y-100543600D01*
X164635242Y-100052561D01*
X164512481Y-100011639D01*
X164493264Y-99963231D01*
X164471859Y-99913923D01*
X164448257Y-99864194D01*
X164422455Y-99814527D01*
X164394453Y-99765400D01*
X164364239Y-99717288D01*
X164331812Y-99670681D01*
X164297163Y-99626052D01*
X164260296Y-99583880D01*
X164221202Y-99544648D01*
X164179875Y-99508836D01*
X164158374Y-99492360D01*
X164136313Y-99476922D01*
X164113692Y-99462576D01*
X164090508Y-99449383D01*
X164066764Y-99437408D01*
X164042456Y-99426706D01*
X164017588Y-99417336D01*
X163992157Y-99409364D01*
X163966163Y-99402845D01*
X163939601Y-99397841D01*
X163653163Y-99888880D01*
X163653163Y-100011639D01*
X163530402Y-100093479D01*
X163571322Y-100625439D01*
X163694081Y-100707278D01*
X163653163Y-100952798D01*
X163530402Y-100993719D01*
X163366723Y-101280160D01*
X163366723Y-101443838D01*
X163193948Y-101443838D01*
X163157574Y-101280160D01*
X163121200Y-101116480D01*
X162839877Y-100666360D01*
X163162121Y-100666360D01*
X163325800Y-100830042D01*
X163366723Y-100625439D01*
X163325800Y-100584520D01*
X163243961Y-100584520D01*
X163162121Y-100666360D01*
X162839877Y-100666360D01*
X162712003Y-100461759D01*
X162302802Y-100216239D01*
X161689002Y-100216239D01*
X161402564Y-100338998D01*
X161361644Y-100379919D01*
X161197964Y-100707278D01*
X160952444Y-100666360D01*
X160829682Y-100584520D01*
X160788760Y-100789121D01*
X160543242Y-100789121D01*
X160543242Y-100461759D01*
X159683925Y-99970720D01*
X159602083Y-99970720D01*
X159315643Y-100502679D01*
X159315643Y-101525680D01*
X159126119Y-101525680D01*
X159029203Y-101157398D01*
X159070123Y-101075559D01*
X159122203Y-100502679D01*
X159151964Y-100175320D01*
X159111045Y-100134401D01*
X158251721Y-100134401D01*
X157924365Y-100257161D01*
X157828604Y-100329591D01*
X157740447Y-100401932D01*
X157659172Y-100474467D01*
X157584064Y-100547488D01*
X157514397Y-100621282D01*
X157449456Y-100696140D01*
X157388518Y-100772346D01*
X157330860Y-100850193D01*
X157275767Y-100929967D01*
X157222515Y-101011957D01*
X157118660Y-101183742D01*
X156901366Y-101566600D01*
X156492164Y-101566600D01*
X156614926Y-101402919D01*
X157024125Y-100502679D01*
X157146885Y-100379919D01*
X157924365Y-100011639D01*
X158006203Y-99929799D01*
X157772225Y-97270003D01*
X157556084Y-95919642D01*
X157597003Y-95837803D01*
X157474243Y-95346763D01*
X157474243Y-94978481D01*
X157392404Y-94855723D01*
X157269645Y-94814801D01*
X157269645Y-94732962D01*
X156574005Y-94241923D01*
X156533084Y-94201001D01*
X156164805Y-93587202D01*
X156082963Y-92686964D01*
X156574005Y-92073165D01*
X156983204Y-91991322D01*
X157065045Y-91500283D01*
X157187805Y-91336605D01*
X157187805Y-91132003D01*
X157269645Y-91050163D01*
X157515164Y-91009244D01*
X157597003Y-91009244D01*
X158210803Y-91172924D01*
X158660922Y-91213844D01*
X158743382Y-91105096D01*
X158838556Y-90994458D01*
X158945164Y-90883112D01*
X159061928Y-90772222D01*
X159187563Y-90662965D01*
X159320790Y-90556517D01*
X159460324Y-90454043D01*
X159604891Y-90356722D01*
X159753208Y-90265731D01*
X159903989Y-90182234D01*
X160055957Y-90107406D01*
X160207832Y-90042427D01*
X160358331Y-89988461D01*
X160432663Y-89965979D01*
X160506172Y-89946689D01*
X160578696Y-89930740D01*
X160650077Y-89918280D01*
X160720153Y-89909451D01*
X160788760Y-89904404D01*
X160952444Y-89781645D01*
X162998442Y-89619602D01*
X164185123Y-89781645D01*
G37*
D11*
X132471550Y-56089286D02*
X132435835Y-56196429D01*
X132435835Y-56196429D02*
X132435835Y-56375000D01*
X132435835Y-56375000D02*
X132471550Y-56446429D01*
X132471550Y-56446429D02*
X132507264Y-56482143D01*
X132507264Y-56482143D02*
X132578692Y-56517857D01*
X132578692Y-56517857D02*
X132650121Y-56517857D01*
X132650121Y-56517857D02*
X132721550Y-56482143D01*
X132721550Y-56482143D02*
X132757264Y-56446429D01*
X132757264Y-56446429D02*
X132792978Y-56375000D01*
X132792978Y-56375000D02*
X132828692Y-56232143D01*
X132828692Y-56232143D02*
X132864407Y-56160714D01*
X132864407Y-56160714D02*
X132900121Y-56125000D01*
X132900121Y-56125000D02*
X132971550Y-56089286D01*
X132971550Y-56089286D02*
X133042978Y-56089286D01*
X133042978Y-56089286D02*
X133114407Y-56125000D01*
X133114407Y-56125000D02*
X133150121Y-56160714D01*
X133150121Y-56160714D02*
X133185835Y-56232143D01*
X133185835Y-56232143D02*
X133185835Y-56410714D01*
X133185835Y-56410714D02*
X133150121Y-56517857D01*
X132435835Y-56839286D02*
X133185835Y-56839286D01*
X133185835Y-56839286D02*
X133185835Y-57017857D01*
X133185835Y-57017857D02*
X133150121Y-57125000D01*
X133150121Y-57125000D02*
X133078692Y-57196429D01*
X133078692Y-57196429D02*
X133007264Y-57232143D01*
X133007264Y-57232143D02*
X132864407Y-57267857D01*
X132864407Y-57267857D02*
X132757264Y-57267857D01*
X132757264Y-57267857D02*
X132614407Y-57232143D01*
X132614407Y-57232143D02*
X132542978Y-57196429D01*
X132542978Y-57196429D02*
X132471550Y-57125000D01*
X132471550Y-57125000D02*
X132435835Y-57017857D01*
X132435835Y-57017857D02*
X132435835Y-56839286D01*
X132650121Y-57553572D02*
X132650121Y-57910715D01*
X132435835Y-57482143D02*
X133185835Y-57732143D01*
X133185835Y-57732143D02*
X132435835Y-57982143D01*
X133225121Y-48853571D02*
X133260835Y-48782143D01*
X133260835Y-48782143D02*
X133260835Y-48675000D01*
X133260835Y-48675000D02*
X133225121Y-48567857D01*
X133225121Y-48567857D02*
X133153692Y-48496428D01*
X133153692Y-48496428D02*
X133082264Y-48460714D01*
X133082264Y-48460714D02*
X132939407Y-48425000D01*
X132939407Y-48425000D02*
X132832264Y-48425000D01*
X132832264Y-48425000D02*
X132689407Y-48460714D01*
X132689407Y-48460714D02*
X132617978Y-48496428D01*
X132617978Y-48496428D02*
X132546550Y-48567857D01*
X132546550Y-48567857D02*
X132510835Y-48675000D01*
X132510835Y-48675000D02*
X132510835Y-48746428D01*
X132510835Y-48746428D02*
X132546550Y-48853571D01*
X132546550Y-48853571D02*
X132582264Y-48889285D01*
X132582264Y-48889285D02*
X132832264Y-48889285D01*
X132832264Y-48889285D02*
X132832264Y-48746428D01*
X132510835Y-49210714D02*
X133260835Y-49210714D01*
X133260835Y-49210714D02*
X132510835Y-49639285D01*
X132510835Y-49639285D02*
X133260835Y-49639285D01*
X132510835Y-49996428D02*
X133260835Y-49996428D01*
X133260835Y-49996428D02*
X133260835Y-50174999D01*
X133260835Y-50174999D02*
X133225121Y-50282142D01*
X133225121Y-50282142D02*
X133153692Y-50353571D01*
X133153692Y-50353571D02*
X133082264Y-50389285D01*
X133082264Y-50389285D02*
X132939407Y-50424999D01*
X132939407Y-50424999D02*
X132832264Y-50424999D01*
X132832264Y-50424999D02*
X132689407Y-50389285D01*
X132689407Y-50389285D02*
X132617978Y-50353571D01*
X132617978Y-50353571D02*
X132546550Y-50282142D01*
X132546550Y-50282142D02*
X132510835Y-50174999D01*
X132510835Y-50174999D02*
X132510835Y-49996428D01*
X133260835Y-50950000D02*
X132510835Y-51200000D01*
X132510835Y-51200000D02*
X133260835Y-51450000D01*
X132582264Y-52128571D02*
X132546550Y-52092857D01*
X132546550Y-52092857D02*
X132510835Y-51985714D01*
X132510835Y-51985714D02*
X132510835Y-51914286D01*
X132510835Y-51914286D02*
X132546550Y-51807143D01*
X132546550Y-51807143D02*
X132617978Y-51735714D01*
X132617978Y-51735714D02*
X132689407Y-51700000D01*
X132689407Y-51700000D02*
X132832264Y-51664286D01*
X132832264Y-51664286D02*
X132939407Y-51664286D01*
X132939407Y-51664286D02*
X133082264Y-51700000D01*
X133082264Y-51700000D02*
X133153692Y-51735714D01*
X133153692Y-51735714D02*
X133225121Y-51807143D01*
X133225121Y-51807143D02*
X133260835Y-51914286D01*
X133260835Y-51914286D02*
X133260835Y-51985714D01*
X133260835Y-51985714D02*
X133225121Y-52092857D01*
X133225121Y-52092857D02*
X133189407Y-52128571D01*
X132582264Y-52878571D02*
X132546550Y-52842857D01*
X132546550Y-52842857D02*
X132510835Y-52735714D01*
X132510835Y-52735714D02*
X132510835Y-52664286D01*
X132510835Y-52664286D02*
X132546550Y-52557143D01*
X132546550Y-52557143D02*
X132617978Y-52485714D01*
X132617978Y-52485714D02*
X132689407Y-52450000D01*
X132689407Y-52450000D02*
X132832264Y-52414286D01*
X132832264Y-52414286D02*
X132939407Y-52414286D01*
X132939407Y-52414286D02*
X133082264Y-52450000D01*
X133082264Y-52450000D02*
X133153692Y-52485714D01*
X133153692Y-52485714D02*
X133225121Y-52557143D01*
X133225121Y-52557143D02*
X133260835Y-52664286D01*
X133260835Y-52664286D02*
X133260835Y-52735714D01*
X133260835Y-52735714D02*
X133225121Y-52842857D01*
X133225121Y-52842857D02*
X133189407Y-52878571D01*
X132546550Y-53632143D02*
X132510835Y-53739286D01*
X132510835Y-53739286D02*
X132510835Y-53917857D01*
X132510835Y-53917857D02*
X132546550Y-53989286D01*
X132546550Y-53989286D02*
X132582264Y-54025000D01*
X132582264Y-54025000D02*
X132653692Y-54060714D01*
X132653692Y-54060714D02*
X132725121Y-54060714D01*
X132725121Y-54060714D02*
X132796550Y-54025000D01*
X132796550Y-54025000D02*
X132832264Y-53989286D01*
X132832264Y-53989286D02*
X132867978Y-53917857D01*
X132867978Y-53917857D02*
X132903692Y-53775000D01*
X132903692Y-53775000D02*
X132939407Y-53703571D01*
X132939407Y-53703571D02*
X132975121Y-53667857D01*
X132975121Y-53667857D02*
X133046550Y-53632143D01*
X133046550Y-53632143D02*
X133117978Y-53632143D01*
X133117978Y-53632143D02*
X133189407Y-53667857D01*
X133189407Y-53667857D02*
X133225121Y-53703571D01*
X133225121Y-53703571D02*
X133260835Y-53775000D01*
X133260835Y-53775000D02*
X133260835Y-53953571D01*
X133260835Y-53953571D02*
X133225121Y-54060714D01*
X132582264Y-54810714D02*
X132546550Y-54775000D01*
X132546550Y-54775000D02*
X132510835Y-54667857D01*
X132510835Y-54667857D02*
X132510835Y-54596429D01*
X132510835Y-54596429D02*
X132546550Y-54489286D01*
X132546550Y-54489286D02*
X132617978Y-54417857D01*
X132617978Y-54417857D02*
X132689407Y-54382143D01*
X132689407Y-54382143D02*
X132832264Y-54346429D01*
X132832264Y-54346429D02*
X132939407Y-54346429D01*
X132939407Y-54346429D02*
X133082264Y-54382143D01*
X133082264Y-54382143D02*
X133153692Y-54417857D01*
X133153692Y-54417857D02*
X133225121Y-54489286D01*
X133225121Y-54489286D02*
X133260835Y-54596429D01*
X133260835Y-54596429D02*
X133260835Y-54667857D01*
X133260835Y-54667857D02*
X133225121Y-54775000D01*
X133225121Y-54775000D02*
X133189407Y-54810714D01*
X132510835Y-55489286D02*
X132510835Y-55132143D01*
X132510835Y-55132143D02*
X133260835Y-55132143D01*
X114071428Y-52604819D02*
X114261904Y-52604819D01*
X114261904Y-52604819D02*
X114357142Y-52652438D01*
X114357142Y-52652438D02*
X114452380Y-52747676D01*
X114452380Y-52747676D02*
X114499999Y-52938152D01*
X114499999Y-52938152D02*
X114499999Y-53271485D01*
X114499999Y-53271485D02*
X114452380Y-53461961D01*
X114452380Y-53461961D02*
X114357142Y-53557200D01*
X114357142Y-53557200D02*
X114261904Y-53604819D01*
X114261904Y-53604819D02*
X114071428Y-53604819D01*
X114071428Y-53604819D02*
X113976190Y-53557200D01*
X113976190Y-53557200D02*
X113880952Y-53461961D01*
X113880952Y-53461961D02*
X113833333Y-53271485D01*
X113833333Y-53271485D02*
X113833333Y-52938152D01*
X113833333Y-52938152D02*
X113880952Y-52747676D01*
X113880952Y-52747676D02*
X113976190Y-52652438D01*
X113976190Y-52652438D02*
X114071428Y-52604819D01*
X115404761Y-53604819D02*
X114928571Y-53604819D01*
X114928571Y-53604819D02*
X114928571Y-52604819D01*
X115738095Y-53081009D02*
X116071428Y-53081009D01*
X116214285Y-53604819D02*
X115738095Y-53604819D01*
X115738095Y-53604819D02*
X115738095Y-52604819D01*
X115738095Y-52604819D02*
X116214285Y-52604819D01*
X116642857Y-53604819D02*
X116642857Y-52604819D01*
X116642857Y-52604819D02*
X116880952Y-52604819D01*
X116880952Y-52604819D02*
X117023809Y-52652438D01*
X117023809Y-52652438D02*
X117119047Y-52747676D01*
X117119047Y-52747676D02*
X117166666Y-52842914D01*
X117166666Y-52842914D02*
X117214285Y-53033390D01*
X117214285Y-53033390D02*
X117214285Y-53176247D01*
X117214285Y-53176247D02*
X117166666Y-53366723D01*
X117166666Y-53366723D02*
X117119047Y-53461961D01*
X117119047Y-53461961D02*
X117023809Y-53557200D01*
X117023809Y-53557200D02*
X116880952Y-53604819D01*
X116880952Y-53604819D02*
X116642857Y-53604819D01*
X118404762Y-53604819D02*
X118404762Y-52604819D01*
X118404762Y-52604819D02*
X118785714Y-52604819D01*
X118785714Y-52604819D02*
X118880952Y-52652438D01*
X118880952Y-52652438D02*
X118928571Y-52700057D01*
X118928571Y-52700057D02*
X118976190Y-52795295D01*
X118976190Y-52795295D02*
X118976190Y-52938152D01*
X118976190Y-52938152D02*
X118928571Y-53033390D01*
X118928571Y-53033390D02*
X118880952Y-53081009D01*
X118880952Y-53081009D02*
X118785714Y-53128628D01*
X118785714Y-53128628D02*
X118404762Y-53128628D01*
X119833333Y-53604819D02*
X119833333Y-53081009D01*
X119833333Y-53081009D02*
X119785714Y-52985771D01*
X119785714Y-52985771D02*
X119690476Y-52938152D01*
X119690476Y-52938152D02*
X119500000Y-52938152D01*
X119500000Y-52938152D02*
X119404762Y-52985771D01*
X119833333Y-53557200D02*
X119738095Y-53604819D01*
X119738095Y-53604819D02*
X119500000Y-53604819D01*
X119500000Y-53604819D02*
X119404762Y-53557200D01*
X119404762Y-53557200D02*
X119357143Y-53461961D01*
X119357143Y-53461961D02*
X119357143Y-53366723D01*
X119357143Y-53366723D02*
X119404762Y-53271485D01*
X119404762Y-53271485D02*
X119500000Y-53223866D01*
X119500000Y-53223866D02*
X119738095Y-53223866D01*
X119738095Y-53223866D02*
X119833333Y-53176247D01*
X120309524Y-52938152D02*
X120309524Y-53604819D01*
X120309524Y-53033390D02*
X120357143Y-52985771D01*
X120357143Y-52985771D02*
X120452381Y-52938152D01*
X120452381Y-52938152D02*
X120595238Y-52938152D01*
X120595238Y-52938152D02*
X120690476Y-52985771D01*
X120690476Y-52985771D02*
X120738095Y-53081009D01*
X120738095Y-53081009D02*
X120738095Y-53604819D01*
X121595238Y-53557200D02*
X121500000Y-53604819D01*
X121500000Y-53604819D02*
X121309524Y-53604819D01*
X121309524Y-53604819D02*
X121214286Y-53557200D01*
X121214286Y-53557200D02*
X121166667Y-53461961D01*
X121166667Y-53461961D02*
X121166667Y-53081009D01*
X121166667Y-53081009D02*
X121214286Y-52985771D01*
X121214286Y-52985771D02*
X121309524Y-52938152D01*
X121309524Y-52938152D02*
X121500000Y-52938152D01*
X121500000Y-52938152D02*
X121595238Y-52985771D01*
X121595238Y-52985771D02*
X121642857Y-53081009D01*
X121642857Y-53081009D02*
X121642857Y-53176247D01*
X121642857Y-53176247D02*
X121166667Y-53271485D01*
X122214286Y-53604819D02*
X122119048Y-53557200D01*
X122119048Y-53557200D02*
X122071429Y-53461961D01*
X122071429Y-53461961D02*
X122071429Y-52604819D01*
X135066666Y-68386042D02*
X135209523Y-68433661D01*
X135209523Y-68433661D02*
X135447618Y-68433661D01*
X135447618Y-68433661D02*
X135542856Y-68386042D01*
X135542856Y-68386042D02*
X135590475Y-68338422D01*
X135590475Y-68338422D02*
X135638094Y-68243184D01*
X135638094Y-68243184D02*
X135638094Y-68147946D01*
X135638094Y-68147946D02*
X135590475Y-68052708D01*
X135590475Y-68052708D02*
X135542856Y-68005089D01*
X135542856Y-68005089D02*
X135447618Y-67957470D01*
X135447618Y-67957470D02*
X135257142Y-67909851D01*
X135257142Y-67909851D02*
X135161904Y-67862232D01*
X135161904Y-67862232D02*
X135114285Y-67814613D01*
X135114285Y-67814613D02*
X135066666Y-67719375D01*
X135066666Y-67719375D02*
X135066666Y-67624137D01*
X135066666Y-67624137D02*
X135114285Y-67528899D01*
X135114285Y-67528899D02*
X135161904Y-67481280D01*
X135161904Y-67481280D02*
X135257142Y-67433661D01*
X135257142Y-67433661D02*
X135495237Y-67433661D01*
X135495237Y-67433661D02*
X135638094Y-67481280D01*
X135971428Y-67433661D02*
X136209523Y-68433661D01*
X136209523Y-68433661D02*
X136399999Y-67719375D01*
X136399999Y-67719375D02*
X136590475Y-68433661D01*
X136590475Y-68433661D02*
X136828571Y-67433661D01*
X137114285Y-67433661D02*
X137733332Y-67433661D01*
X137733332Y-67433661D02*
X137399999Y-67814613D01*
X137399999Y-67814613D02*
X137542856Y-67814613D01*
X137542856Y-67814613D02*
X137638094Y-67862232D01*
X137638094Y-67862232D02*
X137685713Y-67909851D01*
X137685713Y-67909851D02*
X137733332Y-68005089D01*
X137733332Y-68005089D02*
X137733332Y-68243184D01*
X137733332Y-68243184D02*
X137685713Y-68338422D01*
X137685713Y-68338422D02*
X137638094Y-68386042D01*
X137638094Y-68386042D02*
X137542856Y-68433661D01*
X137542856Y-68433661D02*
X137257142Y-68433661D01*
X137257142Y-68433661D02*
X137161904Y-68386042D01*
X137161904Y-68386042D02*
X137114285Y-68338422D01*
D12*
X117361905Y-120852219D02*
X117361905Y-119852219D01*
X117361905Y-119852219D02*
X117600000Y-119852219D01*
X117600000Y-119852219D02*
X117742857Y-119899838D01*
X117742857Y-119899838D02*
X117838095Y-119995076D01*
X117838095Y-119995076D02*
X117885714Y-120090314D01*
X117885714Y-120090314D02*
X117933333Y-120280790D01*
X117933333Y-120280790D02*
X117933333Y-120423647D01*
X117933333Y-120423647D02*
X117885714Y-120614123D01*
X117885714Y-120614123D02*
X117838095Y-120709361D01*
X117838095Y-120709361D02*
X117742857Y-120804600D01*
X117742857Y-120804600D02*
X117600000Y-120852219D01*
X117600000Y-120852219D02*
X117361905Y-120852219D01*
X118504762Y-120280790D02*
X118409524Y-120233171D01*
X118409524Y-120233171D02*
X118361905Y-120185552D01*
X118361905Y-120185552D02*
X118314286Y-120090314D01*
X118314286Y-120090314D02*
X118314286Y-120042695D01*
X118314286Y-120042695D02*
X118361905Y-119947457D01*
X118361905Y-119947457D02*
X118409524Y-119899838D01*
X118409524Y-119899838D02*
X118504762Y-119852219D01*
X118504762Y-119852219D02*
X118695238Y-119852219D01*
X118695238Y-119852219D02*
X118790476Y-119899838D01*
X118790476Y-119899838D02*
X118838095Y-119947457D01*
X118838095Y-119947457D02*
X118885714Y-120042695D01*
X118885714Y-120042695D02*
X118885714Y-120090314D01*
X118885714Y-120090314D02*
X118838095Y-120185552D01*
X118838095Y-120185552D02*
X118790476Y-120233171D01*
X118790476Y-120233171D02*
X118695238Y-120280790D01*
X118695238Y-120280790D02*
X118504762Y-120280790D01*
X118504762Y-120280790D02*
X118409524Y-120328409D01*
X118409524Y-120328409D02*
X118361905Y-120376028D01*
X118361905Y-120376028D02*
X118314286Y-120471266D01*
X118314286Y-120471266D02*
X118314286Y-120661742D01*
X118314286Y-120661742D02*
X118361905Y-120756980D01*
X118361905Y-120756980D02*
X118409524Y-120804600D01*
X118409524Y-120804600D02*
X118504762Y-120852219D01*
X118504762Y-120852219D02*
X118695238Y-120852219D01*
X118695238Y-120852219D02*
X118790476Y-120804600D01*
X118790476Y-120804600D02*
X118838095Y-120756980D01*
X118838095Y-120756980D02*
X118885714Y-120661742D01*
X118885714Y-120661742D02*
X118885714Y-120471266D01*
X118885714Y-120471266D02*
X118838095Y-120376028D01*
X118838095Y-120376028D02*
X118790476Y-120328409D01*
X118790476Y-120328409D02*
X118695238Y-120280790D01*
D11*
X135066666Y-106386042D02*
X135209523Y-106433661D01*
X135209523Y-106433661D02*
X135447618Y-106433661D01*
X135447618Y-106433661D02*
X135542856Y-106386042D01*
X135542856Y-106386042D02*
X135590475Y-106338422D01*
X135590475Y-106338422D02*
X135638094Y-106243184D01*
X135638094Y-106243184D02*
X135638094Y-106147946D01*
X135638094Y-106147946D02*
X135590475Y-106052708D01*
X135590475Y-106052708D02*
X135542856Y-106005089D01*
X135542856Y-106005089D02*
X135447618Y-105957470D01*
X135447618Y-105957470D02*
X135257142Y-105909851D01*
X135257142Y-105909851D02*
X135161904Y-105862232D01*
X135161904Y-105862232D02*
X135114285Y-105814613D01*
X135114285Y-105814613D02*
X135066666Y-105719375D01*
X135066666Y-105719375D02*
X135066666Y-105624137D01*
X135066666Y-105624137D02*
X135114285Y-105528899D01*
X135114285Y-105528899D02*
X135161904Y-105481280D01*
X135161904Y-105481280D02*
X135257142Y-105433661D01*
X135257142Y-105433661D02*
X135495237Y-105433661D01*
X135495237Y-105433661D02*
X135638094Y-105481280D01*
X135971428Y-105433661D02*
X136209523Y-106433661D01*
X136209523Y-106433661D02*
X136399999Y-105719375D01*
X136399999Y-105719375D02*
X136590475Y-106433661D01*
X136590475Y-106433661D02*
X136828571Y-105433661D01*
X137257142Y-106433661D02*
X137447618Y-106433661D01*
X137447618Y-106433661D02*
X137542856Y-106386042D01*
X137542856Y-106386042D02*
X137590475Y-106338422D01*
X137590475Y-106338422D02*
X137685713Y-106195565D01*
X137685713Y-106195565D02*
X137733332Y-106005089D01*
X137733332Y-106005089D02*
X137733332Y-105624137D01*
X137733332Y-105624137D02*
X137685713Y-105528899D01*
X137685713Y-105528899D02*
X137638094Y-105481280D01*
X137638094Y-105481280D02*
X137542856Y-105433661D01*
X137542856Y-105433661D02*
X137352380Y-105433661D01*
X137352380Y-105433661D02*
X137257142Y-105481280D01*
X137257142Y-105481280D02*
X137209523Y-105528899D01*
X137209523Y-105528899D02*
X137161904Y-105624137D01*
X137161904Y-105624137D02*
X137161904Y-105862232D01*
X137161904Y-105862232D02*
X137209523Y-105957470D01*
X137209523Y-105957470D02*
X137257142Y-106005089D01*
X137257142Y-106005089D02*
X137352380Y-106052708D01*
X137352380Y-106052708D02*
X137542856Y-106052708D01*
X137542856Y-106052708D02*
X137638094Y-106005089D01*
X137638094Y-106005089D02*
X137685713Y-105957470D01*
X137685713Y-105957470D02*
X137733332Y-105862232D01*
X116066666Y-68386042D02*
X116209523Y-68433661D01*
X116209523Y-68433661D02*
X116447618Y-68433661D01*
X116447618Y-68433661D02*
X116542856Y-68386042D01*
X116542856Y-68386042D02*
X116590475Y-68338422D01*
X116590475Y-68338422D02*
X116638094Y-68243184D01*
X116638094Y-68243184D02*
X116638094Y-68147946D01*
X116638094Y-68147946D02*
X116590475Y-68052708D01*
X116590475Y-68052708D02*
X116542856Y-68005089D01*
X116542856Y-68005089D02*
X116447618Y-67957470D01*
X116447618Y-67957470D02*
X116257142Y-67909851D01*
X116257142Y-67909851D02*
X116161904Y-67862232D01*
X116161904Y-67862232D02*
X116114285Y-67814613D01*
X116114285Y-67814613D02*
X116066666Y-67719375D01*
X116066666Y-67719375D02*
X116066666Y-67624137D01*
X116066666Y-67624137D02*
X116114285Y-67528899D01*
X116114285Y-67528899D02*
X116161904Y-67481280D01*
X116161904Y-67481280D02*
X116257142Y-67433661D01*
X116257142Y-67433661D02*
X116495237Y-67433661D01*
X116495237Y-67433661D02*
X116638094Y-67481280D01*
X116971428Y-67433661D02*
X117209523Y-68433661D01*
X117209523Y-68433661D02*
X117399999Y-67719375D01*
X117399999Y-67719375D02*
X117590475Y-68433661D01*
X117590475Y-68433661D02*
X117828571Y-67433661D01*
X118161904Y-67528899D02*
X118209523Y-67481280D01*
X118209523Y-67481280D02*
X118304761Y-67433661D01*
X118304761Y-67433661D02*
X118542856Y-67433661D01*
X118542856Y-67433661D02*
X118638094Y-67481280D01*
X118638094Y-67481280D02*
X118685713Y-67528899D01*
X118685713Y-67528899D02*
X118733332Y-67624137D01*
X118733332Y-67624137D02*
X118733332Y-67719375D01*
X118733332Y-67719375D02*
X118685713Y-67862232D01*
X118685713Y-67862232D02*
X118114285Y-68433661D01*
X118114285Y-68433661D02*
X118733332Y-68433661D01*
X153490476Y-70707200D02*
X153633333Y-70754819D01*
X153633333Y-70754819D02*
X153871428Y-70754819D01*
X153871428Y-70754819D02*
X153966666Y-70707200D01*
X153966666Y-70707200D02*
X154014285Y-70659580D01*
X154014285Y-70659580D02*
X154061904Y-70564342D01*
X154061904Y-70564342D02*
X154061904Y-70469104D01*
X154061904Y-70469104D02*
X154014285Y-70373866D01*
X154014285Y-70373866D02*
X153966666Y-70326247D01*
X153966666Y-70326247D02*
X153871428Y-70278628D01*
X153871428Y-70278628D02*
X153680952Y-70231009D01*
X153680952Y-70231009D02*
X153585714Y-70183390D01*
X153585714Y-70183390D02*
X153538095Y-70135771D01*
X153538095Y-70135771D02*
X153490476Y-70040533D01*
X153490476Y-70040533D02*
X153490476Y-69945295D01*
X153490476Y-69945295D02*
X153538095Y-69850057D01*
X153538095Y-69850057D02*
X153585714Y-69802438D01*
X153585714Y-69802438D02*
X153680952Y-69754819D01*
X153680952Y-69754819D02*
X153919047Y-69754819D01*
X153919047Y-69754819D02*
X154061904Y-69802438D01*
X154395238Y-69754819D02*
X154633333Y-70754819D01*
X154633333Y-70754819D02*
X154823809Y-70040533D01*
X154823809Y-70040533D02*
X155014285Y-70754819D01*
X155014285Y-70754819D02*
X155252381Y-69754819D01*
X156157142Y-70754819D02*
X155585714Y-70754819D01*
X155871428Y-70754819D02*
X155871428Y-69754819D01*
X155871428Y-69754819D02*
X155776190Y-69897676D01*
X155776190Y-69897676D02*
X155680952Y-69992914D01*
X155680952Y-69992914D02*
X155585714Y-70040533D01*
X156776190Y-69754819D02*
X156871428Y-69754819D01*
X156871428Y-69754819D02*
X156966666Y-69802438D01*
X156966666Y-69802438D02*
X157014285Y-69850057D01*
X157014285Y-69850057D02*
X157061904Y-69945295D01*
X157061904Y-69945295D02*
X157109523Y-70135771D01*
X157109523Y-70135771D02*
X157109523Y-70373866D01*
X157109523Y-70373866D02*
X157061904Y-70564342D01*
X157061904Y-70564342D02*
X157014285Y-70659580D01*
X157014285Y-70659580D02*
X156966666Y-70707200D01*
X156966666Y-70707200D02*
X156871428Y-70754819D01*
X156871428Y-70754819D02*
X156776190Y-70754819D01*
X156776190Y-70754819D02*
X156680952Y-70707200D01*
X156680952Y-70707200D02*
X156633333Y-70659580D01*
X156633333Y-70659580D02*
X156585714Y-70564342D01*
X156585714Y-70564342D02*
X156538095Y-70373866D01*
X156538095Y-70373866D02*
X156538095Y-70135771D01*
X156538095Y-70135771D02*
X156585714Y-69945295D01*
X156585714Y-69945295D02*
X156633333Y-69850057D01*
X156633333Y-69850057D02*
X156680952Y-69802438D01*
X156680952Y-69802438D02*
X156776190Y-69754819D01*
D12*
X135885714Y-120852219D02*
X135885714Y-119852219D01*
X135885714Y-119852219D02*
X136123809Y-119852219D01*
X136123809Y-119852219D02*
X136266666Y-119899838D01*
X136266666Y-119899838D02*
X136361904Y-119995076D01*
X136361904Y-119995076D02*
X136409523Y-120090314D01*
X136409523Y-120090314D02*
X136457142Y-120280790D01*
X136457142Y-120280790D02*
X136457142Y-120423647D01*
X136457142Y-120423647D02*
X136409523Y-120614123D01*
X136409523Y-120614123D02*
X136361904Y-120709361D01*
X136361904Y-120709361D02*
X136266666Y-120804600D01*
X136266666Y-120804600D02*
X136123809Y-120852219D01*
X136123809Y-120852219D02*
X135885714Y-120852219D01*
X137409523Y-120852219D02*
X136838095Y-120852219D01*
X137123809Y-120852219D02*
X137123809Y-119852219D01*
X137123809Y-119852219D02*
X137028571Y-119995076D01*
X137028571Y-119995076D02*
X136933333Y-120090314D01*
X136933333Y-120090314D02*
X136838095Y-120137933D01*
X138028571Y-119852219D02*
X138123809Y-119852219D01*
X138123809Y-119852219D02*
X138219047Y-119899838D01*
X138219047Y-119899838D02*
X138266666Y-119947457D01*
X138266666Y-119947457D02*
X138314285Y-120042695D01*
X138314285Y-120042695D02*
X138361904Y-120233171D01*
X138361904Y-120233171D02*
X138361904Y-120471266D01*
X138361904Y-120471266D02*
X138314285Y-120661742D01*
X138314285Y-120661742D02*
X138266666Y-120756980D01*
X138266666Y-120756980D02*
X138219047Y-120804600D01*
X138219047Y-120804600D02*
X138123809Y-120852219D01*
X138123809Y-120852219D02*
X138028571Y-120852219D01*
X138028571Y-120852219D02*
X137933333Y-120804600D01*
X137933333Y-120804600D02*
X137885714Y-120756980D01*
X137885714Y-120756980D02*
X137838095Y-120661742D01*
X137838095Y-120661742D02*
X137790476Y-120471266D01*
X137790476Y-120471266D02*
X137790476Y-120233171D01*
X137790476Y-120233171D02*
X137838095Y-120042695D01*
X137838095Y-120042695D02*
X137885714Y-119947457D01*
X137885714Y-119947457D02*
X137933333Y-119899838D01*
X137933333Y-119899838D02*
X138028571Y-119852219D01*
X136261904Y-63852219D02*
X136261904Y-62852219D01*
X136261904Y-62852219D02*
X136499999Y-62852219D01*
X136499999Y-62852219D02*
X136642856Y-62899838D01*
X136642856Y-62899838D02*
X136738094Y-62995076D01*
X136738094Y-62995076D02*
X136785713Y-63090314D01*
X136785713Y-63090314D02*
X136833332Y-63280790D01*
X136833332Y-63280790D02*
X136833332Y-63423647D01*
X136833332Y-63423647D02*
X136785713Y-63614123D01*
X136785713Y-63614123D02*
X136738094Y-63709361D01*
X136738094Y-63709361D02*
X136642856Y-63804600D01*
X136642856Y-63804600D02*
X136499999Y-63852219D01*
X136499999Y-63852219D02*
X136261904Y-63852219D01*
X137738094Y-62852219D02*
X137261904Y-62852219D01*
X137261904Y-62852219D02*
X137214285Y-63328409D01*
X137214285Y-63328409D02*
X137261904Y-63280790D01*
X137261904Y-63280790D02*
X137357142Y-63233171D01*
X137357142Y-63233171D02*
X137595237Y-63233171D01*
X137595237Y-63233171D02*
X137690475Y-63280790D01*
X137690475Y-63280790D02*
X137738094Y-63328409D01*
X137738094Y-63328409D02*
X137785713Y-63423647D01*
X137785713Y-63423647D02*
X137785713Y-63661742D01*
X137785713Y-63661742D02*
X137738094Y-63756980D01*
X137738094Y-63756980D02*
X137690475Y-63804600D01*
X137690475Y-63804600D02*
X137595237Y-63852219D01*
X137595237Y-63852219D02*
X137357142Y-63852219D01*
X137357142Y-63852219D02*
X137261904Y-63804600D01*
X137261904Y-63804600D02*
X137214285Y-63756980D01*
D11*
X135166666Y-46454819D02*
X135166666Y-47169104D01*
X135166666Y-47169104D02*
X135119047Y-47311961D01*
X135119047Y-47311961D02*
X135023809Y-47407200D01*
X135023809Y-47407200D02*
X134880952Y-47454819D01*
X134880952Y-47454819D02*
X134785714Y-47454819D01*
X135595238Y-46550057D02*
X135642857Y-46502438D01*
X135642857Y-46502438D02*
X135738095Y-46454819D01*
X135738095Y-46454819D02*
X135976190Y-46454819D01*
X135976190Y-46454819D02*
X136071428Y-46502438D01*
X136071428Y-46502438D02*
X136119047Y-46550057D01*
X136119047Y-46550057D02*
X136166666Y-46645295D01*
X136166666Y-46645295D02*
X136166666Y-46740533D01*
X136166666Y-46740533D02*
X136119047Y-46883390D01*
X136119047Y-46883390D02*
X135547619Y-47454819D01*
X135547619Y-47454819D02*
X136166666Y-47454819D01*
X97026666Y-87386042D02*
X97169523Y-87433661D01*
X97169523Y-87433661D02*
X97407618Y-87433661D01*
X97407618Y-87433661D02*
X97502856Y-87386042D01*
X97502856Y-87386042D02*
X97550475Y-87338422D01*
X97550475Y-87338422D02*
X97598094Y-87243184D01*
X97598094Y-87243184D02*
X97598094Y-87147946D01*
X97598094Y-87147946D02*
X97550475Y-87052708D01*
X97550475Y-87052708D02*
X97502856Y-87005089D01*
X97502856Y-87005089D02*
X97407618Y-86957470D01*
X97407618Y-86957470D02*
X97217142Y-86909851D01*
X97217142Y-86909851D02*
X97121904Y-86862232D01*
X97121904Y-86862232D02*
X97074285Y-86814613D01*
X97074285Y-86814613D02*
X97026666Y-86719375D01*
X97026666Y-86719375D02*
X97026666Y-86624137D01*
X97026666Y-86624137D02*
X97074285Y-86528899D01*
X97074285Y-86528899D02*
X97121904Y-86481280D01*
X97121904Y-86481280D02*
X97217142Y-86433661D01*
X97217142Y-86433661D02*
X97455237Y-86433661D01*
X97455237Y-86433661D02*
X97598094Y-86481280D01*
X97931428Y-86433661D02*
X98169523Y-87433661D01*
X98169523Y-87433661D02*
X98359999Y-86719375D01*
X98359999Y-86719375D02*
X98550475Y-87433661D01*
X98550475Y-87433661D02*
X98788571Y-86433661D01*
X99598094Y-86766994D02*
X99598094Y-87433661D01*
X99359999Y-86386042D02*
X99121904Y-87100327D01*
X99121904Y-87100327D02*
X99740951Y-87100327D01*
D12*
X97885714Y-101852219D02*
X97885714Y-100852219D01*
X97885714Y-100852219D02*
X98123809Y-100852219D01*
X98123809Y-100852219D02*
X98266666Y-100899838D01*
X98266666Y-100899838D02*
X98361904Y-100995076D01*
X98361904Y-100995076D02*
X98409523Y-101090314D01*
X98409523Y-101090314D02*
X98457142Y-101280790D01*
X98457142Y-101280790D02*
X98457142Y-101423647D01*
X98457142Y-101423647D02*
X98409523Y-101614123D01*
X98409523Y-101614123D02*
X98361904Y-101709361D01*
X98361904Y-101709361D02*
X98266666Y-101804600D01*
X98266666Y-101804600D02*
X98123809Y-101852219D01*
X98123809Y-101852219D02*
X97885714Y-101852219D01*
X99409523Y-101852219D02*
X98838095Y-101852219D01*
X99123809Y-101852219D02*
X99123809Y-100852219D01*
X99123809Y-100852219D02*
X99028571Y-100995076D01*
X99028571Y-100995076D02*
X98933333Y-101090314D01*
X98933333Y-101090314D02*
X98838095Y-101137933D01*
X99742857Y-100852219D02*
X100361904Y-100852219D01*
X100361904Y-100852219D02*
X100028571Y-101233171D01*
X100028571Y-101233171D02*
X100171428Y-101233171D01*
X100171428Y-101233171D02*
X100266666Y-101280790D01*
X100266666Y-101280790D02*
X100314285Y-101328409D01*
X100314285Y-101328409D02*
X100361904Y-101423647D01*
X100361904Y-101423647D02*
X100361904Y-101661742D01*
X100361904Y-101661742D02*
X100314285Y-101756980D01*
X100314285Y-101756980D02*
X100266666Y-101804600D01*
X100266666Y-101804600D02*
X100171428Y-101852219D01*
X100171428Y-101852219D02*
X99885714Y-101852219D01*
X99885714Y-101852219D02*
X99790476Y-101804600D01*
X99790476Y-101804600D02*
X99742857Y-101756980D01*
X98361905Y-120852219D02*
X98361905Y-119852219D01*
X98361905Y-119852219D02*
X98600000Y-119852219D01*
X98600000Y-119852219D02*
X98742857Y-119899838D01*
X98742857Y-119899838D02*
X98838095Y-119995076D01*
X98838095Y-119995076D02*
X98885714Y-120090314D01*
X98885714Y-120090314D02*
X98933333Y-120280790D01*
X98933333Y-120280790D02*
X98933333Y-120423647D01*
X98933333Y-120423647D02*
X98885714Y-120614123D01*
X98885714Y-120614123D02*
X98838095Y-120709361D01*
X98838095Y-120709361D02*
X98742857Y-120804600D01*
X98742857Y-120804600D02*
X98600000Y-120852219D01*
X98600000Y-120852219D02*
X98361905Y-120852219D01*
X99790476Y-119852219D02*
X99600000Y-119852219D01*
X99600000Y-119852219D02*
X99504762Y-119899838D01*
X99504762Y-119899838D02*
X99457143Y-119947457D01*
X99457143Y-119947457D02*
X99361905Y-120090314D01*
X99361905Y-120090314D02*
X99314286Y-120280790D01*
X99314286Y-120280790D02*
X99314286Y-120661742D01*
X99314286Y-120661742D02*
X99361905Y-120756980D01*
X99361905Y-120756980D02*
X99409524Y-120804600D01*
X99409524Y-120804600D02*
X99504762Y-120852219D01*
X99504762Y-120852219D02*
X99695238Y-120852219D01*
X99695238Y-120852219D02*
X99790476Y-120804600D01*
X99790476Y-120804600D02*
X99838095Y-120756980D01*
X99838095Y-120756980D02*
X99885714Y-120661742D01*
X99885714Y-120661742D02*
X99885714Y-120423647D01*
X99885714Y-120423647D02*
X99838095Y-120328409D01*
X99838095Y-120328409D02*
X99790476Y-120280790D01*
X99790476Y-120280790D02*
X99695238Y-120233171D01*
X99695238Y-120233171D02*
X99504762Y-120233171D01*
X99504762Y-120233171D02*
X99409524Y-120280790D01*
X99409524Y-120280790D02*
X99361905Y-120328409D01*
X99361905Y-120328409D02*
X99314286Y-120423647D01*
D11*
X96986666Y-68386042D02*
X97129523Y-68433661D01*
X97129523Y-68433661D02*
X97367618Y-68433661D01*
X97367618Y-68433661D02*
X97462856Y-68386042D01*
X97462856Y-68386042D02*
X97510475Y-68338422D01*
X97510475Y-68338422D02*
X97558094Y-68243184D01*
X97558094Y-68243184D02*
X97558094Y-68147946D01*
X97558094Y-68147946D02*
X97510475Y-68052708D01*
X97510475Y-68052708D02*
X97462856Y-68005089D01*
X97462856Y-68005089D02*
X97367618Y-67957470D01*
X97367618Y-67957470D02*
X97177142Y-67909851D01*
X97177142Y-67909851D02*
X97081904Y-67862232D01*
X97081904Y-67862232D02*
X97034285Y-67814613D01*
X97034285Y-67814613D02*
X96986666Y-67719375D01*
X96986666Y-67719375D02*
X96986666Y-67624137D01*
X96986666Y-67624137D02*
X97034285Y-67528899D01*
X97034285Y-67528899D02*
X97081904Y-67481280D01*
X97081904Y-67481280D02*
X97177142Y-67433661D01*
X97177142Y-67433661D02*
X97415237Y-67433661D01*
X97415237Y-67433661D02*
X97558094Y-67481280D01*
X97891428Y-67433661D02*
X98129523Y-68433661D01*
X98129523Y-68433661D02*
X98319999Y-67719375D01*
X98319999Y-67719375D02*
X98510475Y-68433661D01*
X98510475Y-68433661D02*
X98748571Y-67433661D01*
X99653332Y-68433661D02*
X99081904Y-68433661D01*
X99367618Y-68433661D02*
X99367618Y-67433661D01*
X99367618Y-67433661D02*
X99272380Y-67576518D01*
X99272380Y-67576518D02*
X99177142Y-67671756D01*
X99177142Y-67671756D02*
X99081904Y-67719375D01*
D12*
X97885714Y-82852219D02*
X97885714Y-81852219D01*
X97885714Y-81852219D02*
X98123809Y-81852219D01*
X98123809Y-81852219D02*
X98266666Y-81899838D01*
X98266666Y-81899838D02*
X98361904Y-81995076D01*
X98361904Y-81995076D02*
X98409523Y-82090314D01*
X98409523Y-82090314D02*
X98457142Y-82280790D01*
X98457142Y-82280790D02*
X98457142Y-82423647D01*
X98457142Y-82423647D02*
X98409523Y-82614123D01*
X98409523Y-82614123D02*
X98361904Y-82709361D01*
X98361904Y-82709361D02*
X98266666Y-82804600D01*
X98266666Y-82804600D02*
X98123809Y-82852219D01*
X98123809Y-82852219D02*
X97885714Y-82852219D01*
X99409523Y-82852219D02*
X98838095Y-82852219D01*
X99123809Y-82852219D02*
X99123809Y-81852219D01*
X99123809Y-81852219D02*
X99028571Y-81995076D01*
X99028571Y-81995076D02*
X98933333Y-82090314D01*
X98933333Y-82090314D02*
X98838095Y-82137933D01*
X100361904Y-82852219D02*
X99790476Y-82852219D01*
X100076190Y-82852219D02*
X100076190Y-81852219D01*
X100076190Y-81852219D02*
X99980952Y-81995076D01*
X99980952Y-81995076D02*
X99885714Y-82090314D01*
X99885714Y-82090314D02*
X99790476Y-82137933D01*
D11*
X135026666Y-87386042D02*
X135169523Y-87433661D01*
X135169523Y-87433661D02*
X135407618Y-87433661D01*
X135407618Y-87433661D02*
X135502856Y-87386042D01*
X135502856Y-87386042D02*
X135550475Y-87338422D01*
X135550475Y-87338422D02*
X135598094Y-87243184D01*
X135598094Y-87243184D02*
X135598094Y-87147946D01*
X135598094Y-87147946D02*
X135550475Y-87052708D01*
X135550475Y-87052708D02*
X135502856Y-87005089D01*
X135502856Y-87005089D02*
X135407618Y-86957470D01*
X135407618Y-86957470D02*
X135217142Y-86909851D01*
X135217142Y-86909851D02*
X135121904Y-86862232D01*
X135121904Y-86862232D02*
X135074285Y-86814613D01*
X135074285Y-86814613D02*
X135026666Y-86719375D01*
X135026666Y-86719375D02*
X135026666Y-86624137D01*
X135026666Y-86624137D02*
X135074285Y-86528899D01*
X135074285Y-86528899D02*
X135121904Y-86481280D01*
X135121904Y-86481280D02*
X135217142Y-86433661D01*
X135217142Y-86433661D02*
X135455237Y-86433661D01*
X135455237Y-86433661D02*
X135598094Y-86481280D01*
X135931428Y-86433661D02*
X136169523Y-87433661D01*
X136169523Y-87433661D02*
X136359999Y-86719375D01*
X136359999Y-86719375D02*
X136550475Y-87433661D01*
X136550475Y-87433661D02*
X136788571Y-86433661D01*
X137598094Y-86433661D02*
X137407618Y-86433661D01*
X137407618Y-86433661D02*
X137312380Y-86481280D01*
X137312380Y-86481280D02*
X137264761Y-86528899D01*
X137264761Y-86528899D02*
X137169523Y-86671756D01*
X137169523Y-86671756D02*
X137121904Y-86862232D01*
X137121904Y-86862232D02*
X137121904Y-87243184D01*
X137121904Y-87243184D02*
X137169523Y-87338422D01*
X137169523Y-87338422D02*
X137217142Y-87386042D01*
X137217142Y-87386042D02*
X137312380Y-87433661D01*
X137312380Y-87433661D02*
X137502856Y-87433661D01*
X137502856Y-87433661D02*
X137598094Y-87386042D01*
X137598094Y-87386042D02*
X137645713Y-87338422D01*
X137645713Y-87338422D02*
X137693332Y-87243184D01*
X137693332Y-87243184D02*
X137693332Y-87005089D01*
X137693332Y-87005089D02*
X137645713Y-86909851D01*
X137645713Y-86909851D02*
X137598094Y-86862232D01*
X137598094Y-86862232D02*
X137502856Y-86814613D01*
X137502856Y-86814613D02*
X137312380Y-86814613D01*
X137312380Y-86814613D02*
X137217142Y-86862232D01*
X137217142Y-86862232D02*
X137169523Y-86909851D01*
X137169523Y-86909851D02*
X137121904Y-87005089D01*
X115986666Y-106386042D02*
X116129523Y-106433661D01*
X116129523Y-106433661D02*
X116367618Y-106433661D01*
X116367618Y-106433661D02*
X116462856Y-106386042D01*
X116462856Y-106386042D02*
X116510475Y-106338422D01*
X116510475Y-106338422D02*
X116558094Y-106243184D01*
X116558094Y-106243184D02*
X116558094Y-106147946D01*
X116558094Y-106147946D02*
X116510475Y-106052708D01*
X116510475Y-106052708D02*
X116462856Y-106005089D01*
X116462856Y-106005089D02*
X116367618Y-105957470D01*
X116367618Y-105957470D02*
X116177142Y-105909851D01*
X116177142Y-105909851D02*
X116081904Y-105862232D01*
X116081904Y-105862232D02*
X116034285Y-105814613D01*
X116034285Y-105814613D02*
X115986666Y-105719375D01*
X115986666Y-105719375D02*
X115986666Y-105624137D01*
X115986666Y-105624137D02*
X116034285Y-105528899D01*
X116034285Y-105528899D02*
X116081904Y-105481280D01*
X116081904Y-105481280D02*
X116177142Y-105433661D01*
X116177142Y-105433661D02*
X116415237Y-105433661D01*
X116415237Y-105433661D02*
X116558094Y-105481280D01*
X116891428Y-105433661D02*
X117129523Y-106433661D01*
X117129523Y-106433661D02*
X117319999Y-105719375D01*
X117319999Y-105719375D02*
X117510475Y-106433661D01*
X117510475Y-106433661D02*
X117748571Y-105433661D01*
X118272380Y-105862232D02*
X118177142Y-105814613D01*
X118177142Y-105814613D02*
X118129523Y-105766994D01*
X118129523Y-105766994D02*
X118081904Y-105671756D01*
X118081904Y-105671756D02*
X118081904Y-105624137D01*
X118081904Y-105624137D02*
X118129523Y-105528899D01*
X118129523Y-105528899D02*
X118177142Y-105481280D01*
X118177142Y-105481280D02*
X118272380Y-105433661D01*
X118272380Y-105433661D02*
X118462856Y-105433661D01*
X118462856Y-105433661D02*
X118558094Y-105481280D01*
X118558094Y-105481280D02*
X118605713Y-105528899D01*
X118605713Y-105528899D02*
X118653332Y-105624137D01*
X118653332Y-105624137D02*
X118653332Y-105671756D01*
X118653332Y-105671756D02*
X118605713Y-105766994D01*
X118605713Y-105766994D02*
X118558094Y-105814613D01*
X118558094Y-105814613D02*
X118462856Y-105862232D01*
X118462856Y-105862232D02*
X118272380Y-105862232D01*
X118272380Y-105862232D02*
X118177142Y-105909851D01*
X118177142Y-105909851D02*
X118129523Y-105957470D01*
X118129523Y-105957470D02*
X118081904Y-106052708D01*
X118081904Y-106052708D02*
X118081904Y-106243184D01*
X118081904Y-106243184D02*
X118129523Y-106338422D01*
X118129523Y-106338422D02*
X118177142Y-106386042D01*
X118177142Y-106386042D02*
X118272380Y-106433661D01*
X118272380Y-106433661D02*
X118462856Y-106433661D01*
X118462856Y-106433661D02*
X118558094Y-106386042D01*
X118558094Y-106386042D02*
X118605713Y-106338422D01*
X118605713Y-106338422D02*
X118653332Y-106243184D01*
X118653332Y-106243184D02*
X118653332Y-106052708D01*
X118653332Y-106052708D02*
X118605713Y-105957470D01*
X118605713Y-105957470D02*
X118558094Y-105909851D01*
X118558094Y-105909851D02*
X118462856Y-105862232D01*
D12*
X85852219Y-76138094D02*
X84852219Y-76138094D01*
X84852219Y-76138094D02*
X84852219Y-75899999D01*
X84852219Y-75899999D02*
X84899838Y-75757142D01*
X84899838Y-75757142D02*
X84995076Y-75661904D01*
X84995076Y-75661904D02*
X85090314Y-75614285D01*
X85090314Y-75614285D02*
X85280790Y-75566666D01*
X85280790Y-75566666D02*
X85423647Y-75566666D01*
X85423647Y-75566666D02*
X85614123Y-75614285D01*
X85614123Y-75614285D02*
X85709361Y-75661904D01*
X85709361Y-75661904D02*
X85804600Y-75757142D01*
X85804600Y-75757142D02*
X85852219Y-75899999D01*
X85852219Y-75899999D02*
X85852219Y-76138094D01*
X84947457Y-75185713D02*
X84899838Y-75138094D01*
X84899838Y-75138094D02*
X84852219Y-75042856D01*
X84852219Y-75042856D02*
X84852219Y-74804761D01*
X84852219Y-74804761D02*
X84899838Y-74709523D01*
X84899838Y-74709523D02*
X84947457Y-74661904D01*
X84947457Y-74661904D02*
X85042695Y-74614285D01*
X85042695Y-74614285D02*
X85137933Y-74614285D01*
X85137933Y-74614285D02*
X85280790Y-74661904D01*
X85280790Y-74661904D02*
X85852219Y-75233332D01*
X85852219Y-75233332D02*
X85852219Y-74614285D01*
X116885714Y-101852219D02*
X116885714Y-100852219D01*
X116885714Y-100852219D02*
X117123809Y-100852219D01*
X117123809Y-100852219D02*
X117266666Y-100899838D01*
X117266666Y-100899838D02*
X117361904Y-100995076D01*
X117361904Y-100995076D02*
X117409523Y-101090314D01*
X117409523Y-101090314D02*
X117457142Y-101280790D01*
X117457142Y-101280790D02*
X117457142Y-101423647D01*
X117457142Y-101423647D02*
X117409523Y-101614123D01*
X117409523Y-101614123D02*
X117361904Y-101709361D01*
X117361904Y-101709361D02*
X117266666Y-101804600D01*
X117266666Y-101804600D02*
X117123809Y-101852219D01*
X117123809Y-101852219D02*
X116885714Y-101852219D01*
X118409523Y-101852219D02*
X117838095Y-101852219D01*
X118123809Y-101852219D02*
X118123809Y-100852219D01*
X118123809Y-100852219D02*
X118028571Y-100995076D01*
X118028571Y-100995076D02*
X117933333Y-101090314D01*
X117933333Y-101090314D02*
X117838095Y-101137933D01*
X119266666Y-101185552D02*
X119266666Y-101852219D01*
X119028571Y-100804600D02*
X118790476Y-101518885D01*
X118790476Y-101518885D02*
X119409523Y-101518885D01*
X135885714Y-101852219D02*
X135885714Y-100852219D01*
X135885714Y-100852219D02*
X136123809Y-100852219D01*
X136123809Y-100852219D02*
X136266666Y-100899838D01*
X136266666Y-100899838D02*
X136361904Y-100995076D01*
X136361904Y-100995076D02*
X136409523Y-101090314D01*
X136409523Y-101090314D02*
X136457142Y-101280790D01*
X136457142Y-101280790D02*
X136457142Y-101423647D01*
X136457142Y-101423647D02*
X136409523Y-101614123D01*
X136409523Y-101614123D02*
X136361904Y-101709361D01*
X136361904Y-101709361D02*
X136266666Y-101804600D01*
X136266666Y-101804600D02*
X136123809Y-101852219D01*
X136123809Y-101852219D02*
X135885714Y-101852219D01*
X137409523Y-101852219D02*
X136838095Y-101852219D01*
X137123809Y-101852219D02*
X137123809Y-100852219D01*
X137123809Y-100852219D02*
X137028571Y-100995076D01*
X137028571Y-100995076D02*
X136933333Y-101090314D01*
X136933333Y-101090314D02*
X136838095Y-101137933D01*
X137790476Y-100947457D02*
X137838095Y-100899838D01*
X137838095Y-100899838D02*
X137933333Y-100852219D01*
X137933333Y-100852219D02*
X138171428Y-100852219D01*
X138171428Y-100852219D02*
X138266666Y-100899838D01*
X138266666Y-100899838D02*
X138314285Y-100947457D01*
X138314285Y-100947457D02*
X138361904Y-101042695D01*
X138361904Y-101042695D02*
X138361904Y-101137933D01*
X138361904Y-101137933D02*
X138314285Y-101280790D01*
X138314285Y-101280790D02*
X137742857Y-101852219D01*
X137742857Y-101852219D02*
X138361904Y-101852219D01*
X117361905Y-82852219D02*
X117361905Y-81852219D01*
X117361905Y-81852219D02*
X117600000Y-81852219D01*
X117600000Y-81852219D02*
X117742857Y-81899838D01*
X117742857Y-81899838D02*
X117838095Y-81995076D01*
X117838095Y-81995076D02*
X117885714Y-82090314D01*
X117885714Y-82090314D02*
X117933333Y-82280790D01*
X117933333Y-82280790D02*
X117933333Y-82423647D01*
X117933333Y-82423647D02*
X117885714Y-82614123D01*
X117885714Y-82614123D02*
X117838095Y-82709361D01*
X117838095Y-82709361D02*
X117742857Y-82804600D01*
X117742857Y-82804600D02*
X117600000Y-82852219D01*
X117600000Y-82852219D02*
X117361905Y-82852219D01*
X118409524Y-82852219D02*
X118600000Y-82852219D01*
X118600000Y-82852219D02*
X118695238Y-82804600D01*
X118695238Y-82804600D02*
X118742857Y-82756980D01*
X118742857Y-82756980D02*
X118838095Y-82614123D01*
X118838095Y-82614123D02*
X118885714Y-82423647D01*
X118885714Y-82423647D02*
X118885714Y-82042695D01*
X118885714Y-82042695D02*
X118838095Y-81947457D01*
X118838095Y-81947457D02*
X118790476Y-81899838D01*
X118790476Y-81899838D02*
X118695238Y-81852219D01*
X118695238Y-81852219D02*
X118504762Y-81852219D01*
X118504762Y-81852219D02*
X118409524Y-81899838D01*
X118409524Y-81899838D02*
X118361905Y-81947457D01*
X118361905Y-81947457D02*
X118314286Y-82042695D01*
X118314286Y-82042695D02*
X118314286Y-82280790D01*
X118314286Y-82280790D02*
X118361905Y-82376028D01*
X118361905Y-82376028D02*
X118409524Y-82423647D01*
X118409524Y-82423647D02*
X118504762Y-82471266D01*
X118504762Y-82471266D02*
X118695238Y-82471266D01*
X118695238Y-82471266D02*
X118790476Y-82423647D01*
X118790476Y-82423647D02*
X118838095Y-82376028D01*
X118838095Y-82376028D02*
X118885714Y-82280790D01*
X136111905Y-82602219D02*
X136111905Y-81602219D01*
X136111905Y-81602219D02*
X136350000Y-81602219D01*
X136350000Y-81602219D02*
X136492857Y-81649838D01*
X136492857Y-81649838D02*
X136588095Y-81745076D01*
X136588095Y-81745076D02*
X136635714Y-81840314D01*
X136635714Y-81840314D02*
X136683333Y-82030790D01*
X136683333Y-82030790D02*
X136683333Y-82173647D01*
X136683333Y-82173647D02*
X136635714Y-82364123D01*
X136635714Y-82364123D02*
X136588095Y-82459361D01*
X136588095Y-82459361D02*
X136492857Y-82554600D01*
X136492857Y-82554600D02*
X136350000Y-82602219D01*
X136350000Y-82602219D02*
X136111905Y-82602219D01*
X137016667Y-81602219D02*
X137683333Y-81602219D01*
X137683333Y-81602219D02*
X137254762Y-82602219D01*
D11*
X97066666Y-106386042D02*
X97209523Y-106433661D01*
X97209523Y-106433661D02*
X97447618Y-106433661D01*
X97447618Y-106433661D02*
X97542856Y-106386042D01*
X97542856Y-106386042D02*
X97590475Y-106338422D01*
X97590475Y-106338422D02*
X97638094Y-106243184D01*
X97638094Y-106243184D02*
X97638094Y-106147946D01*
X97638094Y-106147946D02*
X97590475Y-106052708D01*
X97590475Y-106052708D02*
X97542856Y-106005089D01*
X97542856Y-106005089D02*
X97447618Y-105957470D01*
X97447618Y-105957470D02*
X97257142Y-105909851D01*
X97257142Y-105909851D02*
X97161904Y-105862232D01*
X97161904Y-105862232D02*
X97114285Y-105814613D01*
X97114285Y-105814613D02*
X97066666Y-105719375D01*
X97066666Y-105719375D02*
X97066666Y-105624137D01*
X97066666Y-105624137D02*
X97114285Y-105528899D01*
X97114285Y-105528899D02*
X97161904Y-105481280D01*
X97161904Y-105481280D02*
X97257142Y-105433661D01*
X97257142Y-105433661D02*
X97495237Y-105433661D01*
X97495237Y-105433661D02*
X97638094Y-105481280D01*
X97971428Y-105433661D02*
X98209523Y-106433661D01*
X98209523Y-106433661D02*
X98399999Y-105719375D01*
X98399999Y-105719375D02*
X98590475Y-106433661D01*
X98590475Y-106433661D02*
X98828571Y-105433661D01*
X99114285Y-105433661D02*
X99780951Y-105433661D01*
X99780951Y-105433661D02*
X99352380Y-106433661D01*
X116066666Y-87386042D02*
X116209523Y-87433661D01*
X116209523Y-87433661D02*
X116447618Y-87433661D01*
X116447618Y-87433661D02*
X116542856Y-87386042D01*
X116542856Y-87386042D02*
X116590475Y-87338422D01*
X116590475Y-87338422D02*
X116638094Y-87243184D01*
X116638094Y-87243184D02*
X116638094Y-87147946D01*
X116638094Y-87147946D02*
X116590475Y-87052708D01*
X116590475Y-87052708D02*
X116542856Y-87005089D01*
X116542856Y-87005089D02*
X116447618Y-86957470D01*
X116447618Y-86957470D02*
X116257142Y-86909851D01*
X116257142Y-86909851D02*
X116161904Y-86862232D01*
X116161904Y-86862232D02*
X116114285Y-86814613D01*
X116114285Y-86814613D02*
X116066666Y-86719375D01*
X116066666Y-86719375D02*
X116066666Y-86624137D01*
X116066666Y-86624137D02*
X116114285Y-86528899D01*
X116114285Y-86528899D02*
X116161904Y-86481280D01*
X116161904Y-86481280D02*
X116257142Y-86433661D01*
X116257142Y-86433661D02*
X116495237Y-86433661D01*
X116495237Y-86433661D02*
X116638094Y-86481280D01*
X116971428Y-86433661D02*
X117209523Y-87433661D01*
X117209523Y-87433661D02*
X117399999Y-86719375D01*
X117399999Y-86719375D02*
X117590475Y-87433661D01*
X117590475Y-87433661D02*
X117828571Y-86433661D01*
X118685713Y-86433661D02*
X118209523Y-86433661D01*
X118209523Y-86433661D02*
X118161904Y-86909851D01*
X118161904Y-86909851D02*
X118209523Y-86862232D01*
X118209523Y-86862232D02*
X118304761Y-86814613D01*
X118304761Y-86814613D02*
X118542856Y-86814613D01*
X118542856Y-86814613D02*
X118638094Y-86862232D01*
X118638094Y-86862232D02*
X118685713Y-86909851D01*
X118685713Y-86909851D02*
X118733332Y-87005089D01*
X118733332Y-87005089D02*
X118733332Y-87243184D01*
X118733332Y-87243184D02*
X118685713Y-87338422D01*
X118685713Y-87338422D02*
X118638094Y-87386042D01*
X118638094Y-87386042D02*
X118542856Y-87433661D01*
X118542856Y-87433661D02*
X118304761Y-87433661D01*
X118304761Y-87433661D02*
X118209523Y-87386042D01*
X118209523Y-87386042D02*
X118161904Y-87338422D01*
D12*
X117361905Y-63602219D02*
X117361905Y-62602219D01*
X117361905Y-62602219D02*
X117600000Y-62602219D01*
X117600000Y-62602219D02*
X117742857Y-62649838D01*
X117742857Y-62649838D02*
X117838095Y-62745076D01*
X117838095Y-62745076D02*
X117885714Y-62840314D01*
X117885714Y-62840314D02*
X117933333Y-63030790D01*
X117933333Y-63030790D02*
X117933333Y-63173647D01*
X117933333Y-63173647D02*
X117885714Y-63364123D01*
X117885714Y-63364123D02*
X117838095Y-63459361D01*
X117838095Y-63459361D02*
X117742857Y-63554600D01*
X117742857Y-63554600D02*
X117600000Y-63602219D01*
X117600000Y-63602219D02*
X117361905Y-63602219D01*
X118266667Y-62602219D02*
X118885714Y-62602219D01*
X118885714Y-62602219D02*
X118552381Y-62983171D01*
X118552381Y-62983171D02*
X118695238Y-62983171D01*
X118695238Y-62983171D02*
X118790476Y-63030790D01*
X118790476Y-63030790D02*
X118838095Y-63078409D01*
X118838095Y-63078409D02*
X118885714Y-63173647D01*
X118885714Y-63173647D02*
X118885714Y-63411742D01*
X118885714Y-63411742D02*
X118838095Y-63506980D01*
X118838095Y-63506980D02*
X118790476Y-63554600D01*
X118790476Y-63554600D02*
X118695238Y-63602219D01*
X118695238Y-63602219D02*
X118409524Y-63602219D01*
X118409524Y-63602219D02*
X118314286Y-63554600D01*
X118314286Y-63554600D02*
X118266667Y-63506980D01*
X85852219Y-114238095D02*
X84852219Y-114238095D01*
X84852219Y-114238095D02*
X84852219Y-114000000D01*
X84852219Y-114000000D02*
X84899838Y-113857143D01*
X84899838Y-113857143D02*
X84995076Y-113761905D01*
X84995076Y-113761905D02*
X85090314Y-113714286D01*
X85090314Y-113714286D02*
X85280790Y-113666667D01*
X85280790Y-113666667D02*
X85423647Y-113666667D01*
X85423647Y-113666667D02*
X85614123Y-113714286D01*
X85614123Y-113714286D02*
X85709361Y-113761905D01*
X85709361Y-113761905D02*
X85804600Y-113857143D01*
X85804600Y-113857143D02*
X85852219Y-114000000D01*
X85852219Y-114000000D02*
X85852219Y-114238095D01*
X85185552Y-112809524D02*
X85852219Y-112809524D01*
X84804600Y-113047619D02*
X85518885Y-113285714D01*
X85518885Y-113285714D02*
X85518885Y-112666667D01*
X98261904Y-63705061D02*
X98261904Y-62705061D01*
X98261904Y-62705061D02*
X98499999Y-62705061D01*
X98499999Y-62705061D02*
X98642856Y-62752680D01*
X98642856Y-62752680D02*
X98738094Y-62847918D01*
X98738094Y-62847918D02*
X98785713Y-62943156D01*
X98785713Y-62943156D02*
X98833332Y-63133632D01*
X98833332Y-63133632D02*
X98833332Y-63276489D01*
X98833332Y-63276489D02*
X98785713Y-63466965D01*
X98785713Y-63466965D02*
X98738094Y-63562203D01*
X98738094Y-63562203D02*
X98642856Y-63657442D01*
X98642856Y-63657442D02*
X98499999Y-63705061D01*
X98499999Y-63705061D02*
X98261904Y-63705061D01*
X99785713Y-63705061D02*
X99214285Y-63705061D01*
X99499999Y-63705061D02*
X99499999Y-62705061D01*
X99499999Y-62705061D02*
X99404761Y-62847918D01*
X99404761Y-62847918D02*
X99309523Y-62943156D01*
X99309523Y-62943156D02*
X99214285Y-62990775D01*
%TO.C,SW3*%
D13*
X129414999Y-68867842D02*
X143384999Y-68867842D01*
X129414999Y-82837842D02*
X129414999Y-68867842D01*
X143384999Y-68867842D02*
X143384999Y-82837842D01*
X143384999Y-82837842D02*
X129414999Y-82837842D01*
%TO.C,SW9*%
X129414999Y-106867842D02*
X143384999Y-106867842D01*
X129414999Y-120837842D02*
X129414999Y-106867842D01*
X143384999Y-106867842D02*
X143384999Y-120837842D01*
X143384999Y-120837842D02*
X129414999Y-120837842D01*
%TO.C,SW2*%
X110414999Y-68867842D02*
X124384999Y-68867842D01*
X110414999Y-82837842D02*
X110414999Y-68867842D01*
X124384999Y-68867842D02*
X124384999Y-82837842D01*
X124384999Y-82837842D02*
X110414999Y-82837842D01*
%TO.C,SW10*%
X152200000Y-73400000D02*
X152800000Y-73400000D01*
X152500000Y-73700000D02*
X152200000Y-73400000D01*
X152800000Y-73400000D02*
X152500000Y-73700000D01*
X153900000Y-71600000D02*
X153900000Y-83400000D01*
X158000000Y-71600000D02*
X153900000Y-71600000D01*
X158000000Y-83400000D02*
X153900000Y-83400000D01*
X159500000Y-77500000D02*
X160500000Y-77500000D01*
X160000000Y-77000000D02*
X160000000Y-78000000D01*
X162000000Y-71600000D02*
X166100000Y-71600000D01*
X166100000Y-71600000D02*
X166100000Y-74000000D01*
X166100000Y-76200000D02*
X166100000Y-78800000D01*
X166100000Y-81000000D02*
X166100000Y-83400000D01*
X166100000Y-83400000D02*
X162000000Y-83400000D01*
X163000000Y-77500000D02*
G75*
G02*
X157000000Y-77500000I-3000000J0D01*
G01*
X157000000Y-77500000D02*
G75*
G02*
X163000000Y-77500000I3000000J0D01*
G01*
%TO.C,J2*%
X134120000Y-48000000D02*
X135500000Y-48000000D01*
X134120000Y-49380000D02*
X134120000Y-48000000D01*
X134120000Y-50650000D02*
X134120000Y-58380000D01*
X134120000Y-50650000D02*
X136880000Y-50650000D01*
X134120000Y-58380000D02*
X136880000Y-58380000D01*
X136880000Y-50650000D02*
X136880000Y-58380000D01*
%TO.C,SW4*%
X91374999Y-87867842D02*
X105344999Y-87867842D01*
X91374999Y-101837842D02*
X91374999Y-87867842D01*
X105344999Y-87867842D02*
X105344999Y-101837842D01*
X105344999Y-101837842D02*
X91374999Y-101837842D01*
%TO.C,SW1*%
X91334999Y-68867842D02*
X105304999Y-68867842D01*
X91334999Y-82837842D02*
X91334999Y-68867842D01*
X105304999Y-68867842D02*
X105304999Y-82837842D01*
X105304999Y-82837842D02*
X91334999Y-82837842D01*
%TO.C,SW6*%
X129374999Y-87867842D02*
X143344999Y-87867842D01*
X129374999Y-101837842D02*
X129374999Y-87867842D01*
X143344999Y-87867842D02*
X143344999Y-101837842D01*
X143344999Y-101837842D02*
X129374999Y-101837842D01*
%TO.C,SW8*%
X110334999Y-106867842D02*
X124304999Y-106867842D01*
X110334999Y-120837842D02*
X110334999Y-106867842D01*
X124304999Y-106867842D02*
X124304999Y-120837842D01*
X124304999Y-120837842D02*
X110334999Y-120837842D01*
%TO.C,SW7*%
X91414999Y-106867842D02*
X105384999Y-106867842D01*
X91414999Y-120837842D02*
X91414999Y-106867842D01*
X105384999Y-106867842D02*
X105384999Y-120837842D01*
X105384999Y-120837842D02*
X91414999Y-120837842D01*
%TO.C,SW5*%
X110414999Y-87867842D02*
X124384999Y-87867842D01*
X110414999Y-101837842D02*
X110414999Y-87867842D01*
X124384999Y-87867842D02*
X124384999Y-101837842D01*
X124384999Y-101837842D02*
X110414999Y-101837842D01*
%TD*%
%LPC*%
D14*
%TO.C,SW3*%
X131319999Y-75852842D03*
D15*
X136399999Y-75852842D03*
D14*
X141479999Y-75852842D03*
D16*
X138939999Y-70772842D03*
X132589999Y-73312842D03*
%TD*%
D14*
%TO.C,SW9*%
X131319999Y-113852842D03*
D15*
X136399999Y-113852842D03*
D14*
X141479999Y-113852842D03*
D16*
X138939999Y-108772842D03*
X132589999Y-111312842D03*
%TD*%
D14*
%TO.C,SW2*%
X112319999Y-75852842D03*
D15*
X117399999Y-75852842D03*
D14*
X122479999Y-75852842D03*
D16*
X119939999Y-70772842D03*
X113589999Y-73312842D03*
%TD*%
D17*
%TO.C,SW10*%
X152500000Y-75000000D03*
D18*
X152500000Y-80000000D03*
X152500000Y-77500000D03*
D19*
X160000000Y-71900000D03*
X160000000Y-83100000D03*
D18*
X167000000Y-80000000D03*
X167000000Y-75000000D03*
%TD*%
D20*
%TO.C,J2*%
X135500000Y-49380000D03*
D14*
X135500000Y-51920000D03*
X135500000Y-54460000D03*
X135500000Y-57000000D03*
%TD*%
%TO.C,SW4*%
X93279999Y-94852842D03*
D15*
X98359999Y-94852842D03*
D14*
X103439999Y-94852842D03*
D16*
X100899999Y-89772842D03*
X94549999Y-92312842D03*
%TD*%
D14*
%TO.C,SW1*%
X93239999Y-75852842D03*
D15*
X98319999Y-75852842D03*
D14*
X103399999Y-75852842D03*
D16*
X100859999Y-70772842D03*
X94509999Y-73312842D03*
%TD*%
D14*
%TO.C,SW6*%
X131279999Y-94852842D03*
D15*
X136359999Y-94852842D03*
D14*
X141439999Y-94852842D03*
D16*
X138899999Y-89772842D03*
X132549999Y-92312842D03*
%TD*%
D14*
%TO.C,SW8*%
X112239999Y-113852842D03*
D15*
X117319999Y-113852842D03*
D14*
X122399999Y-113852842D03*
D16*
X119859999Y-108772842D03*
X113509999Y-111312842D03*
%TD*%
D14*
%TO.C,SW7*%
X93319999Y-113852842D03*
D15*
X98399999Y-113852842D03*
D14*
X103479999Y-113852842D03*
D16*
X100939999Y-108772842D03*
X94589999Y-111312842D03*
%TD*%
D14*
%TO.C,SW5*%
X112319999Y-94852842D03*
D15*
X117399999Y-94852842D03*
D14*
X122479999Y-94852842D03*
D16*
X119939999Y-89772842D03*
X113589999Y-92312842D03*
%TD*%
D21*
%TO.C,D28*%
X145899999Y-97472842D03*
D22*
X145899999Y-89852842D03*
%TD*%
D21*
%TO.C,D31*%
X145899999Y-116472842D03*
D22*
X145899999Y-108852842D03*
%TD*%
D21*
%TO.C,D30*%
X107899999Y-97472842D03*
D22*
X107899999Y-89852842D03*
%TD*%
D21*
%TO.C,D33*%
X107899999Y-116472842D03*
D22*
X107899999Y-108852842D03*
%TD*%
D21*
%TO.C,D26*%
X126899999Y-78472842D03*
D22*
X126899999Y-70852842D03*
%TD*%
D21*
%TO.C,D32*%
X126899999Y-116472842D03*
D22*
X126899999Y-108852842D03*
%TD*%
D21*
%TO.C,D29*%
X126899999Y-97472842D03*
D22*
X126899999Y-89852842D03*
%TD*%
D21*
%TO.C,D27*%
X107899999Y-78472842D03*
D22*
X107899999Y-70852842D03*
%TD*%
D23*
%TO.C,U2*%
X165500000Y-43880000D03*
D24*
X165500000Y-46420000D03*
X165500000Y-48960000D03*
X165500000Y-51500000D03*
X165500000Y-54040000D03*
X165500000Y-56580000D03*
X165500000Y-59120000D03*
X148250000Y-59120000D03*
X148250000Y-56580000D03*
X148250000Y-54040000D03*
D25*
X148250000Y-51500000D03*
X148250000Y-48960000D03*
X148250000Y-46420000D03*
X148250000Y-43880000D03*
%TD*%
D21*
%TO.C,D25*%
X145899999Y-78472842D03*
D22*
X145899999Y-70852842D03*
%TD*%
%LPD*%
M02*
