%TF.GenerationSoftware,KiCad,Pcbnew,10.0.3*%
%TF.CreationDate,2026-06-19T22:49:30+05:30*%
%TF.ProjectId,koshipad,6b6f7368-6970-4616-942e-6b696361645f,rev?*%
%TF.SameCoordinates,Original*%
%TF.FileFunction,Soldermask,Bot*%
%TF.FilePolarity,Negative*%
%FSLAX46Y46*%
G04 Gerber Fmt 4.6, Leading zero omitted, Abs format (unit mm)*
G04 Created by KiCad (PCBNEW 10.0.3) date 2026-06-19 22:49:30*
%MOMM*%
%LPD*%
G01*
G04 APERTURE LIST*
G04 Aperture macros list*
%AMRoundRect*
0 Rectangle with rounded corners*
0 $1 Rounding radius*
0 $2 $3 $4 $5 $6 $7 $8 $9 X,Y pos of 4 corners*
0 Add a 4 corners polygon primitive as box body*
4,1,4,$2,$3,$4,$5,$6,$7,$8,$9,$2,$3,0*
0 Add four circle primitives for the rounded corners*
1,1,$1+$1,$2,$3*
1,1,$1+$1,$4,$5*
1,1,$1+$1,$6,$7*
1,1,$1+$1,$8,$9*
0 Add four rect primitives between the rounded corners*
20,1,$1+$1,$2,$3,$4,$5,0*
20,1,$1+$1,$4,$5,$6,$7,0*
20,1,$1+$1,$6,$7,$8,$9,0*
20,1,$1+$1,$8,$9,$2,$3,0*%
G04 Aperture macros list end*
%ADD10C,1.700000*%
%ADD11C,4.000000*%
%ADD12C,2.200000*%
%ADD13RoundRect,0.082000X-0.718000X0.328000X-0.718000X-0.328000X0.718000X-0.328000X0.718000X0.328000X0*%
%ADD14R,2.000000X2.000000*%
%ADD15C,2.000000*%
%ADD16R,3.200000X2.000000*%
%ADD17R,1.700000X1.700000*%
%ADD18RoundRect,0.082000X-0.328000X-0.718000X0.328000X-0.718000X0.328000X0.718000X-0.328000X0.718000X0*%
%ADD19RoundRect,0.250000X0.550000X-0.550000X0.550000X0.550000X-0.550000X0.550000X-0.550000X-0.550000X0*%
%ADD20C,1.600000*%
%ADD21R,3.500000X1.700000*%
%ADD22O,3.600000X1.700000*%
%ADD23O,3.700000X1.700000*%
G04 APERTURE END LIST*
D10*
%TO.C,SW3*%
X131319999Y-75852842D03*
D11*
X136399999Y-75852842D03*
D10*
X141479999Y-75852842D03*
D12*
X138939999Y-70772842D03*
X132589999Y-73312842D03*
%TD*%
D13*
%TO.C,D8*%
X114900001Y-122647158D03*
X114900001Y-124147158D03*
X120100001Y-124147158D03*
X120100001Y-122647158D03*
%TD*%
D10*
%TO.C,SW9*%
X131319999Y-113852842D03*
D11*
X136399999Y-113852842D03*
D10*
X141479999Y-113852842D03*
D12*
X138939999Y-108772842D03*
X132589999Y-111312842D03*
%TD*%
D10*
%TO.C,SW2*%
X112319999Y-75852842D03*
D11*
X117399999Y-75852842D03*
D10*
X122479999Y-75852842D03*
D12*
X119939999Y-70772842D03*
X113589999Y-73312842D03*
%TD*%
D14*
%TO.C,SW10*%
X152500000Y-75000000D03*
D15*
X152500000Y-80000000D03*
X152500000Y-77500000D03*
D16*
X160000000Y-71900000D03*
X160000000Y-83100000D03*
D15*
X167000000Y-80000000D03*
X167000000Y-75000000D03*
%TD*%
D13*
%TO.C,D10*%
X133900001Y-122647158D03*
X133900001Y-124147158D03*
X139100001Y-124147158D03*
X139100001Y-122647158D03*
%TD*%
%TO.C,D5*%
X133800000Y-65647158D03*
X133800000Y-67147158D03*
X139000000Y-67147158D03*
X139000000Y-65647158D03*
%TD*%
D17*
%TO.C,J2*%
X135500000Y-49380000D03*
D10*
X135500000Y-51920000D03*
X135500000Y-54460000D03*
X135500000Y-57000000D03*
%TD*%
%TO.C,SW4*%
X93279999Y-94852842D03*
D11*
X98359999Y-94852842D03*
D10*
X103439999Y-94852842D03*
D12*
X100899999Y-89772842D03*
X94549999Y-92312842D03*
%TD*%
D13*
%TO.C,D13*%
X95900001Y-103647158D03*
X95900001Y-105147158D03*
X101100001Y-105147158D03*
X101100001Y-103647158D03*
%TD*%
%TO.C,D6*%
X95900001Y-122647158D03*
X95900001Y-124147158D03*
X101100001Y-124147158D03*
X101100001Y-122647158D03*
%TD*%
D10*
%TO.C,SW1*%
X93239999Y-75852842D03*
D11*
X98319999Y-75852842D03*
D10*
X103399999Y-75852842D03*
D12*
X100859999Y-70772842D03*
X94509999Y-73312842D03*
%TD*%
D13*
%TO.C,D11*%
X95900001Y-84647158D03*
X95900001Y-86147158D03*
X101100001Y-86147158D03*
X101100001Y-84647158D03*
%TD*%
D10*
%TO.C,SW6*%
X131279999Y-94852842D03*
D11*
X136359999Y-94852842D03*
D10*
X141439999Y-94852842D03*
D12*
X138899999Y-89772842D03*
X132549999Y-92312842D03*
%TD*%
D10*
%TO.C,SW8*%
X112239999Y-113852842D03*
D11*
X117319999Y-113852842D03*
D10*
X122399999Y-113852842D03*
D12*
X119859999Y-108772842D03*
X113509999Y-111312842D03*
%TD*%
D18*
%TO.C,D2*%
X87647158Y-78599999D03*
X89147158Y-78599999D03*
X89147158Y-73399999D03*
X87647158Y-73399999D03*
%TD*%
D13*
%TO.C,D14*%
X114900001Y-103647158D03*
X114900001Y-105147158D03*
X120100001Y-105147158D03*
X120100001Y-103647158D03*
%TD*%
%TO.C,D12*%
X133900001Y-103647158D03*
X133900001Y-105147158D03*
X139100001Y-105147158D03*
X139100001Y-103647158D03*
%TD*%
%TO.C,D9*%
X114900001Y-84647158D03*
X114900001Y-86147158D03*
X120100001Y-86147158D03*
X120100001Y-84647158D03*
%TD*%
%TO.C,D7*%
X133650001Y-84397158D03*
X133650001Y-85897158D03*
X138850001Y-85897158D03*
X138850001Y-84397158D03*
%TD*%
D10*
%TO.C,SW7*%
X93319999Y-113852842D03*
D11*
X98399999Y-113852842D03*
D10*
X103479999Y-113852842D03*
D12*
X100939999Y-108772842D03*
X94589999Y-111312842D03*
%TD*%
D10*
%TO.C,SW5*%
X112319999Y-94852842D03*
D11*
X117399999Y-94852842D03*
D10*
X122479999Y-94852842D03*
D12*
X119939999Y-89772842D03*
X113589999Y-92312842D03*
%TD*%
D13*
%TO.C,D3*%
X114900001Y-65397158D03*
X114900001Y-66897158D03*
X120100001Y-66897158D03*
X120100001Y-65397158D03*
%TD*%
D18*
%TO.C,D4*%
X87647158Y-116700000D03*
X89147158Y-116700000D03*
X89147158Y-111500000D03*
X87647158Y-111500000D03*
%TD*%
D13*
%TO.C,D1*%
X95800000Y-65500000D03*
X95800000Y-67000000D03*
X101000000Y-67000000D03*
X101000000Y-65500000D03*
%TD*%
D19*
%TO.C,D28*%
X145899999Y-97472842D03*
D20*
X145899999Y-89852842D03*
%TD*%
D19*
%TO.C,D31*%
X145899999Y-116472842D03*
D20*
X145899999Y-108852842D03*
%TD*%
D19*
%TO.C,D30*%
X107899999Y-97472842D03*
D20*
X107899999Y-89852842D03*
%TD*%
D19*
%TO.C,D33*%
X107899999Y-116472842D03*
D20*
X107899999Y-108852842D03*
%TD*%
D19*
%TO.C,D26*%
X126899999Y-78472842D03*
D20*
X126899999Y-70852842D03*
%TD*%
D19*
%TO.C,D32*%
X126899999Y-116472842D03*
D20*
X126899999Y-108852842D03*
%TD*%
D19*
%TO.C,D29*%
X126899999Y-97472842D03*
D20*
X126899999Y-89852842D03*
%TD*%
D19*
%TO.C,D27*%
X107899999Y-78472842D03*
D20*
X107899999Y-70852842D03*
%TD*%
D21*
%TO.C,U2*%
X165500000Y-43880000D03*
D22*
X165500000Y-46420000D03*
X165500000Y-48960000D03*
X165500000Y-51500000D03*
X165500000Y-54040000D03*
X165500000Y-56580000D03*
X165500000Y-59120000D03*
X148250000Y-59120000D03*
X148250000Y-56580000D03*
X148250000Y-54040000D03*
D23*
X148250000Y-51500000D03*
X148250000Y-48960000D03*
X148250000Y-46420000D03*
X148250000Y-43880000D03*
%TD*%
D19*
%TO.C,D25*%
X145899999Y-78472842D03*
D20*
X145899999Y-70852842D03*
%TD*%
M02*
