%TF.GenerationSoftware,KiCad,Pcbnew,10.0.3*%
%TF.CreationDate,2026-06-19T22:49:30+05:30*%
%TF.ProjectId,koshipad,6b6f7368-6970-4616-942e-6b696361645f,rev?*%
%TF.SameCoordinates,Original*%
%TF.FileFunction,Profile,NP*%
%FSLAX46Y46*%
G04 Gerber Fmt 4.6, Leading zero omitted, Abs format (unit mm)*
G04 Created by KiCad (PCBNEW 10.0.3) date 2026-06-19 22:49:30*
%MOMM*%
%LPD*%
G01*
G04 APERTURE LIST*
%TA.AperFunction,Profile*%
%ADD10C,0.050000*%
%TD*%
%TA.AperFunction,Profile*%
%ADD11C,0.100000*%
%TD*%
G04 APERTURE END LIST*
D10*
X79000000Y-41000000D02*
X175000000Y-41000000D01*
X175000000Y-133750000D01*
X79000000Y-133750000D01*
X79000000Y-41000000D01*
%TO.C,D8*%
D11*
X115800002Y-124100000D02*
X115800002Y-122694316D01*
X116705549Y-121897159D02*
X118294454Y-121897159D01*
X118294453Y-124897158D02*
X116705549Y-124897158D01*
X119200000Y-122694316D02*
X119200000Y-124100000D01*
X115750517Y-122477438D02*
G75*
G02*
X115800002Y-122694316I-450505J-216876D01*
G01*
X115750517Y-122477438D02*
G75*
G02*
X116453290Y-121828859I450515J216878D01*
G01*
X115800002Y-124100001D02*
G75*
G02*
X115750517Y-124316878I-499990J-1D01*
G01*
X116453290Y-124965455D02*
G75*
G02*
X115750517Y-124316878I-252258J431700D01*
G01*
X116453291Y-124965457D02*
G75*
G02*
X116705549Y-124897158I252261J-431710D01*
G01*
X116705548Y-121897158D02*
G75*
G02*
X116453290Y-121828859I3J500009D01*
G01*
X118294453Y-124897158D02*
G75*
G02*
X118546712Y-124965457I-3J-500012D01*
G01*
X118546712Y-121828860D02*
G75*
G02*
X118294454Y-121897160I-252262J431710D01*
G01*
X118546712Y-121828860D02*
G75*
G02*
X119249484Y-122477438I252258J-431700D01*
G01*
X119200000Y-122694315D02*
G75*
G02*
X119249479Y-122477435I500000J15D01*
G01*
X119249485Y-124316877D02*
G75*
G02*
X118546712Y-124965457I-450514J-216880D01*
G01*
X119249485Y-124316878D02*
G75*
G02*
X119200000Y-124100000I450515J216878D01*
G01*
%TO.C,D10*%
X134800002Y-124100000D02*
X134800002Y-122694316D01*
X135705549Y-121897159D02*
X137294454Y-121897159D01*
X137294453Y-124897158D02*
X135705549Y-124897158D01*
X138200000Y-122694316D02*
X138200000Y-124100000D01*
X134750517Y-122477438D02*
G75*
G02*
X134800002Y-122694316I-450505J-216876D01*
G01*
X134750517Y-122477438D02*
G75*
G02*
X135453290Y-121828859I450515J216878D01*
G01*
X134800002Y-124100001D02*
G75*
G02*
X134750517Y-124316878I-499990J-1D01*
G01*
X135453290Y-124965455D02*
G75*
G02*
X134750517Y-124316878I-252258J431700D01*
G01*
X135453291Y-124965457D02*
G75*
G02*
X135705549Y-124897158I252261J-431710D01*
G01*
X135705548Y-121897158D02*
G75*
G02*
X135453290Y-121828859I3J500009D01*
G01*
X137294453Y-124897158D02*
G75*
G02*
X137546712Y-124965457I-3J-500012D01*
G01*
X137546712Y-121828860D02*
G75*
G02*
X137294454Y-121897160I-252262J431710D01*
G01*
X137546712Y-121828860D02*
G75*
G02*
X138249484Y-122477438I252258J-431700D01*
G01*
X138200000Y-122694315D02*
G75*
G02*
X138249479Y-122477435I500000J15D01*
G01*
X138249485Y-124316877D02*
G75*
G02*
X137546712Y-124965457I-450514J-216880D01*
G01*
X138249485Y-124316878D02*
G75*
G02*
X138200000Y-124100000I450515J216878D01*
G01*
%TO.C,D5*%
X134700001Y-67100000D02*
X134700001Y-65694316D01*
X135605548Y-64897159D02*
X137194453Y-64897159D01*
X137194452Y-67897158D02*
X135605548Y-67897158D01*
X138099999Y-65694316D02*
X138099999Y-67100000D01*
X134650516Y-65477438D02*
G75*
G02*
X134700001Y-65694316I-450505J-216876D01*
G01*
X134650516Y-65477438D02*
G75*
G02*
X135353289Y-64828859I450515J216878D01*
G01*
X134700001Y-67100001D02*
G75*
G02*
X134650516Y-67316878I-499990J-1D01*
G01*
X135353289Y-67965455D02*
G75*
G02*
X134650516Y-67316878I-252258J431700D01*
G01*
X135353290Y-67965457D02*
G75*
G02*
X135605548Y-67897158I252261J-431710D01*
G01*
X135605547Y-64897158D02*
G75*
G02*
X135353289Y-64828859I3J500009D01*
G01*
X137194452Y-67897158D02*
G75*
G02*
X137446711Y-67965457I-3J-500012D01*
G01*
X137446711Y-64828860D02*
G75*
G02*
X137194453Y-64897160I-252262J431710D01*
G01*
X137446711Y-64828860D02*
G75*
G02*
X138149483Y-65477438I252258J-431700D01*
G01*
X138099999Y-65694315D02*
G75*
G02*
X138149478Y-65477435I500000J15D01*
G01*
X138149484Y-67316877D02*
G75*
G02*
X137446711Y-67965457I-450514J-216880D01*
G01*
X138149484Y-67316878D02*
G75*
G02*
X138099999Y-67100000I450515J216878D01*
G01*
%TO.C,D13*%
X96800002Y-105100000D02*
X96800002Y-103694316D01*
X97705549Y-102897159D02*
X99294454Y-102897159D01*
X99294453Y-105897158D02*
X97705549Y-105897158D01*
X100200000Y-103694316D02*
X100200000Y-105100000D01*
X96750517Y-103477438D02*
G75*
G02*
X96800002Y-103694316I-450505J-216876D01*
G01*
X96750517Y-103477438D02*
G75*
G02*
X97453290Y-102828859I450515J216878D01*
G01*
X96800002Y-105100001D02*
G75*
G02*
X96750517Y-105316878I-499990J-1D01*
G01*
X97453290Y-105965455D02*
G75*
G02*
X96750517Y-105316878I-252258J431700D01*
G01*
X97453291Y-105965457D02*
G75*
G02*
X97705549Y-105897158I252261J-431710D01*
G01*
X97705548Y-102897158D02*
G75*
G02*
X97453290Y-102828859I3J500009D01*
G01*
X99294453Y-105897158D02*
G75*
G02*
X99546712Y-105965457I-3J-500012D01*
G01*
X99546712Y-102828860D02*
G75*
G02*
X99294454Y-102897160I-252262J431710D01*
G01*
X99546712Y-102828860D02*
G75*
G02*
X100249484Y-103477438I252258J-431700D01*
G01*
X100200000Y-103694315D02*
G75*
G02*
X100249479Y-103477435I500000J15D01*
G01*
X100249485Y-105316877D02*
G75*
G02*
X99546712Y-105965457I-450514J-216880D01*
G01*
X100249485Y-105316878D02*
G75*
G02*
X100200000Y-105100000I450515J216878D01*
G01*
%TO.C,D6*%
X96800002Y-124100000D02*
X96800002Y-122694316D01*
X97705549Y-121897159D02*
X99294454Y-121897159D01*
X99294453Y-124897158D02*
X97705549Y-124897158D01*
X100200000Y-122694316D02*
X100200000Y-124100000D01*
X96750517Y-122477438D02*
G75*
G02*
X96800002Y-122694316I-450505J-216876D01*
G01*
X96750517Y-122477438D02*
G75*
G02*
X97453290Y-121828859I450515J216878D01*
G01*
X96800002Y-124100001D02*
G75*
G02*
X96750517Y-124316878I-499990J-1D01*
G01*
X97453290Y-124965455D02*
G75*
G02*
X96750517Y-124316878I-252258J431700D01*
G01*
X97453291Y-124965457D02*
G75*
G02*
X97705549Y-124897158I252261J-431710D01*
G01*
X97705548Y-121897158D02*
G75*
G02*
X97453290Y-121828859I3J500009D01*
G01*
X99294453Y-124897158D02*
G75*
G02*
X99546712Y-124965457I-3J-500012D01*
G01*
X99546712Y-121828860D02*
G75*
G02*
X99294454Y-121897160I-252262J431710D01*
G01*
X99546712Y-121828860D02*
G75*
G02*
X100249484Y-122477438I252258J-431700D01*
G01*
X100200000Y-122694315D02*
G75*
G02*
X100249479Y-122477435I500000J15D01*
G01*
X100249485Y-124316877D02*
G75*
G02*
X99546712Y-124965457I-450514J-216880D01*
G01*
X100249485Y-124316878D02*
G75*
G02*
X100200000Y-124100000I450515J216878D01*
G01*
%TO.C,D11*%
X96800002Y-86100000D02*
X96800002Y-84694316D01*
X97705549Y-83897159D02*
X99294454Y-83897159D01*
X99294453Y-86897158D02*
X97705549Y-86897158D01*
X100200000Y-84694316D02*
X100200000Y-86100000D01*
X96750517Y-84477438D02*
G75*
G02*
X96800002Y-84694316I-450505J-216876D01*
G01*
X96750517Y-84477438D02*
G75*
G02*
X97453290Y-83828859I450515J216878D01*
G01*
X96800002Y-86100001D02*
G75*
G02*
X96750517Y-86316878I-499990J-1D01*
G01*
X97453290Y-86965455D02*
G75*
G02*
X96750517Y-86316878I-252258J431700D01*
G01*
X97453291Y-86965457D02*
G75*
G02*
X97705549Y-86897158I252261J-431710D01*
G01*
X97705548Y-83897158D02*
G75*
G02*
X97453290Y-83828859I3J500009D01*
G01*
X99294453Y-86897158D02*
G75*
G02*
X99546712Y-86965457I-3J-500012D01*
G01*
X99546712Y-83828860D02*
G75*
G02*
X99294454Y-83897160I-252262J431710D01*
G01*
X99546712Y-83828860D02*
G75*
G02*
X100249484Y-84477438I252258J-431700D01*
G01*
X100200000Y-84694315D02*
G75*
G02*
X100249479Y-84477435I500000J15D01*
G01*
X100249485Y-86316877D02*
G75*
G02*
X99546712Y-86965457I-450514J-216880D01*
G01*
X100249485Y-86316878D02*
G75*
G02*
X100200000Y-86100000I450515J216878D01*
G01*
%TO.C,D2*%
X86897159Y-76794451D02*
X86897159Y-75205546D01*
X87694316Y-74300000D02*
X89100000Y-74300000D01*
X89100000Y-77699998D02*
X87694316Y-77699998D01*
X89897158Y-75205547D02*
X89897158Y-76794451D01*
X86828860Y-74953288D02*
G75*
G02*
X86897160Y-75205546I-431710J-252262D01*
G01*
X86828860Y-74953288D02*
G75*
G02*
X87477438Y-74250516I431700J252258D01*
G01*
X86897158Y-76794452D02*
G75*
G02*
X86828859Y-77046710I-500009J3D01*
G01*
X87477438Y-77749483D02*
G75*
G02*
X86828859Y-77046710I-216878J450515D01*
G01*
X87477438Y-77749483D02*
G75*
G02*
X87694316Y-77699998I216876J-450505D01*
G01*
X87694315Y-74300000D02*
G75*
G02*
X87477435Y-74250521I-15J500000D01*
G01*
X89100001Y-77699998D02*
G75*
G02*
X89316878Y-77749483I1J-499990D01*
G01*
X89316877Y-74250515D02*
G75*
G02*
X89965457Y-74953288I216880J-450514D01*
G01*
X89316878Y-74250515D02*
G75*
G02*
X89100000Y-74300000I-216878J450515D01*
G01*
X89897158Y-75205547D02*
G75*
G02*
X89965457Y-74953288I500012J-3D01*
G01*
X89965455Y-77046710D02*
G75*
G02*
X89316878Y-77749483I-431700J-252258D01*
G01*
X89965457Y-77046709D02*
G75*
G02*
X89897158Y-76794451I431710J252261D01*
G01*
%TO.C,D14*%
X115800002Y-105100000D02*
X115800002Y-103694316D01*
X116705549Y-102897159D02*
X118294454Y-102897159D01*
X118294453Y-105897158D02*
X116705549Y-105897158D01*
X119200000Y-103694316D02*
X119200000Y-105100000D01*
X115750517Y-103477438D02*
G75*
G02*
X115800002Y-103694316I-450505J-216876D01*
G01*
X115750517Y-103477438D02*
G75*
G02*
X116453290Y-102828859I450515J216878D01*
G01*
X115800002Y-105100001D02*
G75*
G02*
X115750517Y-105316878I-499990J-1D01*
G01*
X116453290Y-105965455D02*
G75*
G02*
X115750517Y-105316878I-252258J431700D01*
G01*
X116453291Y-105965457D02*
G75*
G02*
X116705549Y-105897158I252261J-431710D01*
G01*
X116705548Y-102897158D02*
G75*
G02*
X116453290Y-102828859I3J500009D01*
G01*
X118294453Y-105897158D02*
G75*
G02*
X118546712Y-105965457I-3J-500012D01*
G01*
X118546712Y-102828860D02*
G75*
G02*
X118294454Y-102897160I-252262J431710D01*
G01*
X118546712Y-102828860D02*
G75*
G02*
X119249484Y-103477438I252258J-431700D01*
G01*
X119200000Y-103694315D02*
G75*
G02*
X119249479Y-103477435I500000J15D01*
G01*
X119249485Y-105316877D02*
G75*
G02*
X118546712Y-105965457I-450514J-216880D01*
G01*
X119249485Y-105316878D02*
G75*
G02*
X119200000Y-105100000I450515J216878D01*
G01*
%TO.C,D12*%
X134800002Y-105100000D02*
X134800002Y-103694316D01*
X135705549Y-102897159D02*
X137294454Y-102897159D01*
X137294453Y-105897158D02*
X135705549Y-105897158D01*
X138200000Y-103694316D02*
X138200000Y-105100000D01*
X134750517Y-103477438D02*
G75*
G02*
X134800002Y-103694316I-450505J-216876D01*
G01*
X134750517Y-103477438D02*
G75*
G02*
X135453290Y-102828859I450515J216878D01*
G01*
X134800002Y-105100001D02*
G75*
G02*
X134750517Y-105316878I-499990J-1D01*
G01*
X135453290Y-105965455D02*
G75*
G02*
X134750517Y-105316878I-252258J431700D01*
G01*
X135453291Y-105965457D02*
G75*
G02*
X135705549Y-105897158I252261J-431710D01*
G01*
X135705548Y-102897158D02*
G75*
G02*
X135453290Y-102828859I3J500009D01*
G01*
X137294453Y-105897158D02*
G75*
G02*
X137546712Y-105965457I-3J-500012D01*
G01*
X137546712Y-102828860D02*
G75*
G02*
X137294454Y-102897160I-252262J431710D01*
G01*
X137546712Y-102828860D02*
G75*
G02*
X138249484Y-103477438I252258J-431700D01*
G01*
X138200000Y-103694315D02*
G75*
G02*
X138249479Y-103477435I500000J15D01*
G01*
X138249485Y-105316877D02*
G75*
G02*
X137546712Y-105965457I-450514J-216880D01*
G01*
X138249485Y-105316878D02*
G75*
G02*
X138200000Y-105100000I450515J216878D01*
G01*
%TO.C,D9*%
X115800002Y-86100000D02*
X115800002Y-84694316D01*
X116705549Y-83897159D02*
X118294454Y-83897159D01*
X118294453Y-86897158D02*
X116705549Y-86897158D01*
X119200000Y-84694316D02*
X119200000Y-86100000D01*
X115750517Y-84477438D02*
G75*
G02*
X115800002Y-84694316I-450505J-216876D01*
G01*
X115750517Y-84477438D02*
G75*
G02*
X116453290Y-83828859I450515J216878D01*
G01*
X115800002Y-86100001D02*
G75*
G02*
X115750517Y-86316878I-499990J-1D01*
G01*
X116453290Y-86965455D02*
G75*
G02*
X115750517Y-86316878I-252258J431700D01*
G01*
X116453291Y-86965457D02*
G75*
G02*
X116705549Y-86897158I252261J-431710D01*
G01*
X116705548Y-83897158D02*
G75*
G02*
X116453290Y-83828859I3J500009D01*
G01*
X118294453Y-86897158D02*
G75*
G02*
X118546712Y-86965457I-3J-500012D01*
G01*
X118546712Y-83828860D02*
G75*
G02*
X118294454Y-83897160I-252262J431710D01*
G01*
X118546712Y-83828860D02*
G75*
G02*
X119249484Y-84477438I252258J-431700D01*
G01*
X119200000Y-84694315D02*
G75*
G02*
X119249479Y-84477435I500000J15D01*
G01*
X119249485Y-86316877D02*
G75*
G02*
X118546712Y-86965457I-450514J-216880D01*
G01*
X119249485Y-86316878D02*
G75*
G02*
X119200000Y-86100000I450515J216878D01*
G01*
%TO.C,D7*%
X134550002Y-85850000D02*
X134550002Y-84444316D01*
X135455549Y-83647159D02*
X137044454Y-83647159D01*
X137044453Y-86647158D02*
X135455549Y-86647158D01*
X137950000Y-84444316D02*
X137950000Y-85850000D01*
X134500517Y-84227438D02*
G75*
G02*
X134550002Y-84444316I-450505J-216876D01*
G01*
X134500517Y-84227438D02*
G75*
G02*
X135203290Y-83578859I450515J216878D01*
G01*
X134550002Y-85850001D02*
G75*
G02*
X134500517Y-86066878I-499990J-1D01*
G01*
X135203290Y-86715455D02*
G75*
G02*
X134500517Y-86066878I-252258J431700D01*
G01*
X135203291Y-86715457D02*
G75*
G02*
X135455549Y-86647158I252261J-431710D01*
G01*
X135455548Y-83647158D02*
G75*
G02*
X135203290Y-83578859I3J500009D01*
G01*
X137044453Y-86647158D02*
G75*
G02*
X137296712Y-86715457I-3J-500012D01*
G01*
X137296712Y-83578860D02*
G75*
G02*
X137044454Y-83647160I-252262J431710D01*
G01*
X137296712Y-83578860D02*
G75*
G02*
X137999484Y-84227438I252258J-431700D01*
G01*
X137950000Y-84444315D02*
G75*
G02*
X137999479Y-84227435I500000J15D01*
G01*
X137999485Y-86066877D02*
G75*
G02*
X137296712Y-86715457I-450514J-216880D01*
G01*
X137999485Y-86066878D02*
G75*
G02*
X137950000Y-85850000I450515J216878D01*
G01*
%TO.C,D3*%
X115800002Y-66850000D02*
X115800002Y-65444316D01*
X116705549Y-64647159D02*
X118294454Y-64647159D01*
X118294453Y-67647158D02*
X116705549Y-67647158D01*
X119200000Y-65444316D02*
X119200000Y-66850000D01*
X115750517Y-65227438D02*
G75*
G02*
X115800002Y-65444316I-450505J-216876D01*
G01*
X115750517Y-65227438D02*
G75*
G02*
X116453290Y-64578859I450515J216878D01*
G01*
X115800002Y-66850001D02*
G75*
G02*
X115750517Y-67066878I-499990J-1D01*
G01*
X116453290Y-67715455D02*
G75*
G02*
X115750517Y-67066878I-252258J431700D01*
G01*
X116453291Y-67715457D02*
G75*
G02*
X116705549Y-67647158I252261J-431710D01*
G01*
X116705548Y-64647158D02*
G75*
G02*
X116453290Y-64578859I3J500009D01*
G01*
X118294453Y-67647158D02*
G75*
G02*
X118546712Y-67715457I-3J-500012D01*
G01*
X118546712Y-64578860D02*
G75*
G02*
X118294454Y-64647160I-252262J431710D01*
G01*
X118546712Y-64578860D02*
G75*
G02*
X119249484Y-65227438I252258J-431700D01*
G01*
X119200000Y-65444315D02*
G75*
G02*
X119249479Y-65227435I500000J15D01*
G01*
X119249485Y-67066877D02*
G75*
G02*
X118546712Y-67715457I-450514J-216880D01*
G01*
X119249485Y-67066878D02*
G75*
G02*
X119200000Y-66850000I450515J216878D01*
G01*
%TO.C,D4*%
X86897159Y-114894452D02*
X86897159Y-113305547D01*
X87694316Y-112400001D02*
X89100000Y-112400001D01*
X89100000Y-115799999D02*
X87694316Y-115799999D01*
X89897158Y-113305548D02*
X89897158Y-114894452D01*
X86828860Y-113053289D02*
G75*
G02*
X86897160Y-113305547I-431710J-252262D01*
G01*
X86828860Y-113053289D02*
G75*
G02*
X87477438Y-112350517I431700J252258D01*
G01*
X86897158Y-114894453D02*
G75*
G02*
X86828859Y-115146711I-500009J3D01*
G01*
X87477438Y-115849484D02*
G75*
G02*
X86828859Y-115146711I-216878J450515D01*
G01*
X87477438Y-115849484D02*
G75*
G02*
X87694316Y-115799999I216876J-450505D01*
G01*
X87694315Y-112400001D02*
G75*
G02*
X87477435Y-112350522I-15J500000D01*
G01*
X89100001Y-115799999D02*
G75*
G02*
X89316878Y-115849484I1J-499990D01*
G01*
X89316877Y-112350516D02*
G75*
G02*
X89965457Y-113053289I216880J-450514D01*
G01*
X89316878Y-112350516D02*
G75*
G02*
X89100000Y-112400001I-216878J450515D01*
G01*
X89897158Y-113305548D02*
G75*
G02*
X89965457Y-113053289I500012J-3D01*
G01*
X89965455Y-115146711D02*
G75*
G02*
X89316878Y-115849484I-431700J-252258D01*
G01*
X89965457Y-115146710D02*
G75*
G02*
X89897158Y-114894452I431710J252261D01*
G01*
%TO.C,D1*%
X96700001Y-66952842D02*
X96700001Y-65547158D01*
X97605548Y-64750001D02*
X99194453Y-64750001D01*
X99194452Y-67750000D02*
X97605548Y-67750000D01*
X100099999Y-65547158D02*
X100099999Y-66952842D01*
X96650516Y-65330280D02*
G75*
G02*
X96700001Y-65547158I-450505J-216876D01*
G01*
X96650516Y-65330280D02*
G75*
G02*
X97353289Y-64681701I450515J216878D01*
G01*
X96700001Y-66952843D02*
G75*
G02*
X96650516Y-67169720I-499990J-1D01*
G01*
X97353289Y-67818297D02*
G75*
G02*
X96650516Y-67169720I-252258J431700D01*
G01*
X97353290Y-67818299D02*
G75*
G02*
X97605548Y-67750000I252261J-431710D01*
G01*
X97605547Y-64750000D02*
G75*
G02*
X97353289Y-64681701I3J500009D01*
G01*
X99194452Y-67750000D02*
G75*
G02*
X99446711Y-67818299I-3J-500012D01*
G01*
X99446711Y-64681702D02*
G75*
G02*
X99194453Y-64750002I-252262J431710D01*
G01*
X99446711Y-64681702D02*
G75*
G02*
X100149483Y-65330280I252258J-431700D01*
G01*
X100099999Y-65547157D02*
G75*
G02*
X100149478Y-65330277I500000J15D01*
G01*
X100149484Y-67169719D02*
G75*
G02*
X99446711Y-67818299I-450514J-216880D01*
G01*
X100149484Y-67169720D02*
G75*
G02*
X100099999Y-66952842I450515J216878D01*
G01*
%TD*%
M02*
