%TF.GenerationSoftware,KiCad,Pcbnew,10.0.3*%
%TF.CreationDate,2026-06-19T22:49:30+05:30*%
%TF.ProjectId,koshipad,6b6f7368-6970-4616-942e-6b696361645f,rev?*%
%TF.SameCoordinates,Original*%
%TF.FileFunction,Copper,L1,Top*%
%TF.FilePolarity,Positive*%
%FSLAX46Y46*%
G04 Gerber Fmt 4.6, Leading zero omitted, Abs format (unit mm)*
G04 Created by KiCad (PCBNEW 10.0.3) date 2026-06-19 22:49:30*
%MOMM*%
%LPD*%
G01*
G04 APERTURE LIST*
G04 Aperture macros list*
%AMRoundRect*
0 Rectangle with rounded corners*
0 $1 Rounding radius*
0 $2 $3 $4 $5 $6 $7 $8 $9 X,Y pos of 4 corners*
0 Add a 4 corners polygon primitive as box body*
4,1,4,$2,$3,$4,$5,$6,$7,$8,$9,$2,$3,0*
0 Add four circle primitives for the rounded corners*
1,1,$1+$1,$2,$3*
1,1,$1+$1,$4,$5*
1,1,$1+$1,$6,$7*
1,1,$1+$1,$8,$9*
0 Add four rect primitives between the rounded corners*
20,1,$1+$1,$2,$3,$4,$5,0*
20,1,$1+$1,$4,$5,$6,$7,0*
20,1,$1+$1,$6,$7,$8,$9,0*
20,1,$1+$1,$8,$9,$2,$3,0*%
G04 Aperture macros list end*
%TA.AperFunction,ComponentPad*%
%ADD10C,2.200000*%
%TD*%
%TA.AperFunction,ComponentPad*%
%ADD11R,2.000000X2.000000*%
%TD*%
%TA.AperFunction,ComponentPad*%
%ADD12C,2.000000*%
%TD*%
%TA.AperFunction,ComponentPad*%
%ADD13R,3.200000X2.000000*%
%TD*%
%TA.AperFunction,ComponentPad*%
%ADD14R,1.700000X1.700000*%
%TD*%
%TA.AperFunction,ComponentPad*%
%ADD15C,1.700000*%
%TD*%
%TA.AperFunction,ComponentPad*%
%ADD16RoundRect,0.250000X0.550000X-0.550000X0.550000X0.550000X-0.550000X0.550000X-0.550000X-0.550000X0*%
%TD*%
%TA.AperFunction,ComponentPad*%
%ADD17C,1.600000*%
%TD*%
%TA.AperFunction,ComponentPad*%
%ADD18R,3.500000X1.700000*%
%TD*%
%TA.AperFunction,ComponentPad*%
%ADD19O,3.600000X1.700000*%
%TD*%
%TA.AperFunction,ComponentPad*%
%ADD20O,3.700000X1.700000*%
%TD*%
%TA.AperFunction,ViaPad*%
%ADD21C,0.600000*%
%TD*%
%TA.AperFunction,Conductor*%
%ADD22C,0.200000*%
%TD*%
G04 APERTURE END LIST*
D10*
%TO.P,SW3,1,1_1*%
%TO.N,column 2*%
X138939999Y-70772842D03*
%TO.P,SW3,2,2_2*%
%TO.N,Net-(D25-A)*%
X132589999Y-73312842D03*
%TD*%
%TO.P,SW9,1,1_1*%
%TO.N,column 2*%
X138939999Y-108772842D03*
%TO.P,SW9,2,2_2*%
%TO.N,Net-(D31-A)*%
X132589999Y-111312842D03*
%TD*%
%TO.P,SW2,1,1_1*%
%TO.N,column 1*%
X119939999Y-70772842D03*
%TO.P,SW2,2,2_2*%
%TO.N,Net-(D26-A)*%
X113589999Y-73312842D03*
%TD*%
D11*
%TO.P,SW10,A,A_A*%
%TO.N,ENC_A*%
X152500000Y-75000000D03*
D12*
%TO.P,SW10,B,B_B*%
%TO.N,ENC_B*%
X152500000Y-80000000D03*
%TO.P,SW10,C,C_C*%
%TO.N,GND*%
X152500000Y-77500000D03*
D13*
%TO.P,SW10,MP*%
%TO.N,N/C*%
X160000000Y-71900000D03*
X160000000Y-83100000D03*
D12*
%TO.P,SW10,S1,S1_S1*%
%TO.N,GND*%
X167000000Y-80000000D03*
%TO.P,SW10,S2,S2_S2*%
%TO.N,unconnected-(SW10-PadS2)*%
X167000000Y-75000000D03*
%TD*%
D14*
%TO.P,J2,1,Pin_1_1*%
%TO.N,GND*%
X135500000Y-49380000D03*
D15*
%TO.P,J2,2,Pin_2_2*%
%TO.N,+5V*%
X135500000Y-51920000D03*
%TO.P,J2,3,Pin_3_3*%
%TO.N,SCL*%
X135500000Y-54460000D03*
%TO.P,J2,4,Pin_4_4*%
%TO.N,SDA*%
X135500000Y-57000000D03*
%TD*%
D10*
%TO.P,SW4,1,1_1*%
%TO.N,column 0*%
X100899999Y-89772842D03*
%TO.P,SW4,2,2_2*%
%TO.N,Net-(D30-A)*%
X94549999Y-92312842D03*
%TD*%
%TO.P,SW1,1,1_1*%
%TO.N,column 0*%
X100859999Y-70772842D03*
%TO.P,SW1,2,2_2*%
%TO.N,Net-(D27-A)*%
X94509999Y-73312842D03*
%TD*%
%TO.P,SW6,1,1_1*%
%TO.N,column 2*%
X138899999Y-89772842D03*
%TO.P,SW6,2,2_2*%
%TO.N,Net-(D28-A)*%
X132549999Y-92312842D03*
%TD*%
%TO.P,SW8,1,1_1*%
%TO.N,column 1*%
X119859999Y-108772842D03*
%TO.P,SW8,2,2_2*%
%TO.N,Net-(D32-A)*%
X113509999Y-111312842D03*
%TD*%
%TO.P,SW7,1,1_1*%
%TO.N,column 0*%
X100939999Y-108772842D03*
%TO.P,SW7,2,2_2*%
%TO.N,Net-(D33-A)*%
X94589999Y-111312842D03*
%TD*%
%TO.P,SW5,1,1_1*%
%TO.N,column 1*%
X119939999Y-89772842D03*
%TO.P,SW5,2,2_2*%
%TO.N,Net-(D29-A)*%
X113589999Y-92312842D03*
%TD*%
D16*
%TO.P,D28,1,K_1*%
%TO.N,Row 1*%
X145899999Y-97472842D03*
D17*
%TO.P,D28,2,A_2*%
%TO.N,Net-(D28-A)*%
X145899999Y-89852842D03*
%TD*%
D16*
%TO.P,D31,1,K_1*%
%TO.N,Row 2*%
X145899999Y-116472842D03*
D17*
%TO.P,D31,2,A_2*%
%TO.N,Net-(D31-A)*%
X145899999Y-108852842D03*
%TD*%
D16*
%TO.P,D30,1,K_1*%
%TO.N,Row 1*%
X107899999Y-97472842D03*
D17*
%TO.P,D30,2,A_2*%
%TO.N,Net-(D30-A)*%
X107899999Y-89852842D03*
%TD*%
D16*
%TO.P,D33,1,K_1*%
%TO.N,Row 2*%
X107899999Y-116472842D03*
D17*
%TO.P,D33,2,A_2*%
%TO.N,Net-(D33-A)*%
X107899999Y-108852842D03*
%TD*%
D16*
%TO.P,D26,1,K_1*%
%TO.N,Row 0*%
X126899999Y-78472842D03*
D17*
%TO.P,D26,2,A_2*%
%TO.N,Net-(D26-A)*%
X126899999Y-70852842D03*
%TD*%
D16*
%TO.P,D32,1,K_1*%
%TO.N,Row 2*%
X126899999Y-116472842D03*
D17*
%TO.P,D32,2,A_2*%
%TO.N,Net-(D32-A)*%
X126899999Y-108852842D03*
%TD*%
D16*
%TO.P,D29,1,K_1*%
%TO.N,Row 1*%
X126899999Y-97472842D03*
D17*
%TO.P,D29,2,A_2*%
%TO.N,Net-(D29-A)*%
X126899999Y-89852842D03*
%TD*%
D16*
%TO.P,D27,1,K_1*%
%TO.N,Row 0*%
X107899999Y-78472842D03*
D17*
%TO.P,D27,2,A_2*%
%TO.N,Net-(D27-A)*%
X107899999Y-70852842D03*
%TD*%
D18*
%TO.P,U2,1,PA02_A0_D0_1*%
%TO.N,ENC_A*%
X165500000Y-43880000D03*
D19*
%TO.P,U2,2,PA4_A1_D1_2*%
%TO.N,ENC_B*%
X165500000Y-46420000D03*
%TO.P,U2,3,PA10_A2_D2_3*%
%TO.N,Row 0*%
X165500000Y-48960000D03*
%TO.P,U2,4,PA11_A3_D3_4*%
%TO.N,Row 1*%
X165500000Y-51500000D03*
%TO.P,U2,5,PA8_A4_D4_SDA_5*%
%TO.N,SDA*%
X165500000Y-54040000D03*
%TO.P,U2,6,PA9_A5_D5_SCL_6*%
%TO.N,SCL*%
X165500000Y-56580000D03*
%TO.P,U2,7,PB08_A6_D6_TX_7*%
%TO.N,Row 2*%
X165500000Y-59120000D03*
%TO.P,U2,8,PB09_A7_D7_RX_8*%
%TO.N,LED Data*%
X148250000Y-59120000D03*
%TO.P,U2,9,PA7_A8_D8_SCK_9*%
%TO.N,column 2*%
X148250000Y-56580000D03*
%TO.P,U2,10,PA5_A9_D9_MISO_10*%
%TO.N,column 1*%
X148250000Y-54040000D03*
D20*
%TO.P,U2,11,PA6_A10_D10_MOSI_11*%
%TO.N,column 0*%
X148250000Y-51500000D03*
%TO.P,U2,12,3V3_12*%
%TO.N,+3.3V*%
X148250000Y-48960000D03*
%TO.P,U2,13,GND_13*%
%TO.N,GND*%
X148250000Y-46420000D03*
%TO.P,U2,14,5V_14*%
%TO.N,+5V*%
X148250000Y-43880000D03*
%TD*%
D16*
%TO.P,D25,1,K_1*%
%TO.N,Row 0*%
X145899999Y-78472842D03*
D17*
%TO.P,D25,2,A_2*%
%TO.N,Net-(D25-A)*%
X145899999Y-70852842D03*
%TD*%
D21*
%TO.N,+5V*%
X85000000Y-103750000D03*
X87500000Y-118250000D03*
X115000000Y-64250000D03*
X115000000Y-62500000D03*
X92250000Y-84750000D03*
X133750000Y-64250000D03*
X95750000Y-120750000D03*
X97250000Y-120250000D03*
X114750000Y-101850000D03*
X131000000Y-65750000D03*
X134000000Y-101850000D03*
X118000000Y-62750000D03*
X89000000Y-81500000D03*
X129750000Y-77000000D03*
X118750000Y-100000000D03*
X121504974Y-99964996D03*
X132350000Y-65750000D03*
X93000000Y-101250000D03*
X91000000Y-103750000D03*
X95750000Y-81500000D03*
X129750000Y-63250000D03*
X109500000Y-84750000D03*
X134750000Y-60000000D03*
X129750000Y-81000000D03*
%TO.N,GND*%
X111250000Y-108000000D03*
X134414376Y-68500000D03*
X121500000Y-106500000D03*
X111250000Y-106500000D03*
X94250000Y-87500000D03*
X160750000Y-64500000D03*
X96500001Y-106628578D03*
X96651151Y-87711769D03*
X160750000Y-68500000D03*
X94500000Y-106500000D03*
X134437595Y-106586014D03*
X111250000Y-68500000D03*
X121500000Y-108250000D03*
X115749009Y-68502672D03*
X97750000Y-68550000D03*
X130250000Y-68500000D03*
X93750000Y-68500000D03*
%TO.N,SCL*%
X160500000Y-56500000D03*
X163100000Y-56500000D03*
%TO.N,SDA*%
X163100000Y-54000000D03*
X159500000Y-54000000D03*
%TO.N,Net-(D4-DIN)*%
X92000000Y-109000000D03*
X87750000Y-109000000D03*
%TO.N,Net-(D2-DIN)*%
X84300000Y-73750000D03*
X86250000Y-73500000D03*
%TO.N,LED Data*%
X103750000Y-61600000D03*
X103750000Y-65500000D03*
%TD*%
%TO.N,column 2*%
D22*
X144212841Y-65500000D02*
X144212841Y-56787159D01*
X144500000Y-56500000D02*
X149170000Y-56500000D01*
X138939999Y-108772842D02*
X138939999Y-70772842D01*
X144212841Y-65500000D02*
X138939999Y-70772842D01*
X149170000Y-56500000D02*
X149250000Y-56580000D01*
X144212841Y-56787159D02*
X144500000Y-56500000D01*
%TO.N,+5V*%
X87500000Y-120250000D02*
X95250000Y-120250000D01*
X133000000Y-54420000D02*
X133000000Y-58250000D01*
X135500000Y-51920000D02*
X133000000Y-54420000D01*
X89000000Y-81500000D02*
X95750000Y-81500000D01*
X115000000Y-62500000D02*
X115000000Y-63250000D01*
X131000000Y-65750000D02*
X132350000Y-65750000D01*
X97250000Y-120250000D02*
X95250000Y-120250000D01*
X114750000Y-101850000D02*
X116600000Y-100000000D01*
X133000000Y-45500000D02*
X134620000Y-43880000D01*
X109500000Y-101500000D02*
X114400000Y-101500000D01*
X91000000Y-103750000D02*
X85000000Y-103750000D01*
X114400000Y-101500000D02*
X114750000Y-101850000D01*
X115000000Y-63250000D02*
X117500000Y-63250000D01*
X92079999Y-100329999D02*
X93000000Y-101250000D01*
X129750000Y-77000000D02*
X129750000Y-81000000D01*
X109500000Y-84750000D02*
X109500000Y-101500000D01*
X133750000Y-63250000D02*
X133750000Y-64250000D01*
X115000000Y-63075000D02*
X115000000Y-64425000D01*
X133000000Y-58250000D02*
X134750000Y-60000000D01*
X95250000Y-120250000D02*
X95750000Y-120750000D01*
X87500000Y-118250000D02*
X87500000Y-120250000D01*
X117500000Y-63250000D02*
X118000000Y-62750000D01*
X134000000Y-100000000D02*
X134000000Y-101850000D01*
X92250000Y-84750000D02*
X92079999Y-84920001D01*
X133964996Y-99964996D02*
X134000000Y-100000000D01*
X133000000Y-51500000D02*
X133000000Y-45500000D01*
X116600000Y-100000000D02*
X118750000Y-100000000D01*
X121504974Y-99964996D02*
X121504974Y-100004974D01*
X92079999Y-84920001D02*
X92079999Y-100329999D01*
X135500000Y-51920000D02*
X133420000Y-51920000D01*
X134620000Y-43880000D02*
X149250000Y-43880000D01*
X129750000Y-63250000D02*
X133750000Y-63250000D01*
X121504974Y-99964996D02*
X133964996Y-99964996D01*
X133420000Y-51920000D02*
X133000000Y-51500000D01*
%TO.N,GND*%
X161500000Y-46500000D02*
X149330000Y-46500000D01*
X96371423Y-106500000D02*
X96500001Y-106628578D01*
X115746337Y-68500000D02*
X115749009Y-68502672D01*
X97700000Y-68500000D02*
X97750000Y-68550000D01*
X135500000Y-45500000D02*
X148330000Y-45500000D01*
X121500000Y-106500000D02*
X134351581Y-106500000D01*
X130250000Y-68500000D02*
X130256983Y-68493017D01*
X111250000Y-68500000D02*
X115746337Y-68500000D01*
X134269740Y-68493017D02*
X134414376Y-68637653D01*
X135500000Y-49380000D02*
X135500000Y-45500000D01*
X164500000Y-77500000D02*
X152500000Y-77500000D01*
X134351581Y-106500000D02*
X134437595Y-106586014D01*
X161500000Y-63750000D02*
X161500000Y-46500000D01*
X130256983Y-68493017D02*
X134269740Y-68493017D01*
X121500000Y-108250000D02*
X121500000Y-106500000D01*
X160750000Y-64500000D02*
X161500000Y-63750000D01*
X96439382Y-87500000D02*
X96651151Y-87711769D01*
X94250000Y-87500000D02*
X96439382Y-87500000D01*
X111250000Y-106500000D02*
X111250000Y-108000000D01*
X152500000Y-77500000D02*
X154500000Y-75500000D01*
X149330000Y-46500000D02*
X149250000Y-46420000D01*
X148330000Y-45500000D02*
X149250000Y-46420000D01*
X154500000Y-75500000D02*
X154500000Y-68500000D01*
X94500000Y-106500000D02*
X96371423Y-106500000D01*
X154500000Y-68500000D02*
X160750000Y-68500000D01*
X93750000Y-68500000D02*
X97700000Y-68500000D01*
X167000000Y-80000000D02*
X164500000Y-77500000D01*
%TO.N,column 1*%
X142000000Y-62500000D02*
X142000000Y-54000000D01*
X142000000Y-54000000D02*
X149210000Y-54000000D01*
X119939999Y-70772842D02*
X119939999Y-62560001D01*
X119859999Y-70852842D02*
X119939999Y-70772842D01*
X119939999Y-62560001D02*
X120000000Y-62500000D01*
X149210000Y-54000000D02*
X149250000Y-54040000D01*
X120000000Y-62500000D02*
X142000000Y-62500000D01*
X119859999Y-108772842D02*
X119859999Y-70852842D01*
%TO.N,ENC_A*%
X151000000Y-76500000D02*
X151000000Y-87500000D01*
X152500000Y-75000000D02*
X151000000Y-76500000D01*
X151000000Y-87500000D02*
X171000000Y-87500000D01*
X165945686Y-43880000D02*
X164500000Y-43880000D01*
X171500000Y-49434314D02*
X165945686Y-43880000D01*
X171000000Y-87500000D02*
X171500000Y-87000000D01*
X171500000Y-87000000D02*
X171500000Y-49434314D01*
%TO.N,ENC_B*%
X152500000Y-80000000D02*
X152500000Y-86500000D01*
X167920000Y-46420000D02*
X164500000Y-46420000D01*
X152500000Y-80000000D02*
X152000000Y-80000000D01*
X170000000Y-48500000D02*
X167920000Y-46420000D01*
X152500000Y-86500000D02*
X170000000Y-86500000D01*
X170000000Y-86500000D02*
X170000000Y-48500000D01*
%TO.N,unconnected-(SW10-PadS2)*%
X167000000Y-75000000D02*
X167000000Y-74900000D01*
X167000000Y-75000000D02*
X167000000Y-75500000D01*
X167000000Y-75000000D02*
X166500000Y-75000000D01*
%TO.N,SCL*%
X160500000Y-49000000D02*
X160500000Y-56500000D01*
X135500000Y-54500000D02*
X138460000Y-54500000D01*
X138930000Y-47570000D02*
X159070000Y-47570000D01*
X138500000Y-54500000D02*
X138500000Y-48000000D01*
X138500000Y-48000000D02*
X138930000Y-47570000D01*
X159070000Y-47570000D02*
X160500000Y-49000000D01*
X164420000Y-56500000D02*
X164500000Y-56580000D01*
X163100000Y-56500000D02*
X164420000Y-56500000D01*
%TO.N,SDA*%
X163100000Y-54000000D02*
X164460000Y-54000000D01*
X159500000Y-50500000D02*
X159500000Y-54000000D01*
X139500000Y-57000000D02*
X139500000Y-50500000D01*
X135500000Y-57000000D02*
X139500000Y-57000000D01*
X159350000Y-50350000D02*
X159500000Y-50500000D01*
X139650000Y-50350000D02*
X159350000Y-50350000D01*
X139500000Y-50500000D02*
X139650000Y-50350000D01*
X164460000Y-54000000D02*
X164500000Y-54040000D01*
%TO.N,column 0*%
X101500000Y-61000000D02*
X140500000Y-61000000D01*
X140500000Y-61000000D02*
X140500000Y-51500000D01*
X100859999Y-61640001D02*
X101500000Y-61000000D01*
X100859999Y-70772842D02*
X100859999Y-61640001D01*
X140500000Y-51500000D02*
X149250000Y-51500000D01*
X100939999Y-70852842D02*
X100859999Y-70772842D01*
X100939999Y-108772842D02*
X100939999Y-70852842D01*
%TO.N,Net-(D4-DIN)*%
X92000000Y-109000000D02*
X87750000Y-109000000D01*
%TO.N,Net-(D27-A)*%
X94509999Y-73312842D02*
X94469999Y-73352842D01*
X94469999Y-73352842D02*
X93899999Y-73352842D01*
%TO.N,Net-(D2-DIN)*%
X84550000Y-73500000D02*
X86250000Y-73500000D01*
X84300000Y-73750000D02*
X84550000Y-73500000D01*
%TO.N,LED Data*%
X103750000Y-65500000D02*
X103750000Y-61600000D01*
%TO.N,Row 1*%
X145927157Y-97500000D02*
X150000000Y-97500000D01*
X150000000Y-97500000D02*
X150000000Y-67000000D01*
X162500000Y-51500000D02*
X164500000Y-51500000D01*
X162500000Y-67000000D02*
X162500000Y-51500000D01*
X150000000Y-67000000D02*
X162500000Y-67000000D01*
%TO.N,Row 2*%
X145899999Y-116472842D02*
X150500000Y-116472842D01*
X150500000Y-67500000D02*
X150500000Y-116472842D01*
X164500000Y-59120000D02*
X164500000Y-67500000D01*
X164500000Y-67500000D02*
X150500000Y-67500000D01*
%TO.N,Row 0*%
X162000000Y-49000000D02*
X164460000Y-49000000D01*
X149472842Y-78472842D02*
X149500000Y-78500000D01*
X162000000Y-66500000D02*
X162000000Y-49000000D01*
X145899999Y-78472842D02*
X149472842Y-78472842D01*
X164460000Y-49000000D02*
X164500000Y-48960000D01*
X149500000Y-78500000D02*
X149500000Y-66500000D01*
X149500000Y-66500000D02*
X162000000Y-66500000D01*
%TD*%
M02*
